<svg xmlns="http://www.w3.org/2000/svg" viewBox="0 0 3051.36 2796.85"><defs><style>.cls-1{opacity:0.55;}.cls-2{fill:#fff;}</style></defs><g id="Layer_2" data-name="Layer 2"><g id="Layer_1-2" data-name="Layer 1"><g class="cls-1"><path class="cls-2" d="M425.33,151.34A151.32,151.32,0,0,1,274,302.73H136.63L185,273.82a151.36,151.36,0,1,1,240.3-122.48Z"/><path d="M247.58,126.27A49.77,49.77,0,0,0,241,142.92h88.12v9.3a63.12,63.12,0,0,1-8,30.82,79.83,79.83,0,0,1-21.63,24.85,107.73,107.73,0,0,1-31.66,16.42,120.84,120.84,0,0,1-38.26,6H218.86V212.07h10.66A97.39,97.39,0,0,0,259,207.68a85.47,85.47,0,0,0,24.43-12.12,64.27,64.27,0,0,0,16.92-17.89,49.1,49.1,0,0,0,6.6-16.5h-88.1v-9a63.47,63.47,0,0,1,8-31.11,82.49,82.49,0,0,1,21.6-24.91,105.59,105.59,0,0,1,31.69-16.66,120.1,120.1,0,0,1,38.26-6h10.67V91.66H318.42a96.78,96.78,0,0,0-29.49,4.42,85.16,85.16,0,0,0-24.42,12.19A64.69,64.69,0,0,0,247.58,126.27Z"/><path d="M280.05,54.32h0a0,0,0,0,1,0,0V94.17a0,0,0,0,1,0,0h-15.5a0,0,0,0,1,0,0V69.82A15.5,15.5,0,0,1,280.05,54.32Z"/><path d="M264.55,208.56h15.5a0,0,0,0,1,0,0v24.35a15.5,15.5,0,0,1-15.5,15.5h0a0,0,0,0,1,0,0V208.56A0,0,0,0,1,264.55,208.56Z"/><path class="cls-2" d="M780.77,151.34A151.32,151.32,0,0,1,629.43,302.73H492.07l48.39-28.91A151.36,151.36,0,1,1,780.77,151.34Z"/><path d="M603,126.27a49.77,49.77,0,0,0-6.62,16.65h88.12v9.3a63.23,63.23,0,0,1-8,30.82,79.83,79.83,0,0,1-21.63,24.85,107.73,107.73,0,0,1-31.66,16.42,120.84,120.84,0,0,1-38.26,6H574.29V212.07H585a97.41,97.41,0,0,0,29.5-4.39,85.47,85.47,0,0,0,24.43-12.12,64.41,64.41,0,0,0,16.92-17.89,49.31,49.31,0,0,0,6.6-16.5H574.29v-9a63.48,63.48,0,0,1,8-31.11,82.45,82.45,0,0,1,21.59-24.91,105.77,105.77,0,0,1,31.7-16.66,120.06,120.06,0,0,1,38.26-6h10.67V91.66H673.86a96.68,96.68,0,0,0-29.49,4.42A85.16,85.16,0,0,0,620,108.27,64.55,64.55,0,0,0,603,126.27Z"/><path d="M635.49,54.32h0a0,0,0,0,1,0,0V94.17a0,0,0,0,1,0,0H620a0,0,0,0,1,0,0V69.82a15.5,15.5,0,0,1,15.5-15.5Z"/><path d="M620,208.56h15.5a0,0,0,0,1,0,0v24.35a15.5,15.5,0,0,1-15.5,15.5h0a0,0,0,0,1,0,0V208.56a0,0,0,0,1,0,0Z"/><path class="cls-2" d="M1136.21,151.34A151.32,151.32,0,0,1,984.87,302.73H847.5l48.4-28.91a151.36,151.36,0,1,1,240.31-122.48Z"/><path d="M958.46,126.27a49.56,49.56,0,0,0-6.62,16.65H1040v9.3a63.23,63.23,0,0,1-8,30.82,79.83,79.83,0,0,1-21.63,24.85,107.86,107.86,0,0,1-31.66,16.42,120.84,120.84,0,0,1-38.26,6H929.73V212.07h10.66a97.29,97.29,0,0,0,29.49-4.39,85.53,85.53,0,0,0,24.44-12.12,64.23,64.23,0,0,0,16.91-17.89,49.13,49.13,0,0,0,6.61-16.5H929.73v-9a63.37,63.37,0,0,1,8-31.11,82.45,82.45,0,0,1,21.59-24.91A105.53,105.53,0,0,1,991,79.46a120.06,120.06,0,0,1,38.26-6H1040V91.66h-10.67a96.66,96.66,0,0,0-29.48,4.42,85.35,85.35,0,0,0-24.43,12.19A64.66,64.66,0,0,0,958.46,126.27Z"/><path d="M990.93,54.32h0a0,0,0,0,1,0,0V94.17a0,0,0,0,1,0,0h-15.5a0,0,0,0,1,0,0V69.82a15.5,15.5,0,0,1,15.5-15.5Z"/><path d="M975.43,208.56h15.5a0,0,0,0,1,0,0v24.35a15.5,15.5,0,0,1-15.5,15.5h0a0,0,0,0,1,0,0V208.56A0,0,0,0,1,975.43,208.56Z"/><path class="cls-2" d="M1491.65,151.34a151.33,151.33,0,0,1-151.34,151.39H1202.94l48.4-28.91a151.36,151.36,0,1,1,240.31-122.48Z"/><path d="M1313.9,126.27a49.79,49.79,0,0,0-6.63,16.65h88.13v9.3a63.23,63.23,0,0,1-8,30.82,79.74,79.74,0,0,1-21.64,24.85,107.61,107.61,0,0,1-31.66,16.42,120.82,120.82,0,0,1-38.25,6h-10.67V212.07h10.66a97.29,97.29,0,0,0,29.49-4.39,85.47,85.47,0,0,0,24.43-12.12,64.27,64.27,0,0,0,16.92-17.89,49.13,49.13,0,0,0,6.61-16.5h-88.11v-9a63.37,63.37,0,0,1,8-31.11,82.32,82.32,0,0,1,21.59-24.91,105.59,105.59,0,0,1,31.69-16.66,120.16,120.16,0,0,1,38.27-6h10.67V91.66h-10.67a96.66,96.66,0,0,0-29.48,4.42,85.35,85.35,0,0,0-24.43,12.19A64.51,64.51,0,0,0,1313.9,126.27Z"/><path d="M1346.36,54.32h0a0,0,0,0,1,0,0V94.17a0,0,0,0,1,0,0h-15.5a0,0,0,0,1,0,0V69.82A15.5,15.5,0,0,1,1346.36,54.32Z"/><path d="M1330.87,208.56h15.5a0,0,0,0,1,0,0v24.35a15.5,15.5,0,0,1-15.5,15.5h0a0,0,0,0,1,0,0V208.56A0,0,0,0,1,1330.87,208.56Z"/><path class="cls-2" d="M1847.09,151.34a151.33,151.33,0,0,1-151.35,151.39H1558.38l48.4-28.91a151.36,151.36,0,1,1,240.31-122.48Z"/><path d="M1669.34,126.27a49.79,49.79,0,0,0-6.63,16.65h88.13v9.3a63.13,63.13,0,0,1-8,30.82,79.71,79.71,0,0,1-21.63,24.85,107.61,107.61,0,0,1-31.66,16.42,120.82,120.82,0,0,1-38.25,6h-10.67V212.07h10.66a97.39,97.39,0,0,0,29.49-4.39,85.47,85.47,0,0,0,24.43-12.12,64.27,64.27,0,0,0,16.92-17.89,49.13,49.13,0,0,0,6.61-16.5h-88.11v-9a63.47,63.47,0,0,1,8-31.11,82.49,82.49,0,0,1,21.6-24.91,105.59,105.59,0,0,1,31.69-16.66,120.12,120.12,0,0,1,38.27-6h10.67V91.66h-10.67a96.66,96.66,0,0,0-29.48,4.42,85.22,85.22,0,0,0-24.43,12.19A64.51,64.51,0,0,0,1669.34,126.27Z"/><path d="M1701.8,54.32h0a0,0,0,0,1,0,0V94.17a0,0,0,0,1,0,0h-15.5a0,0,0,0,1,0,0V69.82A15.5,15.5,0,0,1,1701.8,54.32Z"/><path d="M1686.31,208.56h15.5a0,0,0,0,1,0,0v24.35a15.5,15.5,0,0,1-15.5,15.5h0a0,0,0,0,1,0,0V208.56A0,0,0,0,1,1686.31,208.56Z"/><path class="cls-2" d="M2202.52,151.34a151.32,151.32,0,0,1-151.34,151.39H1913.82l48.4-28.91a151.36,151.36,0,1,1,240.3-122.48Z"/><path d="M2024.77,126.27a49.77,49.77,0,0,0-6.62,16.65h88.12v9.3a63.12,63.12,0,0,1-8,30.82,79.83,79.83,0,0,1-21.63,24.85A107.73,107.73,0,0,1,2045,224.31a120.84,120.84,0,0,1-38.26,6h-10.66V212.07h10.66a97.39,97.39,0,0,0,29.49-4.39,85.47,85.47,0,0,0,24.43-12.12,64.27,64.27,0,0,0,16.92-17.89,49.1,49.1,0,0,0,6.6-16.5h-88.1v-9a63.47,63.47,0,0,1,8-31.11,82.49,82.49,0,0,1,21.6-24.91,105.59,105.59,0,0,1,31.69-16.66,120.1,120.1,0,0,1,38.26-6h10.67V91.66h-10.66a96.78,96.78,0,0,0-29.49,4.42,85.16,85.16,0,0,0-24.42,12.19A64.69,64.69,0,0,0,2024.77,126.27Z"/><path d="M2057.24,54.32h0a0,0,0,0,1,0,0V94.17a0,0,0,0,1,0,0h-15.5a0,0,0,0,1,0,0V69.82A15.5,15.5,0,0,1,2057.24,54.32Z"/><path d="M2041.74,208.56h15.5a0,0,0,0,1,0,0v24.35a15.5,15.5,0,0,1-15.5,15.5h0a0,0,0,0,1,0,0V208.56A0,0,0,0,1,2041.74,208.56Z"/><path class="cls-2" d="M2558,151.34a151.32,151.32,0,0,1-151.34,151.39H2269.26l48.39-28.91A151.36,151.36,0,1,1,2558,151.34Z"/><path d="M2380.21,126.27a49.77,49.77,0,0,0-6.62,16.65h88.12v9.3a63.23,63.23,0,0,1-8,30.82,79.83,79.83,0,0,1-21.63,24.85,107.73,107.73,0,0,1-31.66,16.42,120.84,120.84,0,0,1-38.26,6h-10.67V212.07h10.66a97.41,97.41,0,0,0,29.5-4.39,85.47,85.47,0,0,0,24.43-12.12A64.41,64.41,0,0,0,2433,177.67a49.31,49.31,0,0,0,6.6-16.5h-88.11v-9a63.48,63.48,0,0,1,8-31.11,82.45,82.45,0,0,1,21.59-24.91,105.77,105.77,0,0,1,31.7-16.66,120.06,120.06,0,0,1,38.26-6h10.67V91.66h-10.66a96.68,96.68,0,0,0-29.49,4.42,85.16,85.16,0,0,0-24.42,12.19A64.55,64.55,0,0,0,2380.21,126.27Z"/><path d="M2412.68,54.32h0a0,0,0,0,1,0,0V94.17a0,0,0,0,1,0,0h-15.5a0,0,0,0,1,0,0V69.82a15.5,15.5,0,0,1,15.5-15.5Z"/><path d="M2397.18,208.56h15.5a0,0,0,0,1,0,0v24.35a15.5,15.5,0,0,1-15.5,15.5h0a0,0,0,0,1,0,0V208.56A0,0,0,0,1,2397.18,208.56Z"/><path class="cls-2" d="M2913.4,151.34a151.32,151.32,0,0,1-151.34,151.39H2624.69l48.4-28.91A151.36,151.36,0,1,1,2913.4,151.34Z"/><path d="M2735.65,126.27a49.56,49.56,0,0,0-6.62,16.65h88.12v9.3a63.23,63.23,0,0,1-8,30.82,79.83,79.83,0,0,1-21.63,24.85,107.86,107.86,0,0,1-31.66,16.42,120.84,120.84,0,0,1-38.26,6h-10.67V212.07h10.66a97.29,97.29,0,0,0,29.49-4.39,85.53,85.53,0,0,0,24.44-12.12,64.23,64.23,0,0,0,16.91-17.89,49.13,49.13,0,0,0,6.61-16.5h-88.11v-9a63.37,63.37,0,0,1,8-31.11,82.45,82.45,0,0,1,21.59-24.91,105.53,105.53,0,0,1,31.7-16.66,120.06,120.06,0,0,1,38.26-6h10.67V91.66h-10.67A96.66,96.66,0,0,0,2777,96.08a85.35,85.35,0,0,0-24.43,12.19A64.66,64.66,0,0,0,2735.65,126.27Z"/><path d="M2768.12,54.32h0a0,0,0,0,1,0,0V94.17a0,0,0,0,1,0,0h-15.5a0,0,0,0,1,0,0V69.82a15.5,15.5,0,0,1,15.5-15.5Z"/><path d="M2752.62,208.56h15.5a0,0,0,0,1,0,0v24.35a15.5,15.5,0,0,1-15.5,15.5h0a0,0,0,0,1,0,0V208.56A0,0,0,0,1,2752.62,208.56Z"/></g><g class="cls-1"><path class="cls-2" d="M521.58,507.64A151.27,151.27,0,0,1,370.24,659H232.88l48.4-28.91a151.36,151.36,0,1,1,240.3-122.48Z"/><path d="M343.83,482.58a49.72,49.72,0,0,0-6.62,16.64h88.12v9.31a63.17,63.17,0,0,1-8,30.82,79.91,79.91,0,0,1-21.63,24.84A107.5,107.5,0,0,1,364,580.61a120.84,120.84,0,0,1-38.26,6H315.11V568.38h10.66a97.08,97.08,0,0,0,29.49-4.4,85.71,85.71,0,0,0,24.43-12.11A64.17,64.17,0,0,0,396.61,534a49.1,49.1,0,0,0,6.6-16.5h-88.1v-9a63.4,63.4,0,0,1,8-31.1,82.52,82.52,0,0,1,21.6-24.92,105.59,105.59,0,0,1,31.69-16.66,120.38,120.38,0,0,1,38.26-6.05h10.67V448H414.67a96.77,96.77,0,0,0-29.49,4.41,85.16,85.16,0,0,0-24.42,12.19A64.73,64.73,0,0,0,343.83,482.58Z"/><path d="M376.3,410.62h0a0,0,0,0,1,0,0v39.85a0,0,0,0,1,0,0H360.8a0,0,0,0,1,0,0V426.12A15.5,15.5,0,0,1,376.3,410.62Z"/><path d="M360.8,564.86h15.5a0,0,0,0,1,0,0v24.35a15.5,15.5,0,0,1-15.5,15.5h0a0,0,0,0,1,0,0V564.86A0,0,0,0,1,360.8,564.86Z"/><path class="cls-2" d="M877,507.64A151.27,151.27,0,0,1,725.68,659H588.32l48.39-28.91A151.36,151.36,0,1,1,877,507.64Z"/><path d="M699.27,482.58a49.72,49.72,0,0,0-6.62,16.64h88.12v9.31a63.17,63.17,0,0,1-8,30.82,79.91,79.91,0,0,1-21.63,24.84,107.5,107.5,0,0,1-31.66,16.42,120.84,120.84,0,0,1-38.26,6H670.54V568.38H681.2a97.1,97.1,0,0,0,29.5-4.4,85.71,85.71,0,0,0,24.43-12.11A64.31,64.31,0,0,0,752.05,534a49.31,49.31,0,0,0,6.6-16.5H670.54v-9a63.41,63.41,0,0,1,8-31.1,82.49,82.49,0,0,1,21.59-24.92,105.77,105.77,0,0,1,31.7-16.66,120.34,120.34,0,0,1,38.26-6.05h10.67V448H770.11a96.68,96.68,0,0,0-29.49,4.41,85.16,85.16,0,0,0-24.42,12.19A64.58,64.58,0,0,0,699.27,482.58Z"/><path d="M731.74,410.62h0a0,0,0,0,1,0,0v39.85a0,0,0,0,1,0,0h-15.5a0,0,0,0,1,0,0V426.12A15.5,15.5,0,0,1,731.74,410.62Z"/><path d="M716.24,564.86h15.5a0,0,0,0,1,0,0v24.35a15.5,15.5,0,0,1-15.5,15.5h0a0,0,0,0,1,0,0V564.86A0,0,0,0,1,716.24,564.86Z"/><path class="cls-2" d="M1232.46,507.64A151.27,151.27,0,0,1,1081.12,659H943.75l48.4-28.91a151.36,151.36,0,1,1,240.31-122.48Z"/><path d="M1054.71,482.58a49.51,49.51,0,0,0-6.62,16.64h88.12v9.31a63.28,63.28,0,0,1-8,30.82,79.91,79.91,0,0,1-21.63,24.84,107.62,107.62,0,0,1-31.66,16.42,120.84,120.84,0,0,1-38.26,6H1026V568.38h10.66a97,97,0,0,0,29.49-4.4,85.77,85.77,0,0,0,24.44-12.11,64.13,64.13,0,0,0,16.91-17.9,49.13,49.13,0,0,0,6.61-16.5H1026v-9a63.3,63.3,0,0,1,8-31.1,82.49,82.49,0,0,1,21.59-24.92,105.53,105.53,0,0,1,31.7-16.66,120.34,120.34,0,0,1,38.26-6.05h10.67V448h-10.67a96.66,96.66,0,0,0-29.48,4.41,85.35,85.35,0,0,0-24.43,12.19A64.69,64.69,0,0,0,1054.71,482.58Z"/><path d="M1087.18,410.62h0a0,0,0,0,1,0,0v39.85a0,0,0,0,1,0,0h-15.5a0,0,0,0,1,0,0V426.12A15.5,15.5,0,0,1,1087.18,410.62Z"/><path d="M1071.68,564.86h15.5a0,0,0,0,1,0,0v24.35a15.5,15.5,0,0,1-15.5,15.5h0a0,0,0,0,1,0,0V564.86A0,0,0,0,1,1071.68,564.86Z"/><path class="cls-2" d="M1587.9,507.64A151.27,151.27,0,0,1,1436.56,659H1299.19l48.4-28.91A151.36,151.36,0,1,1,1587.9,507.64Z"/><path d="M1410.15,482.58a49.74,49.74,0,0,0-6.63,16.64h88.13v9.31a63.28,63.28,0,0,1-8,30.82A79.82,79.82,0,0,1,1462,564.19a107.37,107.37,0,0,1-31.66,16.42,120.82,120.82,0,0,1-38.25,6h-10.67V568.38h10.66a97,97,0,0,0,29.49-4.4A85.71,85.71,0,0,0,1446,551.87a64.17,64.17,0,0,0,16.92-17.9,49.13,49.13,0,0,0,6.61-16.5h-88.11v-9a63.3,63.3,0,0,1,8-31.1A82.35,82.35,0,0,1,1411,452.42a105.53,105.53,0,0,1,31.7-16.66,120.34,120.34,0,0,1,38.26-6.05h10.67V448H1481a96.66,96.66,0,0,0-29.48,4.41,85.35,85.35,0,0,0-24.43,12.19A64.54,64.54,0,0,0,1410.15,482.58Z"/><path d="M1442.61,410.62h0a0,0,0,0,1,0,0v39.85a0,0,0,0,1,0,0h-15.5a0,0,0,0,1,0,0V426.12A15.5,15.5,0,0,1,1442.61,410.62Z"/><path d="M1427.12,564.86h15.5a0,0,0,0,1,0,0v24.35a15.5,15.5,0,0,1-15.5,15.5h0a0,0,0,0,1,0,0V564.86A0,0,0,0,1,1427.12,564.86Z"/><path class="cls-2" d="M1943.34,507.64A151.28,151.28,0,0,1,1792,659H1654.63l48.4-28.91a151.36,151.36,0,1,1,240.31-122.48Z"/><path d="M1765.59,482.58a49.74,49.74,0,0,0-6.63,16.64h88.13v9.31a63.18,63.18,0,0,1-8,30.82,79.78,79.78,0,0,1-21.63,24.84,107.37,107.37,0,0,1-31.66,16.42,120.82,120.82,0,0,1-38.25,6h-10.67V568.38h10.66A97.08,97.08,0,0,0,1777,564a85.71,85.71,0,0,0,24.43-12.11,64.17,64.17,0,0,0,16.92-17.9,49.13,49.13,0,0,0,6.61-16.5h-88.11v-9a63.4,63.4,0,0,1,8-31.1,82.52,82.52,0,0,1,21.6-24.92,105.59,105.59,0,0,1,31.69-16.66,120.4,120.4,0,0,1,38.27-6.05h10.67V448h-10.67a96.66,96.66,0,0,0-29.48,4.41,85.22,85.22,0,0,0-24.43,12.19A64.54,64.54,0,0,0,1765.59,482.58Z"/><path d="M1798.05,410.62h0a0,0,0,0,1,0,0v39.85a0,0,0,0,1,0,0h-15.5a0,0,0,0,1,0,0V426.12A15.5,15.5,0,0,1,1798.05,410.62Z"/><path d="M1782.56,564.86h15.5a0,0,0,0,1,0,0v24.35a15.5,15.5,0,0,1-15.5,15.5h0a0,0,0,0,1,0,0V564.86A0,0,0,0,1,1782.56,564.86Z"/><path class="cls-2" d="M2298.77,507.64A151.27,151.27,0,0,1,2147.43,659H2010.07l48.4-28.91a151.36,151.36,0,1,1,240.3-122.48Z"/><path d="M2121,482.58a49.72,49.72,0,0,0-6.62,16.64h88.12v9.31a63.17,63.17,0,0,1-8,30.82,79.91,79.91,0,0,1-21.63,24.84,107.5,107.5,0,0,1-31.66,16.42,120.84,120.84,0,0,1-38.26,6H2092.3V568.38H2103a97.08,97.08,0,0,0,29.49-4.4,85.71,85.71,0,0,0,24.43-12.11A64.17,64.17,0,0,0,2173.8,534a49.1,49.1,0,0,0,6.6-16.5h-88.1v-9a63.4,63.4,0,0,1,8-31.1,82.52,82.52,0,0,1,21.6-24.92,105.59,105.59,0,0,1,31.69-16.66,120.38,120.38,0,0,1,38.26-6.05h10.67V448h-10.66a96.77,96.77,0,0,0-29.49,4.41A85.16,85.16,0,0,0,2138,464.57,64.73,64.73,0,0,0,2121,482.58Z"/><path d="M2153.49,410.62h0a0,0,0,0,1,0,0v39.85a0,0,0,0,1,0,0H2138a0,0,0,0,1,0,0V426.12A15.5,15.5,0,0,1,2153.49,410.62Z"/><path d="M2138,564.86h15.5a0,0,0,0,1,0,0v24.35a15.5,15.5,0,0,1-15.5,15.5h0a0,0,0,0,1,0,0V564.86A0,0,0,0,1,2138,564.86Z"/><path class="cls-2" d="M2654.21,507.64A151.27,151.27,0,0,1,2502.87,659H2365.51l48.39-28.91a151.36,151.36,0,1,1,240.31-122.48Z"/><path d="M2476.46,482.58a49.72,49.72,0,0,0-6.62,16.64H2558v9.31a63.17,63.17,0,0,1-8,30.82,79.91,79.91,0,0,1-21.63,24.84,107.5,107.5,0,0,1-31.66,16.42,120.84,120.84,0,0,1-38.26,6h-10.67V568.38h10.66a97.1,97.1,0,0,0,29.5-4.4,85.71,85.71,0,0,0,24.43-12.11,64.31,64.31,0,0,0,16.92-17.9,49.31,49.31,0,0,0,6.6-16.5h-88.11v-9a63.41,63.41,0,0,1,8-31.1,82.49,82.49,0,0,1,21.59-24.92,105.77,105.77,0,0,1,31.7-16.66,120.34,120.34,0,0,1,38.26-6.05H2558V448H2547.3a96.68,96.68,0,0,0-29.49,4.41,85.16,85.16,0,0,0-24.42,12.19A64.58,64.58,0,0,0,2476.46,482.58Z"/><path d="M2508.93,410.62h0a0,0,0,0,1,0,0v39.85a0,0,0,0,1,0,0h-15.5a0,0,0,0,1,0,0V426.12A15.5,15.5,0,0,1,2508.93,410.62Z"/><path d="M2493.43,564.86h15.5a0,0,0,0,1,0,0v24.35a15.5,15.5,0,0,1-15.5,15.5h0a0,0,0,0,1,0,0V564.86A0,0,0,0,1,2493.43,564.86Z"/><path class="cls-2" d="M3009.65,507.64A151.27,151.27,0,0,1,2858.31,659H2720.94l48.4-28.91a151.36,151.36,0,1,1,240.31-122.48Z"/><path d="M2831.9,482.58a49.51,49.51,0,0,0-6.62,16.64h88.12v9.31a63.28,63.28,0,0,1-8,30.82,79.91,79.91,0,0,1-21.63,24.84,107.62,107.62,0,0,1-31.66,16.42,120.84,120.84,0,0,1-38.26,6h-10.67V568.38h10.66a97,97,0,0,0,29.49-4.4,85.77,85.77,0,0,0,24.44-12.11,64.13,64.13,0,0,0,16.91-17.9,49.13,49.13,0,0,0,6.61-16.5h-88.11v-9a63.3,63.3,0,0,1,8-31.1,82.49,82.49,0,0,1,21.59-24.92,105.53,105.53,0,0,1,31.7-16.66,120.34,120.34,0,0,1,38.26-6.05h10.67V448h-10.67a96.66,96.66,0,0,0-29.48,4.41,85.35,85.35,0,0,0-24.43,12.19A64.69,64.69,0,0,0,2831.9,482.58Z"/><path d="M2864.37,410.62h0a0,0,0,0,1,0,0v39.85a0,0,0,0,1,0,0h-15.5a0,0,0,0,1,0,0V426.12A15.5,15.5,0,0,1,2864.37,410.62Z"/><path d="M2848.87,564.86h15.5a0,0,0,0,1,0,0v24.35a15.5,15.5,0,0,1-15.5,15.5h0a0,0,0,0,1,0,0V564.86A0,0,0,0,1,2848.87,564.86Z"/></g><g class="cls-1"><path class="cls-2" d="M350,864A151.28,151.28,0,0,1,198.6,1015.33H61.24l48.4-28.91A151.35,151.35,0,1,1,350,864Z"/><path d="M172.2,838.88a49.74,49.74,0,0,0-6.63,16.64H253.7v9.31a63.13,63.13,0,0,1-8,30.82,79.71,79.71,0,0,1-21.63,24.85,107.85,107.85,0,0,1-31.66,16.42,120.82,120.82,0,0,1-38.25,6H143.47V924.68h10.66a97.39,97.39,0,0,0,29.49-4.39,85.73,85.73,0,0,0,24.43-12.12A64.17,64.17,0,0,0,225,890.27a49.16,49.16,0,0,0,6.61-16.49H143.47v-9a63.33,63.33,0,0,1,8-31.1,82.2,82.2,0,0,1,21.59-24.91,105.84,105.84,0,0,1,31.69-16.67A120.39,120.39,0,0,1,243,786H253.7v18.25H243a96.66,96.66,0,0,0-29.48,4.42,84.94,84.94,0,0,0-24.43,12.18A64.68,64.68,0,0,0,172.2,838.88Z"/><path d="M204.66,766.93h0a0,0,0,0,1,0,0v39.85a0,0,0,0,1,0,0h-15.5a0,0,0,0,1,0,0V782.42A15.5,15.5,0,0,1,204.66,766.93Z"/><path d="M189.17,921.16h15.5a0,0,0,0,1,0,0v24.35a15.5,15.5,0,0,1-15.5,15.5h0a0,0,0,0,1,0,0V921.16A0,0,0,0,1,189.17,921.16Z"/><path class="cls-2" d="M705.38,864A151.27,151.27,0,0,1,554,1015.33H416.68l48.4-28.91A151.35,151.35,0,1,1,705.38,864Z"/><path d="M527.64,838.88A49.54,49.54,0,0,0,521,855.52h88.12v9.31a63.12,63.12,0,0,1-8,30.82,79.83,79.83,0,0,1-21.63,24.85,108,108,0,0,1-31.66,16.42,120.84,120.84,0,0,1-38.26,6H498.91V924.68h10.66a97.39,97.39,0,0,0,29.49-4.39,85.73,85.73,0,0,0,24.43-12.12,64.17,64.17,0,0,0,16.92-17.9,49.14,49.14,0,0,0,6.6-16.49h-88.1v-9a63.43,63.43,0,0,1,8-31.1,82.37,82.37,0,0,1,21.6-24.91,105.84,105.84,0,0,1,31.69-16.67,120.39,120.39,0,0,1,38.27-6h10.66v18.25H598.47A96.78,96.78,0,0,0,569,808.69a84.88,84.88,0,0,0-24.42,12.18A64.68,64.68,0,0,0,527.64,838.88Z"/><path d="M560.1,766.93h0a0,0,0,0,1,0,0v39.85a0,0,0,0,1,0,0H544.6a0,0,0,0,1,0,0V782.42A15.5,15.5,0,0,1,560.1,766.93Z"/><path d="M544.6,921.16h15.5a0,0,0,0,1,0,0v24.35A15.5,15.5,0,0,1,544.6,961h0a0,0,0,0,1,0,0V921.16A0,0,0,0,1,544.6,921.16Z"/><path class="cls-2" d="M1060.82,864a151.27,151.27,0,0,1-151.34,151.38H772.12l48.39-28.91A151.35,151.35,0,1,1,1060.82,864Z"/><path d="M883.07,838.88a49.72,49.72,0,0,0-6.62,16.64h88.12v9.31a63.12,63.12,0,0,1-8,30.82,79.83,79.83,0,0,1-21.63,24.85,108,108,0,0,1-31.66,16.42,120.84,120.84,0,0,1-38.26,6H854.34V924.68H865a97.41,97.41,0,0,0,29.5-4.39,85.73,85.73,0,0,0,24.43-12.12,64.31,64.31,0,0,0,16.92-17.9,49.34,49.34,0,0,0,6.6-16.49H854.34v-9a63.44,63.44,0,0,1,8-31.1,82.47,82.47,0,0,1,21.59-24.91,106,106,0,0,1,31.7-16.67,120.33,120.33,0,0,1,38.26-6h10.67v18.25H953.91a96.73,96.73,0,0,0-29.49,4.42A84.88,84.88,0,0,0,900,820.87,64.72,64.72,0,0,0,883.07,838.88Z"/><path d="M915.54,766.93h0a0,0,0,0,1,0,0v39.85a0,0,0,0,1,0,0H900a0,0,0,0,1,0,0V782.42A15.5,15.5,0,0,1,915.54,766.93Z"/><path d="M900,921.16h15.5a0,0,0,0,1,0,0v24.35A15.5,15.5,0,0,1,900,961h0a0,0,0,0,1,0,0V921.16A0,0,0,0,1,900,921.16Z"/><path class="cls-2" d="M1416.26,864a151.27,151.27,0,0,1-151.34,151.38H1127.55l48.4-28.91A151.35,151.35,0,1,1,1416.26,864Z"/><path d="M1238.51,838.88a49.51,49.51,0,0,0-6.62,16.64H1320v9.31a63.23,63.23,0,0,1-8,30.82,79.83,79.83,0,0,1-21.63,24.85,108,108,0,0,1-31.66,16.42,120.84,120.84,0,0,1-38.26,6h-10.67V924.68h10.66a97.29,97.29,0,0,0,29.49-4.39,85.79,85.79,0,0,0,24.44-12.12,64.13,64.13,0,0,0,16.91-17.9,49.16,49.16,0,0,0,6.61-16.49h-88.11v-9a63.33,63.33,0,0,1,8-31.1,82.33,82.33,0,0,1,21.59-24.91,105.77,105.77,0,0,1,31.7-16.67,120.33,120.33,0,0,1,38.26-6H1320v18.25h-10.67a96.66,96.66,0,0,0-29.48,4.42,85.07,85.07,0,0,0-24.43,12.18A64.83,64.83,0,0,0,1238.51,838.88Z"/><path d="M1271,766.93h0a0,0,0,0,1,0,0v39.85a0,0,0,0,1,0,0h-15.5a0,0,0,0,1,0,0V782.42A15.5,15.5,0,0,1,1271,766.93Z"/><path d="M1255.48,921.16H1271a0,0,0,0,1,0,0v24.35a15.5,15.5,0,0,1-15.5,15.5h0a0,0,0,0,1,0,0V921.16A0,0,0,0,1,1255.48,921.16Z"/><path class="cls-2" d="M1771.7,864a151.27,151.27,0,0,1-151.34,151.38H1483l48.4-28.91A151.35,151.35,0,1,1,1771.7,864Z"/><path d="M1594,838.88a49.74,49.74,0,0,0-6.63,16.64h88.13v9.31a63.23,63.23,0,0,1-8,30.82,79.83,79.83,0,0,1-21.63,24.85,108,108,0,0,1-31.67,16.42,120.82,120.82,0,0,1-38.25,6h-10.67V924.68h10.66a97.29,97.29,0,0,0,29.49-4.39,85.73,85.73,0,0,0,24.43-12.12,64.17,64.17,0,0,0,16.92-17.9,49.16,49.16,0,0,0,6.61-16.49h-88.11v-9a63.33,63.33,0,0,1,8-31.1,82.2,82.2,0,0,1,21.59-24.91,105.77,105.77,0,0,1,31.7-16.67,120.33,120.33,0,0,1,38.26-6h10.67v18.25h-10.67a96.66,96.66,0,0,0-29.48,4.42,85.07,85.07,0,0,0-24.43,12.18A64.68,64.68,0,0,0,1594,838.88Z"/><path d="M1626.42,766.93h0a0,0,0,0,1,0,0v39.85a0,0,0,0,1,0,0h-15.5a0,0,0,0,1,0,0V782.42A15.5,15.5,0,0,1,1626.42,766.93Z"/><path d="M1610.92,921.16h15.5a0,0,0,0,1,0,0v24.35a15.5,15.5,0,0,1-15.5,15.5h0a0,0,0,0,1,0,0V921.16A0,0,0,0,1,1610.92,921.16Z"/><path class="cls-2" d="M2127.14,864a151.28,151.28,0,0,1-151.35,151.38H1838.43l48.4-28.91A151.35,151.35,0,1,1,2127.14,864Z"/><path d="M1949.39,838.88a49.74,49.74,0,0,0-6.63,16.64h88.13v9.31a63.13,63.13,0,0,1-8,30.82,79.71,79.71,0,0,1-21.63,24.85,107.85,107.85,0,0,1-31.66,16.42,120.82,120.82,0,0,1-38.25,6h-10.67V924.68h10.66a97.39,97.39,0,0,0,29.49-4.39,85.73,85.73,0,0,0,24.43-12.12,64.17,64.17,0,0,0,16.92-17.9,49.16,49.16,0,0,0,6.61-16.49h-88.11v-9a63.33,63.33,0,0,1,8-31.1,82.2,82.2,0,0,1,21.59-24.91A105.84,105.84,0,0,1,1982,792.06a120.39,120.39,0,0,1,38.27-6h10.67v18.25h-10.67a96.66,96.66,0,0,0-29.48,4.42,84.94,84.94,0,0,0-24.43,12.18A64.68,64.68,0,0,0,1949.39,838.88Z"/><path d="M1981.85,766.93h0a0,0,0,0,1,0,0v39.85a0,0,0,0,1,0,0h-15.5a0,0,0,0,1,0,0V782.42A15.5,15.5,0,0,1,1981.85,766.93Z"/><path d="M1966.36,921.16h15.5a0,0,0,0,1,0,0v24.35a15.5,15.5,0,0,1-15.5,15.5h0a0,0,0,0,1,0,0V921.16A0,0,0,0,1,1966.36,921.16Z"/><path class="cls-2" d="M2482.57,864a151.27,151.27,0,0,1-151.34,151.38H2193.87l48.4-28.91A151.35,151.35,0,1,1,2482.57,864Z"/><path d="M2304.83,838.88a49.54,49.54,0,0,0-6.63,16.64h88.12v9.31a63.12,63.12,0,0,1-8,30.82,79.83,79.83,0,0,1-21.63,24.85A108,108,0,0,1,2325,936.92a120.84,120.84,0,0,1-38.26,6H2276.1V924.68h10.66a97.39,97.39,0,0,0,29.49-4.39,85.73,85.73,0,0,0,24.43-12.12,64.17,64.17,0,0,0,16.92-17.9,49.14,49.14,0,0,0,6.6-16.49h-88.1v-9a63.43,63.43,0,0,1,8-31.1,82.37,82.37,0,0,1,21.6-24.91,105.84,105.84,0,0,1,31.69-16.67,120.39,120.39,0,0,1,38.27-6h10.66v18.25h-10.66a96.78,96.78,0,0,0-29.49,4.42,84.88,84.88,0,0,0-24.42,12.18A64.68,64.68,0,0,0,2304.83,838.88Z"/><path d="M2337.29,766.93h0a0,0,0,0,1,0,0v39.85a0,0,0,0,1,0,0h-15.5a0,0,0,0,1,0,0V782.42A15.5,15.5,0,0,1,2337.29,766.93Z"/><path d="M2321.79,921.16h15.5a0,0,0,0,1,0,0v24.35a15.5,15.5,0,0,1-15.5,15.5h0a0,0,0,0,1,0,0V921.16a0,0,0,0,1,0,0Z"/><path class="cls-2" d="M2838,864a151.27,151.27,0,0,1-151.34,151.38H2549.31l48.39-28.91A151.35,151.35,0,1,1,2838,864Z"/><path d="M2660.26,838.88a49.72,49.72,0,0,0-6.62,16.64h88.12v9.31a63.12,63.12,0,0,1-8,30.82,79.83,79.83,0,0,1-21.63,24.85,108,108,0,0,1-31.66,16.42,120.84,120.84,0,0,1-38.26,6h-10.67V924.68h10.66a97.41,97.41,0,0,0,29.5-4.39,85.73,85.73,0,0,0,24.43-12.12,64.31,64.31,0,0,0,16.92-17.9,49.34,49.34,0,0,0,6.6-16.49h-88.11v-9a63.44,63.44,0,0,1,8-31.1,82.47,82.47,0,0,1,21.59-24.91,106,106,0,0,1,31.7-16.67,120.33,120.33,0,0,1,38.26-6h10.67v18.25H2731.1a96.73,96.73,0,0,0-29.49,4.42,84.88,84.88,0,0,0-24.42,12.18A64.72,64.72,0,0,0,2660.26,838.88Z"/><path d="M2692.73,766.93h0a0,0,0,0,1,0,0v39.85a0,0,0,0,1,0,0h-15.5a0,0,0,0,1,0,0V782.42A15.5,15.5,0,0,1,2692.73,766.93Z"/><path d="M2677.23,921.16h15.5a0,0,0,0,1,0,0v24.35a15.5,15.5,0,0,1-15.5,15.5h0a0,0,0,0,1,0,0V921.16A0,0,0,0,1,2677.23,921.16Z"/></g><g class="cls-1"><path class="cls-2" d="M547.94,1220.25A151.32,151.32,0,0,1,396.6,1371.64H259.23l48.4-28.91a151.36,151.36,0,1,1,240.31-122.48Z"/><path d="M370.19,1195.18a49.48,49.48,0,0,0-6.62,16.65h88.12v9.3a63.23,63.23,0,0,1-8,30.82,79.83,79.83,0,0,1-21.63,24.85,107.86,107.86,0,0,1-31.66,16.42,120.93,120.93,0,0,1-38.26,6H341.46V1281h10.66a97.29,97.29,0,0,0,29.49-4.39,85.66,85.66,0,0,0,24.44-12.12A64.23,64.23,0,0,0,423,1246.58a49.21,49.21,0,0,0,6.61-16.5H341.46v-9a63.36,63.36,0,0,1,8-31.1A82.32,82.32,0,0,1,371.06,1165a105.77,105.77,0,0,1,31.7-16.67,120.33,120.33,0,0,1,38.26-6h10.67v18.25H441a96.66,96.66,0,0,0-29.48,4.42,85.35,85.35,0,0,0-24.43,12.19A64.51,64.51,0,0,0,370.19,1195.18Z"/><path d="M402.66,1123.23h0a0,0,0,0,1,0,0v39.85a0,0,0,0,1,0,0h-15.5a0,0,0,0,1,0,0v-24.35A15.5,15.5,0,0,1,402.66,1123.23Z"/><path d="M387.16,1277.47h15.5a0,0,0,0,1,0,0v24.35a15.5,15.5,0,0,1-15.5,15.5h0a0,0,0,0,1,0,0v-39.85A0,0,0,0,1,387.16,1277.47Z"/><path class="cls-2" d="M903.38,1220.25A151.33,151.33,0,0,1,752,1371.64H614.67l48.4-28.91a151.36,151.36,0,1,1,240.31-122.48Z"/><path d="M725.63,1195.18a49.71,49.71,0,0,0-6.63,16.65h88.13v9.3a63.23,63.23,0,0,1-8,30.82,79.87,79.87,0,0,1-21.64,24.85,107.61,107.61,0,0,1-31.66,16.42,120.82,120.82,0,0,1-38.25,6H696.9V1281h10.66a97.39,97.39,0,0,0,29.49-4.39,85.47,85.47,0,0,0,24.43-12.12,64.27,64.27,0,0,0,16.92-17.89,49.21,49.21,0,0,0,6.61-16.5H696.9v-9a63.36,63.36,0,0,1,8-31.1A82.32,82.32,0,0,1,726.5,1165a105.84,105.84,0,0,1,31.69-16.67,120.44,120.44,0,0,1,38.27-6h10.67v18.25H796.46A96.66,96.66,0,0,0,767,1165a85.35,85.35,0,0,0-24.43,12.19A64.51,64.51,0,0,0,725.63,1195.18Z"/><path d="M758.09,1123.23h0a0,0,0,0,1,0,0v39.85a0,0,0,0,1,0,0H742.6a0,0,0,0,1,0,0v-24.35A15.5,15.5,0,0,1,758.09,1123.23Z"/><path d="M742.6,1277.47h15.5a0,0,0,0,1,0,0v24.35a15.5,15.5,0,0,1-15.5,15.5h0a0,0,0,0,1,0,0v-39.85A0,0,0,0,1,742.6,1277.47Z"/><path class="cls-2" d="M1258.81,1220.25a151.32,151.32,0,0,1-151.34,151.39H970.11l48.4-28.91a151.36,151.36,0,1,1,240.3-122.48Z"/><path d="M1081.07,1195.18a49.5,49.5,0,0,0-6.63,16.65h88.12v9.3a63.12,63.12,0,0,1-8,30.82,79.71,79.71,0,0,1-21.63,24.85,107.73,107.73,0,0,1-31.66,16.42,120.84,120.84,0,0,1-38.26,6h-10.66V1281H1063a97.39,97.39,0,0,0,29.49-4.39,85.47,85.47,0,0,0,24.43-12.12,64.27,64.27,0,0,0,16.92-17.89,49,49,0,0,0,6.6-16.5h-88.1v-9a63.46,63.46,0,0,1,8-31.1,82.49,82.49,0,0,1,21.6-24.91,105.84,105.84,0,0,1,31.69-16.67,120.39,120.39,0,0,1,38.27-6h10.66v18.25H1151.9a96.66,96.66,0,0,0-29.48,4.42,85.22,85.22,0,0,0-24.43,12.19A64.51,64.51,0,0,0,1081.07,1195.18Z"/><path d="M1113.53,1123.23h0a0,0,0,0,1,0,0v39.85a0,0,0,0,1,0,0H1098a0,0,0,0,1,0,0v-24.35A15.5,15.5,0,0,1,1113.53,1123.23Z"/><path d="M1098,1277.47h15.5a0,0,0,0,1,0,0v24.35a15.5,15.5,0,0,1-15.5,15.5h0a0,0,0,0,1,0,0v-39.85A0,0,0,0,1,1098,1277.47Z"/><path class="cls-2" d="M1614.25,1220.25a151.32,151.32,0,0,1-151.34,151.39H1325.55l48.4-28.91a151.36,151.36,0,1,1,240.3-122.48Z"/><path d="M1436.5,1195.18a49.69,49.69,0,0,0-6.62,16.65H1518v9.3a63.12,63.12,0,0,1-8,30.82,79.83,79.83,0,0,1-21.63,24.85,107.73,107.73,0,0,1-31.66,16.42,120.84,120.84,0,0,1-38.26,6h-10.67V1281h10.67a97.39,97.39,0,0,0,29.49-4.39,85.47,85.47,0,0,0,24.43-12.12,64.27,64.27,0,0,0,16.92-17.89,49.39,49.39,0,0,0,6.6-16.5h-88.11v-9a63.47,63.47,0,0,1,8-31.1,82.59,82.59,0,0,1,21.59-24.91,106,106,0,0,1,31.7-16.67,120.33,120.33,0,0,1,38.26-6H1518v18.25h-10.66a96.78,96.78,0,0,0-29.49,4.42,85.16,85.16,0,0,0-24.42,12.19A64.55,64.55,0,0,0,1436.5,1195.18Z"/><path d="M1469,1123.23h0a0,0,0,0,1,0,0v39.85a0,0,0,0,1,0,0h-15.5a0,0,0,0,1,0,0v-24.35A15.5,15.5,0,0,1,1469,1123.23Z"/><path d="M1453.47,1277.47H1469a0,0,0,0,1,0,0v24.35a15.5,15.5,0,0,1-15.5,15.5h0a0,0,0,0,1,0,0v-39.85A0,0,0,0,1,1453.47,1277.47Z"/><path class="cls-2" d="M1969.69,1220.25a151.32,151.32,0,0,1-151.34,151.39H1681l48.4-28.91a151.36,151.36,0,1,1,240.31-122.48Z"/><path d="M1791.94,1195.18a49.69,49.69,0,0,0-6.62,16.65h88.12v9.3a63.23,63.23,0,0,1-8,30.82,79.83,79.83,0,0,1-21.63,24.85,107.73,107.73,0,0,1-31.66,16.42,120.84,120.84,0,0,1-38.26,6h-10.67V1281h10.66a97.29,97.29,0,0,0,29.49-4.39,85.53,85.53,0,0,0,24.44-12.12,64.23,64.23,0,0,0,16.91-17.89,49.21,49.21,0,0,0,6.61-16.5h-88.11v-9a63.36,63.36,0,0,1,8-31.1,82.45,82.45,0,0,1,21.59-24.91,105.89,105.89,0,0,1,31.7-16.67,120.33,120.33,0,0,1,38.26-6h10.67v18.25h-10.66a96.68,96.68,0,0,0-29.49,4.42,85.16,85.16,0,0,0-24.42,12.19A64.55,64.55,0,0,0,1791.94,1195.18Z"/><path d="M1824.41,1123.23h0a0,0,0,0,1,0,0v39.85a0,0,0,0,1,0,0h-15.5a0,0,0,0,1,0,0v-24.35A15.5,15.5,0,0,1,1824.41,1123.23Z"/><path d="M1808.91,1277.47h15.5a0,0,0,0,1,0,0v24.35a15.5,15.5,0,0,1-15.5,15.5h0a0,0,0,0,1,0,0v-39.85A0,0,0,0,1,1808.91,1277.47Z"/><path class="cls-2" d="M2325.13,1220.25a151.32,151.32,0,0,1-151.34,151.39H2036.42l48.4-28.91a151.36,151.36,0,1,1,240.31-122.48Z"/><path d="M2147.38,1195.18a49.48,49.48,0,0,0-6.62,16.65h88.12v9.3a63.23,63.23,0,0,1-8,30.82,79.83,79.83,0,0,1-21.63,24.85,107.86,107.86,0,0,1-31.66,16.42,120.93,120.93,0,0,1-38.26,6h-10.67V1281h10.66a97.29,97.29,0,0,0,29.49-4.39,85.66,85.66,0,0,0,24.44-12.12,64.23,64.23,0,0,0,16.91-17.89,49.21,49.21,0,0,0,6.61-16.5h-88.11v-9a63.36,63.36,0,0,1,8-31.1,82.32,82.32,0,0,1,21.59-24.91,105.77,105.77,0,0,1,31.7-16.67,120.33,120.33,0,0,1,38.26-6h10.67v18.25h-10.67a96.66,96.66,0,0,0-29.48,4.42,85.35,85.35,0,0,0-24.43,12.19A64.51,64.51,0,0,0,2147.38,1195.18Z"/><path d="M2179.85,1123.23h0a0,0,0,0,1,0,0v39.85a0,0,0,0,1,0,0h-15.5a0,0,0,0,1,0,0v-24.35A15.5,15.5,0,0,1,2179.85,1123.23Z"/><path d="M2164.35,1277.47h15.5a0,0,0,0,1,0,0v24.35a15.5,15.5,0,0,1-15.5,15.5h0a0,0,0,0,1,0,0v-39.85A0,0,0,0,1,2164.35,1277.47Z"/><path class="cls-2" d="M2680.57,1220.25a151.33,151.33,0,0,1-151.34,151.39H2391.86l48.4-28.91a151.36,151.36,0,1,1,240.31-122.48Z"/><path d="M2502.82,1195.18a49.71,49.71,0,0,0-6.63,16.65h88.13v9.3a63.23,63.23,0,0,1-8,30.82,79.87,79.87,0,0,1-21.64,24.85,107.61,107.61,0,0,1-31.66,16.42,120.82,120.82,0,0,1-38.25,6h-10.67V1281h10.66a97.34,97.34,0,0,0,29.49-4.39,85.47,85.47,0,0,0,24.43-12.12,64.27,64.27,0,0,0,16.92-17.89,49.21,49.21,0,0,0,6.61-16.5h-88.11v-9a63.36,63.36,0,0,1,8-31.1,82.32,82.32,0,0,1,21.59-24.91,105.84,105.84,0,0,1,31.69-16.67,120.44,120.44,0,0,1,38.27-6h10.67v18.25h-10.67a96.66,96.66,0,0,0-29.48,4.42,85.35,85.35,0,0,0-24.43,12.19A64.51,64.51,0,0,0,2502.82,1195.18Z"/><path d="M2535.28,1123.23h0a0,0,0,0,1,0,0v39.85a0,0,0,0,1,0,0h-15.5a0,0,0,0,1,0,0v-24.35A15.5,15.5,0,0,1,2535.28,1123.23Z"/><path d="M2519.79,1277.47h15.5a0,0,0,0,1,0,0v24.35a15.5,15.5,0,0,1-15.5,15.5h0a0,0,0,0,1,0,0v-39.85A0,0,0,0,1,2519.79,1277.47Z"/><path class="cls-2" d="M3036,1220.25a151.32,151.32,0,0,1-151.34,151.39H2747.3l48.4-28.91A151.36,151.36,0,1,1,3036,1220.25Z"/><path d="M2858.26,1195.18a49.5,49.5,0,0,0-6.63,16.65h88.12v9.3a63.12,63.12,0,0,1-8,30.82,79.71,79.71,0,0,1-21.63,24.85,107.73,107.73,0,0,1-31.66,16.42,120.84,120.84,0,0,1-38.26,6h-10.66V1281h10.66a97.39,97.39,0,0,0,29.49-4.39,85.47,85.47,0,0,0,24.43-12.12,64.27,64.27,0,0,0,16.92-17.89,49,49,0,0,0,6.6-16.5h-88.1v-9a63.46,63.46,0,0,1,8-31.1,82.49,82.49,0,0,1,21.6-24.91,105.84,105.84,0,0,1,31.69-16.67,120.39,120.39,0,0,1,38.27-6h10.66v18.25h-10.66a96.66,96.66,0,0,0-29.48,4.42,85.22,85.22,0,0,0-24.43,12.19A64.51,64.51,0,0,0,2858.26,1195.18Z"/><path d="M2890.72,1123.23h0a0,0,0,0,1,0,0v39.85a0,0,0,0,1,0,0h-15.5a0,0,0,0,1,0,0v-24.35A15.5,15.5,0,0,1,2890.72,1123.23Z"/><path d="M2875.22,1277.47h15.5a0,0,0,0,1,0,0v24.35a15.5,15.5,0,0,1-15.5,15.5h0a0,0,0,0,1,0,0v-39.85A0,0,0,0,1,2875.22,1277.47Z"/></g><g class="cls-1"><path class="cls-2" d="M302.73,1576.55a151.27,151.27,0,0,1-151.34,151.39H14L62.42,1699a151.36,151.36,0,1,1,240.31-122.48Z"/><path d="M125,1551.49a49.51,49.51,0,0,0-6.62,16.64h88.12v9.31a63.28,63.28,0,0,1-8,30.82,79.91,79.91,0,0,1-21.63,24.84,107.62,107.62,0,0,1-31.66,16.42,120.93,120.93,0,0,1-38.26,6H96.25v-18.26h10.66a97,97,0,0,0,29.49-4.39,85.9,85.9,0,0,0,24.44-12.11,64.27,64.27,0,0,0,16.91-17.9,49.13,49.13,0,0,0,6.61-16.5H96.25v-9a63.3,63.3,0,0,1,8-31.1,82.35,82.35,0,0,1,21.59-24.92,105.53,105.53,0,0,1,31.7-16.66,120.34,120.34,0,0,1,38.26-6.05h10.67v18.26H195.81a96.66,96.66,0,0,0-29.48,4.41,85.35,85.35,0,0,0-24.43,12.19A64.54,64.54,0,0,0,125,1551.49Z"/><path d="M157.45,1479.53h0a0,0,0,0,1,0,0v39.85a0,0,0,0,1,0,0h-15.5a0,0,0,0,1,0,0V1495A15.5,15.5,0,0,1,157.45,1479.53Z"/><path d="M141.95,1633.77h15.5a0,0,0,0,1,0,0v24.35a15.5,15.5,0,0,1-15.5,15.5h0a0,0,0,0,1,0,0v-39.85A0,0,0,0,1,141.95,1633.77Z"/><path class="cls-2" d="M658.17,1576.55a151.28,151.28,0,0,1-151.35,151.39H369.46l48.4-28.91a151.36,151.36,0,1,1,240.31-122.48Z"/><path d="M480.42,1551.49a49.74,49.74,0,0,0-6.63,16.64h88.13v9.31a63.28,63.28,0,0,1-8,30.82,80,80,0,0,1-21.64,24.84,107.37,107.37,0,0,1-31.66,16.42,120.82,120.82,0,0,1-38.25,6H451.69v-18.26h10.66a97.08,97.08,0,0,0,29.49-4.39,85.71,85.71,0,0,0,24.43-12.11,64.17,64.17,0,0,0,16.92-17.9,49.13,49.13,0,0,0,6.61-16.5H451.69v-9a63.3,63.3,0,0,1,8-31.1,82.35,82.35,0,0,1,21.59-24.92A105.59,105.59,0,0,1,513,1504.67a120.4,120.4,0,0,1,38.27-6.05h10.67v18.26H551.25a96.66,96.66,0,0,0-29.48,4.41,85.35,85.35,0,0,0-24.43,12.19A64.54,64.54,0,0,0,480.42,1551.49Z"/><path d="M512.88,1479.53h0a0,0,0,0,1,0,0v39.85a0,0,0,0,1,0,0h-15.5a0,0,0,0,1,0,0V1495A15.5,15.5,0,0,1,512.88,1479.53Z"/><path d="M497.39,1633.77h15.5a0,0,0,0,1,0,0v24.35a15.5,15.5,0,0,1-15.5,15.5h0a0,0,0,0,1,0,0v-39.85A0,0,0,0,1,497.39,1633.77Z"/><path class="cls-2" d="M1013.6,1576.55a151.27,151.27,0,0,1-151.34,151.39H724.9L773.3,1699a151.36,151.36,0,1,1,240.3-122.48Z"/><path d="M835.86,1551.49a49.54,49.54,0,0,0-6.63,16.64h88.12v9.31a63.17,63.17,0,0,1-8,30.82,79.91,79.91,0,0,1-21.63,24.84,107.5,107.5,0,0,1-31.66,16.42,120.84,120.84,0,0,1-38.26,6H807.13v-18.26h10.66a97.08,97.08,0,0,0,29.49-4.39,85.71,85.71,0,0,0,24.43-12.11,64.17,64.17,0,0,0,16.92-17.9,48.9,48.9,0,0,0,6.6-16.5h-88.1v-9a63.4,63.4,0,0,1,8-31.1,82.52,82.52,0,0,1,21.6-24.92,105.59,105.59,0,0,1,31.69-16.66,120.4,120.4,0,0,1,38.27-6.05h10.66v18.26H906.69a96.77,96.77,0,0,0-29.49,4.41,85.29,85.29,0,0,0-24.42,12.19A64.54,64.54,0,0,0,835.86,1551.49Z"/><path d="M868.32,1479.53h0a0,0,0,0,1,0,0v39.85a0,0,0,0,1,0,0h-15.5a0,0,0,0,1,0,0V1495A15.5,15.5,0,0,1,868.32,1479.53Z"/><path d="M852.82,1633.77h15.5a0,0,0,0,1,0,0v24.35a15.5,15.5,0,0,1-15.5,15.5h0a0,0,0,0,1,0,0v-39.85A0,0,0,0,1,852.82,1633.77Z"/><path class="cls-2" d="M1369,1576.55a151.27,151.27,0,0,1-151.34,151.39H1080.34l48.4-28.91A151.36,151.36,0,1,1,1369,1576.55Z"/><path d="M1191.29,1551.49a49.72,49.72,0,0,0-6.62,16.64h88.12v9.31a63.17,63.17,0,0,1-8,30.82,79.91,79.91,0,0,1-21.63,24.84,107.5,107.5,0,0,1-31.66,16.42,120.84,120.84,0,0,1-38.26,6h-10.67v-18.26h10.67a97.08,97.08,0,0,0,29.49-4.39,85.71,85.71,0,0,0,24.43-12.11,64.31,64.31,0,0,0,16.92-17.9,49.31,49.31,0,0,0,6.6-16.5h-88.11v-9a63.41,63.41,0,0,1,8-31.1,82.63,82.63,0,0,1,21.59-24.92,105.77,105.77,0,0,1,31.7-16.66,120.34,120.34,0,0,1,38.26-6.05h10.67v18.26h-10.66a96.77,96.77,0,0,0-29.49,4.41,85.16,85.16,0,0,0-24.42,12.19A64.58,64.58,0,0,0,1191.29,1551.49Z"/><path d="M1223.76,1479.53h0a0,0,0,0,1,0,0v39.85a0,0,0,0,1,0,0h-15.5a0,0,0,0,1,0,0V1495A15.5,15.5,0,0,1,1223.76,1479.53Z"/><path d="M1208.26,1633.77h15.5a0,0,0,0,1,0,0v24.35a15.5,15.5,0,0,1-15.5,15.5h0a0,0,0,0,1,0,0v-39.85A0,0,0,0,1,1208.26,1633.77Z"/><path class="cls-2" d="M1724.48,1576.55a151.27,151.27,0,0,1-151.34,151.39H1435.77l48.4-28.91a151.36,151.36,0,1,1,240.31-122.48Z"/><path d="M1546.73,1551.49a49.72,49.72,0,0,0-6.62,16.64h88.12v9.31a63.28,63.28,0,0,1-8,30.82,79.91,79.91,0,0,1-21.63,24.84,107.5,107.5,0,0,1-31.66,16.42,120.84,120.84,0,0,1-38.26,6H1518v-18.26h10.66a97,97,0,0,0,29.49-4.39,85.77,85.77,0,0,0,24.44-12.11,64.13,64.13,0,0,0,16.91-17.9,49.13,49.13,0,0,0,6.61-16.5H1518v-9a63.3,63.3,0,0,1,8-31.1,82.49,82.49,0,0,1,21.59-24.92,105.65,105.65,0,0,1,31.7-16.66,120.34,120.34,0,0,1,38.26-6.05h10.67v18.26h-10.66a96.68,96.68,0,0,0-29.49,4.41,85.16,85.16,0,0,0-24.42,12.19A64.58,64.58,0,0,0,1546.73,1551.49Z"/><path d="M1579.2,1479.53h0a0,0,0,0,1,0,0v39.85a0,0,0,0,1,0,0h-15.5a0,0,0,0,1,0,0V1495A15.5,15.5,0,0,1,1579.2,1479.53Z"/><path d="M1563.7,1633.77h15.5a0,0,0,0,1,0,0v24.35a15.5,15.5,0,0,1-15.5,15.5h0a0,0,0,0,1,0,0v-39.85A0,0,0,0,1,1563.7,1633.77Z"/><path class="cls-2" d="M2079.92,1576.55a151.27,151.27,0,0,1-151.34,151.39H1791.21l48.4-28.91a151.36,151.36,0,1,1,240.31-122.48Z"/><path d="M1902.17,1551.49a49.51,49.51,0,0,0-6.62,16.64h88.12v9.31a63.28,63.28,0,0,1-8,30.82A79.91,79.91,0,0,1,1954,1633.1a107.62,107.62,0,0,1-31.66,16.42,120.93,120.93,0,0,1-38.26,6h-10.67v-18.26h10.66a97,97,0,0,0,29.49-4.39,85.9,85.9,0,0,0,24.44-12.11,64.27,64.27,0,0,0,16.91-17.9,49.13,49.13,0,0,0,6.61-16.5h-88.11v-9a63.3,63.3,0,0,1,8-31.1,82.35,82.35,0,0,1,21.59-24.92,105.53,105.53,0,0,1,31.7-16.66,120.34,120.34,0,0,1,38.26-6.05h10.67v18.26H1973a96.66,96.66,0,0,0-29.48,4.41,85.35,85.35,0,0,0-24.43,12.19A64.54,64.54,0,0,0,1902.17,1551.49Z"/><path d="M1934.64,1479.53h0a0,0,0,0,1,0,0v39.85a0,0,0,0,1,0,0h-15.5a0,0,0,0,1,0,0V1495A15.5,15.5,0,0,1,1934.64,1479.53Z"/><path d="M1919.14,1633.77h15.5a0,0,0,0,1,0,0v24.35a15.5,15.5,0,0,1-15.5,15.5h0a0,0,0,0,1,0,0v-39.85A0,0,0,0,1,1919.14,1633.77Z"/><path class="cls-2" d="M2435.36,1576.55A151.28,151.28,0,0,1,2284,1727.94H2146.65l48.4-28.91a151.36,151.36,0,1,1,240.31-122.48Z"/><path d="M2257.61,1551.49a49.74,49.74,0,0,0-6.63,16.64h88.13v9.31a63.28,63.28,0,0,1-8,30.82,80,80,0,0,1-21.64,24.84,107.37,107.37,0,0,1-31.66,16.42,120.82,120.82,0,0,1-38.25,6h-10.67v-18.26h10.66a97.08,97.08,0,0,0,29.49-4.39,85.71,85.71,0,0,0,24.43-12.11,64.17,64.17,0,0,0,16.92-17.9,49.13,49.13,0,0,0,6.61-16.5h-88.11v-9a63.3,63.3,0,0,1,8-31.1,82.35,82.35,0,0,1,21.59-24.92,105.59,105.59,0,0,1,31.69-16.66,120.4,120.4,0,0,1,38.27-6.05h10.67v18.26h-10.67a96.66,96.66,0,0,0-29.48,4.41,85.35,85.35,0,0,0-24.43,12.19A64.54,64.54,0,0,0,2257.61,1551.49Z"/><path d="M2290.07,1479.53h0a0,0,0,0,1,0,0v39.85a0,0,0,0,1,0,0h-15.5a0,0,0,0,1,0,0V1495A15.5,15.5,0,0,1,2290.07,1479.53Z"/><path d="M2274.58,1633.77h15.5a0,0,0,0,1,0,0v24.35a15.5,15.5,0,0,1-15.5,15.5h0a0,0,0,0,1,0,0v-39.85A0,0,0,0,1,2274.58,1633.77Z"/><path class="cls-2" d="M2790.79,1576.55a151.27,151.27,0,0,1-151.34,151.39H2502.09l48.4-28.91a151.36,151.36,0,1,1,240.3-122.48Z"/><path d="M2613.05,1551.49a49.54,49.54,0,0,0-6.63,16.64h88.12v9.31a63.17,63.17,0,0,1-8,30.82,79.91,79.91,0,0,1-21.63,24.84,107.5,107.5,0,0,1-31.66,16.42,120.84,120.84,0,0,1-38.26,6h-10.66v-18.26H2595a97.08,97.08,0,0,0,29.49-4.39,85.71,85.71,0,0,0,24.43-12.11,64.17,64.17,0,0,0,16.92-17.9,48.9,48.9,0,0,0,6.6-16.5h-88.1v-9a63.4,63.4,0,0,1,8-31.1,82.52,82.52,0,0,1,21.6-24.92,105.59,105.59,0,0,1,31.69-16.66,120.4,120.4,0,0,1,38.27-6.05h10.66v18.26h-10.66a96.66,96.66,0,0,0-29.48,4.41,85.22,85.22,0,0,0-24.43,12.19A64.54,64.54,0,0,0,2613.05,1551.49Z"/><path d="M2645.51,1479.53h0a0,0,0,0,1,0,0v39.85a0,0,0,0,1,0,0H2630a0,0,0,0,1,0,0V1495A15.5,15.5,0,0,1,2645.51,1479.53Z"/><path d="M2630,1633.77h15.5a0,0,0,0,1,0,0v24.35a15.5,15.5,0,0,1-15.5,15.5h0a0,0,0,0,1,0,0v-39.85A0,0,0,0,1,2630,1633.77Z"/></g><g class="cls-1"><path class="cls-2" d="M547.94,1932.86A151.27,151.27,0,0,1,396.6,2084.24H259.23l48.4-28.91a151.35,151.35,0,1,1,240.31-122.47Z"/><path d="M370.19,1907.79a49.51,49.51,0,0,0-6.62,16.64h88.12v9.31a63.23,63.23,0,0,1-8,30.82,80,80,0,0,1-21.63,24.85,108.1,108.1,0,0,1-31.66,16.42,120.93,120.93,0,0,1-38.26,6H341.46v-18.25h10.66a97.29,97.29,0,0,0,29.49-4.39,85.92,85.92,0,0,0,24.44-12.12,64.13,64.13,0,0,0,16.91-17.9,49.16,49.16,0,0,0,6.61-16.49H341.46v-9a63.33,63.33,0,0,1,8-31.1,82.35,82.35,0,0,1,21.59-24.92,106,106,0,0,1,31.7-16.66,120.33,120.33,0,0,1,38.26-6h10.67v18.25H441a96.36,96.36,0,0,0-29.48,4.42,85.07,85.07,0,0,0-24.43,12.18A64.54,64.54,0,0,0,370.19,1907.79Z"/><path d="M402.66,1835.84h0a0,0,0,0,1,0,0v39.85a0,0,0,0,1,0,0h-15.5a0,0,0,0,1,0,0v-24.35A15.5,15.5,0,0,1,402.66,1835.84Z"/><path d="M387.16,1990.07h15.5a0,0,0,0,1,0,0v24.35a15.5,15.5,0,0,1-15.5,15.5h0a0,0,0,0,1,0,0v-39.85A0,0,0,0,1,387.16,1990.07Z"/><path class="cls-2" d="M903.38,1932.86A151.28,151.28,0,0,1,752,2084.24H614.67l48.4-28.91a151.35,151.35,0,1,1,240.31-122.47Z"/><path d="M725.63,1907.79a49.74,49.74,0,0,0-6.63,16.64h88.13v9.31a63.23,63.23,0,0,1-8,30.82,80,80,0,0,1-21.64,24.85,107.85,107.85,0,0,1-31.66,16.42,120.82,120.82,0,0,1-38.25,6H696.9v-18.25h10.66a97.39,97.39,0,0,0,29.49-4.39,85.73,85.73,0,0,0,24.43-12.12,64.17,64.17,0,0,0,16.92-17.9,49.16,49.16,0,0,0,6.61-16.49H696.9v-9a63.33,63.33,0,0,1,8-31.1,82.35,82.35,0,0,1,21.59-24.92A106,106,0,0,1,758.19,1861a120.44,120.44,0,0,1,38.27-6h10.67v18.25H796.46A96.36,96.36,0,0,0,767,1877.6a85.07,85.07,0,0,0-24.43,12.18A64.54,64.54,0,0,0,725.63,1907.79Z"/><path d="M758.09,1835.84h0a0,0,0,0,1,0,0v39.85a0,0,0,0,1,0,0H742.6a0,0,0,0,1,0,0v-24.35A15.5,15.5,0,0,1,758.09,1835.84Z"/><path d="M742.6,1990.07h15.5a0,0,0,0,1,0,0v24.35a15.5,15.5,0,0,1-15.5,15.5h0a0,0,0,0,1,0,0v-39.85A0,0,0,0,1,742.6,1990.07Z"/><path class="cls-2" d="M1258.81,1932.86a151.27,151.27,0,0,1-151.34,151.38H970.11l48.4-28.91a151.35,151.35,0,1,1,240.3-122.47Z"/><path d="M1081.07,1907.79a49.54,49.54,0,0,0-6.63,16.64h88.12v9.31a63.12,63.12,0,0,1-8,30.82,79.82,79.82,0,0,1-21.63,24.85,108,108,0,0,1-31.66,16.42,120.84,120.84,0,0,1-38.26,6h-10.66v-18.25H1063a97.39,97.39,0,0,0,29.49-4.39,85.73,85.73,0,0,0,24.43-12.12,64.17,64.17,0,0,0,16.92-17.9,48.93,48.93,0,0,0,6.6-16.49h-88.1v-9a63.43,63.43,0,0,1,8-31.1,82.52,82.52,0,0,1,21.6-24.92,106,106,0,0,1,31.69-16.66,120.39,120.39,0,0,1,38.27-6h10.66v18.25H1151.9a96.36,96.36,0,0,0-29.48,4.42,84.94,84.94,0,0,0-24.43,12.18A64.54,64.54,0,0,0,1081.07,1907.79Z"/><path d="M1113.53,1835.84h0a0,0,0,0,1,0,0v39.85a0,0,0,0,1,0,0H1098a0,0,0,0,1,0,0v-24.35A15.5,15.5,0,0,1,1113.53,1835.84Z"/><path d="M1098,1990.07h15.5a0,0,0,0,1,0,0v24.35a15.5,15.5,0,0,1-15.5,15.5h0a0,0,0,0,1,0,0v-39.85A0,0,0,0,1,1098,1990.07Z"/><path class="cls-2" d="M1614.25,1932.86a151.27,151.27,0,0,1-151.34,151.38H1325.55l48.4-28.91a151.35,151.35,0,1,1,240.3-122.47Z"/><path d="M1436.5,1907.79a49.72,49.72,0,0,0-6.62,16.64H1518v9.31a63.12,63.12,0,0,1-8,30.82,80,80,0,0,1-21.63,24.85,108,108,0,0,1-31.66,16.42,120.84,120.84,0,0,1-38.26,6h-10.67v-18.25h10.67a97.39,97.39,0,0,0,29.49-4.39,85.73,85.73,0,0,0,24.43-12.12,64.17,64.17,0,0,0,16.92-17.9,49.34,49.34,0,0,0,6.6-16.49h-88.11v-9a63.44,63.44,0,0,1,8-31.1,82.63,82.63,0,0,1,21.59-24.92,106.22,106.22,0,0,1,31.7-16.66,120.33,120.33,0,0,1,38.26-6H1518v18.25h-10.66a96.47,96.47,0,0,0-29.49,4.42,84.88,84.88,0,0,0-24.42,12.18A64.58,64.58,0,0,0,1436.5,1907.79Z"/><path d="M1469,1835.84h0a0,0,0,0,1,0,0v39.85a0,0,0,0,1,0,0h-15.5a0,0,0,0,1,0,0v-24.35A15.5,15.5,0,0,1,1469,1835.84Z"/><path d="M1453.47,1990.07H1469a0,0,0,0,1,0,0v24.35a15.5,15.5,0,0,1-15.5,15.5h0a0,0,0,0,1,0,0v-39.85A0,0,0,0,1,1453.47,1990.07Z"/><path class="cls-2" d="M1969.69,1932.86a151.27,151.27,0,0,1-151.34,151.38H1681l48.4-28.91a151.35,151.35,0,1,1,240.31-122.47Z"/><path d="M1791.94,1907.79a49.72,49.72,0,0,0-6.62,16.64h88.12v9.31a63.23,63.23,0,0,1-8,30.82,80,80,0,0,1-21.63,24.85,108,108,0,0,1-31.66,16.42,120.84,120.84,0,0,1-38.26,6h-10.67v-18.25h10.66a97.29,97.29,0,0,0,29.49-4.39,85.79,85.79,0,0,0,24.44-12.12,64.13,64.13,0,0,0,16.91-17.9,49.16,49.16,0,0,0,6.61-16.49h-88.11v-9a63.33,63.33,0,0,1,8-31.1,82.49,82.49,0,0,1,21.59-24.92,106.1,106.1,0,0,1,31.7-16.66,120.33,120.33,0,0,1,38.26-6h10.67v18.25h-10.66a96.38,96.38,0,0,0-29.49,4.42,84.88,84.88,0,0,0-24.42,12.18A64.58,64.58,0,0,0,1791.94,1907.79Z"/><path d="M1824.41,1835.84h0a0,0,0,0,1,0,0v39.85a0,0,0,0,1,0,0h-15.5a0,0,0,0,1,0,0v-24.35A15.5,15.5,0,0,1,1824.41,1835.84Z"/><path d="M1808.91,1990.07h15.5a0,0,0,0,1,0,0v24.35a15.5,15.5,0,0,1-15.5,15.5h0a0,0,0,0,1,0,0v-39.85A0,0,0,0,1,1808.91,1990.07Z"/><path class="cls-2" d="M2325.13,1932.86a151.27,151.27,0,0,1-151.34,151.38H2036.42l48.4-28.91a151.35,151.35,0,1,1,240.31-122.47Z"/><path d="M2147.38,1907.79a49.51,49.51,0,0,0-6.62,16.64h88.12v9.31a63.23,63.23,0,0,1-8,30.82,80,80,0,0,1-21.63,24.85,108.1,108.1,0,0,1-31.66,16.42,120.93,120.93,0,0,1-38.26,6h-10.67v-18.25h10.66a97.29,97.29,0,0,0,29.49-4.39,85.92,85.92,0,0,0,24.44-12.12,64.13,64.13,0,0,0,16.91-17.9,49.16,49.16,0,0,0,6.61-16.49h-88.11v-9a63.33,63.33,0,0,1,8-31.1,82.35,82.35,0,0,1,21.59-24.92A106,106,0,0,1,2180,1861a120.33,120.33,0,0,1,38.26-6h10.67v18.25h-10.67a96.36,96.36,0,0,0-29.48,4.42,85.07,85.07,0,0,0-24.43,12.18A64.54,64.54,0,0,0,2147.38,1907.79Z"/><path d="M2179.85,1835.84h0a0,0,0,0,1,0,0v39.85a0,0,0,0,1,0,0h-15.5a0,0,0,0,1,0,0v-24.35A15.5,15.5,0,0,1,2179.85,1835.84Z"/><path d="M2164.35,1990.07h15.5a0,0,0,0,1,0,0v24.35a15.5,15.5,0,0,1-15.5,15.5h0a0,0,0,0,1,0,0v-39.85A0,0,0,0,1,2164.35,1990.07Z"/><path class="cls-2" d="M2680.57,1932.86a151.28,151.28,0,0,1-151.34,151.38H2391.86l48.4-28.91a151.35,151.35,0,1,1,240.31-122.47Z"/><path d="M2502.82,1907.79a49.74,49.74,0,0,0-6.63,16.64h88.13v9.31a63.23,63.23,0,0,1-8,30.82,80,80,0,0,1-21.64,24.85,107.85,107.85,0,0,1-31.66,16.42,120.82,120.82,0,0,1-38.25,6h-10.67v-18.25h10.66a97.34,97.34,0,0,0,29.49-4.39,85.73,85.73,0,0,0,24.43-12.12,64.17,64.17,0,0,0,16.92-17.9,49.16,49.16,0,0,0,6.61-16.49h-88.11v-9a63.33,63.33,0,0,1,8-31.1,82.35,82.35,0,0,1,21.59-24.92,106,106,0,0,1,31.69-16.66,120.44,120.44,0,0,1,38.27-6h10.67v18.25h-10.67a96.36,96.36,0,0,0-29.48,4.42,85.07,85.07,0,0,0-24.43,12.18A64.54,64.54,0,0,0,2502.82,1907.79Z"/><path d="M2535.28,1835.84h0a0,0,0,0,1,0,0v39.85a0,0,0,0,1,0,0h-15.5a0,0,0,0,1,0,0v-24.35A15.5,15.5,0,0,1,2535.28,1835.84Z"/><path d="M2519.79,1990.07h15.5a0,0,0,0,1,0,0v24.35a15.5,15.5,0,0,1-15.5,15.5h0a0,0,0,0,1,0,0v-39.85A0,0,0,0,1,2519.79,1990.07Z"/><path class="cls-2" d="M3036,1932.86a151.27,151.27,0,0,1-151.34,151.38H2747.3l48.4-28.91A151.35,151.35,0,1,1,3036,1932.86Z"/><path d="M2858.26,1907.79a49.54,49.54,0,0,0-6.63,16.64h88.12v9.31a63.12,63.12,0,0,1-8,30.82,79.82,79.82,0,0,1-21.63,24.85,108,108,0,0,1-31.66,16.42,120.84,120.84,0,0,1-38.26,6h-10.66v-18.25h10.66a97.39,97.39,0,0,0,29.49-4.39,85.73,85.73,0,0,0,24.43-12.12,64.17,64.17,0,0,0,16.92-17.9,48.93,48.93,0,0,0,6.6-16.49h-88.1v-9a63.43,63.43,0,0,1,8-31.1,82.52,82.52,0,0,1,21.6-24.92,106,106,0,0,1,31.69-16.66,120.39,120.39,0,0,1,38.27-6h10.66v18.25h-10.66a96.36,96.36,0,0,0-29.48,4.42,84.94,84.94,0,0,0-24.43,12.18A64.54,64.54,0,0,0,2858.26,1907.79Z"/><path d="M2890.72,1835.84h0a0,0,0,0,1,0,0v39.85a0,0,0,0,1,0,0h-15.5a0,0,0,0,1,0,0v-24.35A15.5,15.5,0,0,1,2890.72,1835.84Z"/><path d="M2875.22,1990.07h15.5a0,0,0,0,1,0,0v24.35a15.5,15.5,0,0,1-15.5,15.5h0a0,0,0,0,1,0,0v-39.85A0,0,0,0,1,2875.22,1990.07Z"/></g><g class="cls-1"><path class="cls-2" d="M302.73,2289.16a151.32,151.32,0,0,1-151.34,151.39H14l48.4-28.91a151.36,151.36,0,1,1,240.31-122.48Z"/><path d="M125,2264.09a49.48,49.48,0,0,0-6.62,16.65h88.12v9.3a63.23,63.23,0,0,1-8,30.82,79.83,79.83,0,0,1-21.63,24.85,107.86,107.86,0,0,1-31.66,16.42,120.93,120.93,0,0,1-38.26,6H96.25v-18.26h10.66a97.29,97.29,0,0,0,29.49-4.39,85.66,85.66,0,0,0,24.44-12.12,64.38,64.38,0,0,0,16.91-17.89,49.21,49.21,0,0,0,6.61-16.5H96.25v-9a63.33,63.33,0,0,1,8-31.1,82.32,82.32,0,0,1,21.59-24.91,105.77,105.77,0,0,1,31.7-16.67,120.33,120.33,0,0,1,38.26-6h10.67v18.25H195.81a96.66,96.66,0,0,0-29.48,4.42,85.35,85.35,0,0,0-24.43,12.19A64.51,64.51,0,0,0,125,2264.09Z"/><path d="M157.45,2192.14h0a0,0,0,0,1,0,0V2232a0,0,0,0,1,0,0h-15.5a0,0,0,0,1,0,0v-24.35A15.5,15.5,0,0,1,157.45,2192.14Z"/><path d="M141.95,2346.38h15.5a0,0,0,0,1,0,0v24.35a15.5,15.5,0,0,1-15.5,15.5h0a0,0,0,0,1,0,0v-39.85A0,0,0,0,1,141.95,2346.38Z"/><path class="cls-2" d="M658.17,2289.16a151.33,151.33,0,0,1-151.35,151.39H369.46l48.4-28.91a151.36,151.36,0,1,1,240.31-122.48Z"/><path d="M480.42,2264.09a49.71,49.71,0,0,0-6.63,16.65h88.13v9.3a63.23,63.23,0,0,1-8,30.82,79.87,79.87,0,0,1-21.64,24.85,107.61,107.61,0,0,1-31.66,16.42,120.82,120.82,0,0,1-38.25,6H451.69v-18.26h10.66a97.39,97.39,0,0,0,29.49-4.39,85.47,85.47,0,0,0,24.43-12.12,64.27,64.27,0,0,0,16.92-17.89,49.21,49.21,0,0,0,6.61-16.5H451.69v-9a63.33,63.33,0,0,1,8-31.1,82.32,82.32,0,0,1,21.59-24.91A105.84,105.84,0,0,1,513,2217.27a120.39,120.39,0,0,1,38.27-6h10.67v18.25H551.25a96.66,96.66,0,0,0-29.48,4.42,85.35,85.35,0,0,0-24.43,12.19A64.51,64.51,0,0,0,480.42,2264.09Z"/><path d="M512.88,2192.14h0a0,0,0,0,1,0,0V2232a0,0,0,0,1,0,0h-15.5a0,0,0,0,1,0,0v-24.35A15.5,15.5,0,0,1,512.88,2192.14Z"/><path d="M497.39,2346.38h15.5a0,0,0,0,1,0,0v24.35a15.5,15.5,0,0,1-15.5,15.5h0a0,0,0,0,1,0,0v-39.85A0,0,0,0,1,497.39,2346.38Z"/><path class="cls-2" d="M1013.6,2289.16a151.32,151.32,0,0,1-151.34,151.39H724.9l48.4-28.91a151.36,151.36,0,1,1,240.3-122.48Z"/><path d="M835.86,2264.09a49.5,49.5,0,0,0-6.63,16.65h88.12v9.3a63.12,63.12,0,0,1-8,30.82,79.83,79.83,0,0,1-21.63,24.85,107.73,107.73,0,0,1-31.66,16.42,120.84,120.84,0,0,1-38.26,6H807.13v-18.26h10.66a97.39,97.39,0,0,0,29.49-4.39,85.47,85.47,0,0,0,24.43-12.12,64.27,64.27,0,0,0,16.92-17.89,49,49,0,0,0,6.6-16.5h-88.1v-9a63.43,63.43,0,0,1,8-31.1,82.49,82.49,0,0,1,21.6-24.91,105.84,105.84,0,0,1,31.69-16.67,120.39,120.39,0,0,1,38.27-6h10.66v18.25H906.69a96.78,96.78,0,0,0-29.49,4.42,85.29,85.29,0,0,0-24.42,12.19A64.51,64.51,0,0,0,835.86,2264.09Z"/><path d="M868.32,2192.14h0a0,0,0,0,1,0,0V2232a0,0,0,0,1,0,0h-15.5a0,0,0,0,1,0,0v-24.35A15.5,15.5,0,0,1,868.32,2192.14Z"/><path d="M852.82,2346.38h15.5a0,0,0,0,1,0,0v24.35a15.5,15.5,0,0,1-15.5,15.5h0a0,0,0,0,1,0,0v-39.85A0,0,0,0,1,852.82,2346.38Z"/><path class="cls-2" d="M1369,2289.16a151.32,151.32,0,0,1-151.34,151.39H1080.34l48.4-28.91A151.36,151.36,0,1,1,1369,2289.16Z"/><path d="M1191.29,2264.09a49.69,49.69,0,0,0-6.62,16.65h88.12v9.3a63.12,63.12,0,0,1-8,30.82,79.83,79.83,0,0,1-21.63,24.85,107.73,107.73,0,0,1-31.66,16.42,120.84,120.84,0,0,1-38.26,6h-10.67v-18.26h10.67a97.39,97.39,0,0,0,29.49-4.39,85.47,85.47,0,0,0,24.43-12.12,64.41,64.41,0,0,0,16.92-17.89,49.39,49.39,0,0,0,6.6-16.5h-88.11v-9a63.44,63.44,0,0,1,8-31.1,82.59,82.59,0,0,1,21.59-24.91,106,106,0,0,1,31.7-16.67,120.33,120.33,0,0,1,38.26-6h10.67v18.25h-10.66a96.78,96.78,0,0,0-29.49,4.42,85.16,85.16,0,0,0-24.42,12.19A64.55,64.55,0,0,0,1191.29,2264.09Z"/><path d="M1223.76,2192.14h0a0,0,0,0,1,0,0V2232a0,0,0,0,1,0,0h-15.5a0,0,0,0,1,0,0v-24.35A15.5,15.5,0,0,1,1223.76,2192.14Z"/><path d="M1208.26,2346.38h15.5a0,0,0,0,1,0,0v24.35a15.5,15.5,0,0,1-15.5,15.5h0a0,0,0,0,1,0,0v-39.85A0,0,0,0,1,1208.26,2346.38Z"/><path class="cls-2" d="M1724.48,2289.16a151.32,151.32,0,0,1-151.34,151.39H1435.77l48.4-28.91a151.36,151.36,0,1,1,240.31-122.48Z"/><path d="M1546.73,2264.09a49.69,49.69,0,0,0-6.62,16.65h88.12v9.3a63.23,63.23,0,0,1-8,30.82,79.83,79.83,0,0,1-21.63,24.85,107.73,107.73,0,0,1-31.66,16.42,120.84,120.84,0,0,1-38.26,6H1518v-18.26h10.66a97.29,97.29,0,0,0,29.49-4.39,85.53,85.53,0,0,0,24.44-12.12,64.23,64.23,0,0,0,16.91-17.89,49.21,49.21,0,0,0,6.61-16.5H1518v-9a63.33,63.33,0,0,1,8-31.1,82.45,82.45,0,0,1,21.59-24.91,105.89,105.89,0,0,1,31.7-16.67,120.33,120.33,0,0,1,38.26-6h10.67v18.25h-10.66a96.68,96.68,0,0,0-29.49,4.42,85.16,85.16,0,0,0-24.42,12.19A64.55,64.55,0,0,0,1546.73,2264.09Z"/><path d="M1579.2,2192.14h0a0,0,0,0,1,0,0V2232a0,0,0,0,1,0,0h-15.5a0,0,0,0,1,0,0v-24.35A15.5,15.5,0,0,1,1579.2,2192.14Z"/><path d="M1563.7,2346.38h15.5a0,0,0,0,1,0,0v24.35a15.5,15.5,0,0,1-15.5,15.5h0a0,0,0,0,1,0,0v-39.85A0,0,0,0,1,1563.7,2346.38Z"/><path class="cls-2" d="M2079.92,2289.16a151.32,151.32,0,0,1-151.34,151.39H1791.21l48.4-28.91a151.36,151.36,0,1,1,240.31-122.48Z"/><path d="M1902.17,2264.09a49.48,49.48,0,0,0-6.62,16.65h88.12v9.3a63.23,63.23,0,0,1-8,30.82,79.83,79.83,0,0,1-21.63,24.85,107.86,107.86,0,0,1-31.66,16.42,120.93,120.93,0,0,1-38.26,6h-10.67v-18.26h10.66a97.29,97.29,0,0,0,29.49-4.39,85.66,85.66,0,0,0,24.44-12.12,64.38,64.38,0,0,0,16.91-17.89,49.21,49.21,0,0,0,6.61-16.5h-88.11v-9a63.33,63.33,0,0,1,8-31.1,82.32,82.32,0,0,1,21.59-24.91,105.77,105.77,0,0,1,31.7-16.67,120.33,120.33,0,0,1,38.26-6h10.67v18.25H1973a96.66,96.66,0,0,0-29.48,4.42,85.35,85.35,0,0,0-24.43,12.19A64.51,64.51,0,0,0,1902.17,2264.09Z"/><path d="M1934.64,2192.14h0a0,0,0,0,1,0,0V2232a0,0,0,0,1,0,0h-15.5a0,0,0,0,1,0,0v-24.35A15.5,15.5,0,0,1,1934.64,2192.14Z"/><path d="M1919.14,2346.38h15.5a0,0,0,0,1,0,0v24.35a15.5,15.5,0,0,1-15.5,15.5h0a0,0,0,0,1,0,0v-39.85A0,0,0,0,1,1919.14,2346.38Z"/><path class="cls-2" d="M2435.36,2289.16A151.33,151.33,0,0,1,2284,2440.55H2146.65l48.4-28.91a151.36,151.36,0,1,1,240.31-122.48Z"/><path d="M2257.61,2264.09a49.71,49.71,0,0,0-6.63,16.65h88.13v9.3a63.23,63.23,0,0,1-8,30.82,79.87,79.87,0,0,1-21.64,24.85,107.61,107.61,0,0,1-31.66,16.42,120.82,120.82,0,0,1-38.25,6h-10.67v-18.26h10.66a97.39,97.39,0,0,0,29.49-4.39,85.47,85.47,0,0,0,24.43-12.12,64.27,64.27,0,0,0,16.92-17.89A49.21,49.21,0,0,0,2317,2299h-88.11v-9a63.33,63.33,0,0,1,8-31.1,82.32,82.32,0,0,1,21.59-24.91,105.84,105.84,0,0,1,31.69-16.67,120.39,120.39,0,0,1,38.27-6h10.67v18.25h-10.67a96.66,96.66,0,0,0-29.48,4.42,85.35,85.35,0,0,0-24.43,12.19A64.51,64.51,0,0,0,2257.61,2264.09Z"/><path d="M2290.07,2192.14h0a0,0,0,0,1,0,0V2232a0,0,0,0,1,0,0h-15.5a0,0,0,0,1,0,0v-24.35A15.5,15.5,0,0,1,2290.07,2192.14Z"/><path d="M2274.58,2346.38h15.5a0,0,0,0,1,0,0v24.35a15.5,15.5,0,0,1-15.5,15.5h0a0,0,0,0,1,0,0v-39.85A0,0,0,0,1,2274.58,2346.38Z"/><path class="cls-2" d="M2790.79,2289.16a151.32,151.32,0,0,1-151.34,151.39H2502.09l48.4-28.91a151.36,151.36,0,1,1,240.3-122.48Z"/><path d="M2613.05,2264.09a49.5,49.5,0,0,0-6.63,16.65h88.12v9.3a63.12,63.12,0,0,1-8,30.82,79.83,79.83,0,0,1-21.63,24.85,107.73,107.73,0,0,1-31.66,16.42,120.84,120.84,0,0,1-38.26,6h-10.66v-18.26H2595a97.39,97.39,0,0,0,29.49-4.39,85.47,85.47,0,0,0,24.43-12.12,64.27,64.27,0,0,0,16.92-17.89,49,49,0,0,0,6.6-16.5h-88.1v-9a63.43,63.43,0,0,1,8-31.1,82.49,82.49,0,0,1,21.6-24.91,105.84,105.84,0,0,1,31.69-16.67,120.39,120.39,0,0,1,38.27-6h10.66v18.25h-10.66a96.66,96.66,0,0,0-29.48,4.42,85.22,85.22,0,0,0-24.43,12.19A64.51,64.51,0,0,0,2613.05,2264.09Z"/><path d="M2645.51,2192.14h0a0,0,0,0,1,0,0V2232a0,0,0,0,1,0,0H2630a0,0,0,0,1,0,0v-24.35A15.5,15.5,0,0,1,2645.51,2192.14Z"/><path d="M2630,2346.38h15.5a0,0,0,0,1,0,0v24.35a15.5,15.5,0,0,1-15.5,15.5h0a0,0,0,0,1,0,0v-39.85A0,0,0,0,1,2630,2346.38Z"/></g><g class="cls-1"><path class="cls-2" d="M563.29,2645.46A151.27,151.27,0,0,1,412,2796.85H274.59l48.4-28.91a151.36,151.36,0,1,1,240.3-122.48Z"/><path d="M385.54,2620.4a49.72,49.72,0,0,0-6.62,16.64H467v9.3a63.18,63.18,0,0,1-8,30.83A79.91,79.91,0,0,1,437.4,2702a107.73,107.73,0,0,1-31.66,16.42,120.84,120.84,0,0,1-38.26,6H356.82v-18.26h10.66A97.08,97.08,0,0,0,397,2701.8a85.47,85.47,0,0,0,24.43-12.12,64.27,64.27,0,0,0,16.92-17.89,49.1,49.1,0,0,0,6.6-16.5h-88.1v-9a63.47,63.47,0,0,1,8-31.11,82.61,82.61,0,0,1,21.6-24.91,105.59,105.59,0,0,1,31.69-16.66,120.1,120.1,0,0,1,38.26-6H467v18.26H456.38a96.77,96.77,0,0,0-29.49,4.41,85.16,85.16,0,0,0-24.42,12.19A64.73,64.73,0,0,0,385.54,2620.4Z"/><path d="M418,2548.44h0a0,0,0,0,1,0,0v39.85a0,0,0,0,1,0,0h-15.5a0,0,0,0,1,0,0v-24.35A15.5,15.5,0,0,1,418,2548.44Z"/><path d="M402.51,2702.68H418a0,0,0,0,1,0,0V2727a15.5,15.5,0,0,1-15.5,15.5h0a0,0,0,0,1,0,0v-39.85A0,0,0,0,1,402.51,2702.68Z"/><path class="cls-2" d="M918.73,2645.46a151.27,151.27,0,0,1-151.34,151.39H630l48.39-28.91a151.36,151.36,0,1,1,240.31-122.48Z"/><path d="M741,2620.4a49.72,49.72,0,0,0-6.62,16.64h88.12v9.3a63.18,63.18,0,0,1-8,30.83A79.91,79.91,0,0,1,792.84,2702a107.73,107.73,0,0,1-31.66,16.42,120.84,120.84,0,0,1-38.26,6H712.25v-18.26h10.66a97.1,97.1,0,0,0,29.5-4.39,85.47,85.47,0,0,0,24.43-12.12,64.41,64.41,0,0,0,16.92-17.89,49.31,49.31,0,0,0,6.6-16.5H712.25v-9a63.48,63.48,0,0,1,8-31.11,82.57,82.57,0,0,1,21.59-24.91,105.77,105.77,0,0,1,31.7-16.66,120.06,120.06,0,0,1,38.26-6h10.67v18.26H811.82a96.68,96.68,0,0,0-29.49,4.41,85.16,85.16,0,0,0-24.42,12.19A64.58,64.58,0,0,0,741,2620.4Z"/><path d="M773.45,2548.44h0a0,0,0,0,1,0,0v39.85a0,0,0,0,1,0,0H758a0,0,0,0,1,0,0v-24.35A15.5,15.5,0,0,1,773.45,2548.44Z"/><path d="M758,2702.68h15.5a0,0,0,0,1,0,0V2727a15.5,15.5,0,0,1-15.5,15.5h0a0,0,0,0,1,0,0v-39.85A0,0,0,0,1,758,2702.68Z"/><path class="cls-2" d="M1274.17,2645.46a151.27,151.27,0,0,1-151.34,151.39H985.46l48.4-28.91a151.36,151.36,0,1,1,240.31-122.48Z"/><path d="M1096.42,2620.4a49.51,49.51,0,0,0-6.62,16.64h88.12v9.3a63.29,63.29,0,0,1-8,30.83,79.91,79.91,0,0,1-21.63,24.84,107.86,107.86,0,0,1-31.66,16.42,120.84,120.84,0,0,1-38.26,6h-10.67v-18.26h10.66a97,97,0,0,0,29.49-4.39,85.53,85.53,0,0,0,24.44-12.12,64.23,64.23,0,0,0,16.91-17.89,49.13,49.13,0,0,0,6.61-16.5h-88.11v-9a63.37,63.37,0,0,1,8-31.11,82.57,82.57,0,0,1,21.59-24.91,105.53,105.53,0,0,1,31.7-16.66,120.06,120.06,0,0,1,38.26-6h10.67v18.26h-10.67a96.66,96.66,0,0,0-29.48,4.41,85.35,85.35,0,0,0-24.43,12.19A64.69,64.69,0,0,0,1096.42,2620.4Z"/><path d="M1128.89,2548.44h0a0,0,0,0,1,0,0v39.85a0,0,0,0,1,0,0h-15.5a0,0,0,0,1,0,0v-24.35A15.5,15.5,0,0,1,1128.89,2548.44Z"/><path d="M1113.39,2702.68h15.5a0,0,0,0,1,0,0V2727a15.5,15.5,0,0,1-15.5,15.5h0a0,0,0,0,1,0,0v-39.85A0,0,0,0,1,1113.39,2702.68Z"/><path class="cls-2" d="M1629.61,2645.46a151.27,151.27,0,0,1-151.34,151.39H1340.9l48.4-28.91a151.36,151.36,0,1,1,240.31-122.48Z"/><path d="M1451.86,2620.4a49.74,49.74,0,0,0-6.63,16.64h88.13v9.3a63.29,63.29,0,0,1-8,30.83,79.91,79.91,0,0,1-21.63,24.84,107.79,107.79,0,0,1-31.67,16.42,120.82,120.82,0,0,1-38.25,6h-10.67v-18.26h10.66a97,97,0,0,0,29.49-4.39,85.47,85.47,0,0,0,24.43-12.12,64.27,64.27,0,0,0,16.92-17.89,49.13,49.13,0,0,0,6.61-16.5h-88.11v-9a63.37,63.37,0,0,1,8-31.11,82.43,82.43,0,0,1,21.59-24.91,105.53,105.53,0,0,1,31.7-16.66,120.06,120.06,0,0,1,38.26-6h10.67v18.26h-10.67a96.66,96.66,0,0,0-29.48,4.41,85.35,85.35,0,0,0-24.43,12.19A64.54,64.54,0,0,0,1451.86,2620.4Z"/><path d="M1484.32,2548.44h0a0,0,0,0,1,0,0v39.85a0,0,0,0,1,0,0h-15.5a0,0,0,0,1,0,0v-24.35A15.5,15.5,0,0,1,1484.32,2548.44Z"/><path d="M1468.83,2702.68h15.5a0,0,0,0,1,0,0V2727a15.5,15.5,0,0,1-15.5,15.5h0a0,0,0,0,1,0,0v-39.85A0,0,0,0,1,1468.83,2702.68Z"/><path class="cls-2" d="M1985.05,2645.46a151.28,151.28,0,0,1-151.35,151.39H1696.34l48.4-28.91a151.36,151.36,0,1,1,240.31-122.48Z"/><path d="M1807.3,2620.4a49.74,49.74,0,0,0-6.63,16.64h88.13v9.3a63.19,63.19,0,0,1-8,30.83,79.78,79.78,0,0,1-21.63,24.84,107.61,107.61,0,0,1-31.66,16.42,120.82,120.82,0,0,1-38.25,6h-10.67v-18.26h10.66a97.08,97.08,0,0,0,29.49-4.39,85.47,85.47,0,0,0,24.43-12.12,64.27,64.27,0,0,0,16.92-17.89,49.13,49.13,0,0,0,6.61-16.5h-88.11v-9a63.47,63.47,0,0,1,8-31.11,82.61,82.61,0,0,1,21.6-24.91,105.59,105.59,0,0,1,31.69-16.66,120.12,120.12,0,0,1,38.27-6h10.67v18.26h-10.67a96.66,96.66,0,0,0-29.48,4.41,85.22,85.22,0,0,0-24.43,12.19A64.54,64.54,0,0,0,1807.3,2620.4Z"/><path d="M1839.76,2548.44h0a0,0,0,0,1,0,0v39.85a0,0,0,0,1,0,0h-15.5a0,0,0,0,1,0,0v-24.35A15.5,15.5,0,0,1,1839.76,2548.44Z"/><path d="M1824.27,2702.68h15.5a0,0,0,0,1,0,0V2727a15.5,15.5,0,0,1-15.5,15.5h0a0,0,0,0,1,0,0v-39.85A0,0,0,0,1,1824.27,2702.68Z"/><path class="cls-2" d="M2340.48,2645.46a151.27,151.27,0,0,1-151.34,151.39H2051.78l48.4-28.91a151.36,151.36,0,1,1,240.3-122.48Z"/><path d="M2162.73,2620.4a49.72,49.72,0,0,0-6.62,16.64h88.12v9.3a63.18,63.18,0,0,1-8,30.83,79.91,79.91,0,0,1-21.63,24.84,107.73,107.73,0,0,1-31.66,16.42,120.84,120.84,0,0,1-38.26,6H2134v-18.26h10.66a97.08,97.08,0,0,0,29.49-4.39,85.47,85.47,0,0,0,24.43-12.12,64.27,64.27,0,0,0,16.92-17.89,49.1,49.1,0,0,0,6.6-16.5H2134v-9a63.47,63.47,0,0,1,8-31.11,82.61,82.61,0,0,1,21.6-24.91,105.59,105.59,0,0,1,31.69-16.66,120.1,120.1,0,0,1,38.26-6h10.67v18.26h-10.66a96.77,96.77,0,0,0-29.49,4.41,85.16,85.16,0,0,0-24.42,12.19A64.73,64.73,0,0,0,2162.73,2620.4Z"/><path d="M2195.2,2548.44h0a0,0,0,0,1,0,0v39.85a0,0,0,0,1,0,0h-15.5a0,0,0,0,1,0,0v-24.35A15.5,15.5,0,0,1,2195.2,2548.44Z"/><path d="M2179.7,2702.68h15.5a0,0,0,0,1,0,0V2727a15.5,15.5,0,0,1-15.5,15.5h0a0,0,0,0,1,0,0v-39.85A0,0,0,0,1,2179.7,2702.68Z"/><path class="cls-2" d="M2695.92,2645.46a151.27,151.27,0,0,1-151.34,151.39H2407.22l48.39-28.91a151.36,151.36,0,1,1,240.31-122.48Z"/><path d="M2518.17,2620.4a49.72,49.72,0,0,0-6.62,16.64h88.12v9.3a63.18,63.18,0,0,1-8,30.83A79.91,79.91,0,0,1,2570,2702a107.73,107.73,0,0,1-31.66,16.42,120.84,120.84,0,0,1-38.26,6h-10.67v-18.26h10.66a97.1,97.1,0,0,0,29.5-4.39,85.47,85.47,0,0,0,24.43-12.12,64.41,64.41,0,0,0,16.92-17.89,49.31,49.31,0,0,0,6.6-16.5h-88.11v-9a63.48,63.48,0,0,1,8-31.11,82.57,82.57,0,0,1,21.59-24.91,105.77,105.77,0,0,1,31.7-16.66,120.06,120.06,0,0,1,38.26-6h10.67v18.26H2589a96.73,96.73,0,0,0-29.49,4.41,85.16,85.16,0,0,0-24.42,12.19A64.58,64.58,0,0,0,2518.17,2620.4Z"/><path d="M2550.64,2548.44h0a0,0,0,0,1,0,0v39.85a0,0,0,0,1,0,0h-15.5a0,0,0,0,1,0,0v-24.35A15.5,15.5,0,0,1,2550.64,2548.44Z"/><path d="M2535.14,2702.68h15.5a0,0,0,0,1,0,0V2727a15.5,15.5,0,0,1-15.5,15.5h0a0,0,0,0,1,0,0v-39.85A0,0,0,0,1,2535.14,2702.68Z"/><path class="cls-2" d="M3051.36,2645.46A151.27,151.27,0,0,1,2900,2796.85H2762.65l48.4-28.91a151.36,151.36,0,1,1,240.31-122.48Z"/><path d="M2873.61,2620.4A49.51,49.51,0,0,0,2867,2637h88.12v9.3a63.29,63.29,0,0,1-8,30.83,79.91,79.91,0,0,1-21.63,24.84,107.86,107.86,0,0,1-31.66,16.42,120.84,120.84,0,0,1-38.26,6h-10.67v-18.26h10.66a97,97,0,0,0,29.49-4.39,85.53,85.53,0,0,0,24.44-12.12,64.23,64.23,0,0,0,16.91-17.89,49.13,49.13,0,0,0,6.61-16.5h-88.11v-9a63.37,63.37,0,0,1,8-31.11,82.57,82.57,0,0,1,21.59-24.91,105.53,105.53,0,0,1,31.7-16.66,120.06,120.06,0,0,1,38.26-6h10.67v18.26h-10.67a96.66,96.66,0,0,0-29.48,4.41,85.35,85.35,0,0,0-24.43,12.19A64.69,64.69,0,0,0,2873.61,2620.4Z"/><path d="M2906.08,2548.44h0a0,0,0,0,1,0,0v39.85a0,0,0,0,1,0,0h-15.5a0,0,0,0,1,0,0v-24.35A15.5,15.5,0,0,1,2906.08,2548.44Z"/><path d="M2890.58,2702.68h15.5a0,0,0,0,1,0,0V2727a15.5,15.5,0,0,1-15.5,15.5h0a0,0,0,0,1,0,0v-39.85A0,0,0,0,1,2890.58,2702.68Z"/></g></g></g></svg>