<svg xmlns="http://www.w3.org/2000/svg" viewBox="0 0 6335.34 4256"><defs><style>.cls-1{fill:#fff;}</style></defs><g id="Layer_2" data-name="Layer 2"><g id="Layer_1-2" data-name="Layer 1"><path class="cls-1" d="M17.39,532H0V506H17.38q46.68,0,88-13.12t73.29-36.4q32-23.26,51.58-54.6A150.83,150.83,0,0,0,253,335H0V322.27A166.9,166.9,0,0,1,21.19,240q21.18-38.17,58.14-67t86.4-45.39Q215.19,111,270.61,111H288v26H270.63q-46.69,0-88,13.2t-73.29,36.61q-32,23.44-51.58,54.92A152.16,152.16,0,0,0,35,309H288v13.52A166.41,166.41,0,0,1,266.8,404q-21.2,38.45-58.14,66.74t-86.39,44.76Q72.82,532,17.39,532Z"/><path class="cls-1" d="M630.38,532H613q-54.37,0-101.66-15.22t-83.7-41.84q-36.42-26.62-58.71-62.58A170.06,170.06,0,0,1,343.38,335V309a171.58,171.58,0,0,1,25.54-77.75q22.27-36.12,58.71-62.89t83.7-42.06Q558.63,111,613,111h17.39v12.73q0,44.11-17.93,82.3a190.55,190.55,0,0,1-51.57,66.19q-68.42,57.7-183.5,62.78a150.56,150.56,0,0,0,22.79,66.88q19.54,31.33,51.58,54.6t73.3,36.4Q566.3,506,613,506h17.38Zm-35-394a286.62,286.62,0,0,0-81.89,16.59q-38.52,14-67.79,37a191.4,191.4,0,0,0-47.18,53.18A152.84,152.84,0,0,0,377.38,309q53.13-2.53,93.26-17.86t66.71-38.7q26.56-23.4,41.21-53.17A163.68,163.68,0,0,0,595.38,138Z"/><path class="cls-1" d="M685,532V0h34V532Z"/><path class="cls-1" d="M1060.79,532h-16.31q-56.54,0-106-16.52T852.6,470.59Q816.18,442.21,795,403.67a169.06,169.06,0,0,1,0-163.9q21.18-38.11,57.62-66.93t85.88-45.32q49.46-16.5,106-16.52h16.31Zm-34-395a275.75,275.75,0,0,0-85.66,18.25Q901,171,871.21,195.53a181.59,181.59,0,0,0-46.62,57.27,148.94,148.94,0,0,0-16.8,69.12,146.4,146.4,0,0,0,16.8,68.72q16.8,32.25,46.62,57.27t69.92,40.28A283.36,283.36,0,0,0,1026.79,506Z"/><path class="cls-1" d="M1400,532h-16.31q-56.54,0-106-16.52t-85.88-44.89q-36.42-28.38-57.62-66.92a169.06,169.06,0,0,1,0-163.9q21.18-38.11,57.62-66.93t85.88-45.32q49.45-16.5,106-16.52H1400Zm-34-395a275.75,275.75,0,0,0-85.66,18.25q-40.12,15.7-69.92,40.28a181.59,181.59,0,0,0-46.62,57.27,148.94,148.94,0,0,0-16.8,69.12,146.4,146.4,0,0,0,16.8,68.72q16.8,32.25,46.62,57.27t69.92,40.28A283.36,283.36,0,0,0,1366,506Z"/><path class="cls-1" d="M234.68,1064H217.29v-26h17.38q46.68,0,88-13.12t73.3-36.4q32-23.26,51.57-54.6A150.83,150.83,0,0,0,470.29,867h-253V854.27A166.9,166.9,0,0,1,238.48,772q21.18-38.18,58.14-67T383,659.55Q432.48,643,487.9,643h17.39v26H487.92q-46.69,0-88,13.2t-73.29,36.61q-32,23.45-51.58,54.92A152.16,152.16,0,0,0,252.29,841h253v13.52A166.41,166.41,0,0,1,484.09,936Q462.9,974.47,426,1002.77t-86.39,44.76Q290.1,1064,234.68,1064Z"/><path class="cls-1" d="M847.67,1064H830.28q-54.37,0-101.66-15.22t-83.7-41.84q-36.42-26.62-58.71-62.58A170.06,170.06,0,0,1,560.67,867V841a171.58,171.58,0,0,1,25.54-77.75q22.27-36.12,58.71-62.89t83.7-42.06Q775.92,643,830.28,643h17.39v12.73q0,44.12-17.92,82.3a190.69,190.69,0,0,1-51.58,66.19Q709.75,861.93,594.67,867a150.56,150.56,0,0,0,22.79,66.88Q637,965.21,669,988.48t73.3,36.4Q783.59,1038,830.29,1038h17.38Zm-35-394a286.62,286.62,0,0,0-81.89,16.59q-38.52,14-67.78,37a191.43,191.43,0,0,0-47.19,53.18A152.84,152.84,0,0,0,594.67,841q53.13-2.54,93.26-17.86t66.71-38.7q26.57-23.4,41.21-53.17A163.68,163.68,0,0,0,812.67,670Z"/><path class="cls-1" d="M902.3,1064V532h34v532Z"/><path class="cls-1" d="M1278.08,1064h-16.31q-56.54,0-106-16.52t-85.88-44.89q-36.42-28.38-57.62-66.92a169.06,169.06,0,0,1,0-163.9q21.18-38.12,57.62-66.93t85.88-45.32q49.45-16.5,106-16.52h16.31Zm-34-395a275.75,275.75,0,0,0-85.66,18.25Q1118.3,703,1088.5,727.53a181.59,181.59,0,0,0-46.62,57.27,148.94,148.94,0,0,0-16.8,69.12,146.4,146.4,0,0,0,16.8,68.72q16.8,32.25,46.62,57.27t69.92,40.28a283.36,283.36,0,0,0,85.66,17.81Z"/><path class="cls-1" d="M1617.29,1064H1601q-56.54,0-106-16.52t-85.88-44.89q-36.42-28.38-57.62-66.92a169.06,169.06,0,0,1,0-163.9q21.18-38.12,57.62-66.93T1495,659.52Q1544.44,643,1601,643h16.31Zm-34-395a275.75,275.75,0,0,0-85.66,18.25q-40.12,15.71-69.92,40.28a181.59,181.59,0,0,0-46.62,57.27,148.94,148.94,0,0,0-16.8,69.12,146.4,146.4,0,0,0,16.8,68.72q16.8,32.25,46.62,57.27t69.92,40.28a283.36,283.36,0,0,0,85.66,17.81Z"/><path class="cls-1" d="M1600.68,532h-17.39V506h17.38q46.68,0,87.95-13.12t73.3-36.4q32-23.26,51.57-54.6a150.7,150.7,0,0,0,22.8-66.88h-253V322.27a166.9,166.9,0,0,1,21.19-82.3q21.18-38.17,58.14-67T1749,127.55Q1798.47,111,1853.9,111h17.39v26h-17.37q-46.7,0-88,13.2t-73.29,36.61q-32,23.44-51.58,54.92a152.16,152.16,0,0,0-22.8,67.27h253v13.52a166.41,166.41,0,0,1-21.2,81.51q-21.19,38.45-58.14,66.74t-86.39,44.76Q1656.11,532,1600.68,532Z"/><path class="cls-1" d="M2213.67,532h-17.39q-54.37,0-101.66-15.22t-83.7-41.84q-36.42-26.62-58.71-62.58A170.18,170.18,0,0,1,1926.67,335V309a171.7,171.7,0,0,1,25.54-77.75q22.27-36.12,58.71-62.89t83.7-42.06q47.3-15.28,101.66-15.3h17.39v12.73q0,44.11-17.92,82.3a190.58,190.58,0,0,1-51.58,66.19q-68.41,57.7-183.5,62.78a150.56,150.56,0,0,0,22.79,66.88q19.56,31.33,51.58,54.6t73.3,36.4Q2149.59,506,2196.29,506h17.38Zm-35-394a286.62,286.62,0,0,0-81.89,16.59q-38.51,14-67.78,37a191.43,191.43,0,0,0-47.19,53.18A152.84,152.84,0,0,0,1960.67,309q53.13-2.53,93.26-17.86t66.71-38.7a171.5,171.5,0,0,0,41.22-53.17A163.66,163.66,0,0,0,2178.67,138Z"/><path class="cls-1" d="M2268.3,532V0h34V532Z"/><path class="cls-1" d="M2644.08,532h-16.31q-56.54,0-106-16.52t-85.88-44.89q-36.42-28.38-57.62-66.92a169.06,169.06,0,0,1,0-163.9q21.18-38.11,57.62-66.93t85.88-45.32q49.45-16.5,106-16.52h16.31Zm-34-395a275.69,275.69,0,0,0-85.65,18.25q-40.12,15.7-69.93,40.28a181.59,181.59,0,0,0-46.62,57.27,149.06,149.06,0,0,0-16.8,69.12,146.52,146.52,0,0,0,16.8,68.72q16.8,32.25,46.62,57.27t69.93,40.28A283.3,283.3,0,0,0,2610.08,506Z"/><path class="cls-1" d="M2983.29,532H2967q-56.54,0-106-16.52t-85.88-44.89q-36.42-28.38-57.62-66.92a169.06,169.06,0,0,1,0-163.9q21.18-38.11,57.62-66.93T2861,127.52Q2910.43,111,2967,111h16.31Zm-34-395a275.69,275.69,0,0,0-85.65,18.25q-40.12,15.7-69.93,40.28a181.59,181.59,0,0,0-46.62,57.27,149.06,149.06,0,0,0-16.8,69.12,146.52,146.52,0,0,0,16.8,68.72q16.8,32.25,46.62,57.27t69.93,40.28A283.3,283.3,0,0,0,2949.29,506Z"/><path class="cls-1" d="M1818,1064h-17.39v-26H1818q46.68,0,88-13.12t73.3-36.4q32-23.26,51.57-54.6a150.7,150.7,0,0,0,22.8-66.88h-253V854.27a166.9,166.9,0,0,1,21.19-82.3q21.18-38.18,58.14-67t86.41-45.39Q2015.76,643,2071.19,643h17.39v26h-17.37q-46.7,0-88,13.2T1910,718.81q-32,23.45-51.58,54.92a152.16,152.16,0,0,0-22.8,67.27h253v13.52a166.41,166.41,0,0,1-21.2,81.51q-21.2,38.44-58.14,66.74t-86.39,44.76Q1873.4,1064,1818,1064Z"/><path class="cls-1" d="M2431,1064h-17.39q-54.37,0-101.66-15.22t-83.7-41.84q-36.42-26.62-58.7-62.58A170.07,170.07,0,0,1,2144,867V841a171.59,171.59,0,0,1,25.55-77.75q22.26-36.12,58.7-62.89t83.7-42.06q47.3-15.28,101.66-15.3H2431v12.73q0,44.12-17.92,82.3a190.58,190.58,0,0,1-51.58,66.19Q2293,861.93,2178,867a150.46,150.46,0,0,0,22.8,66.88q19.54,31.33,51.57,54.6t73.3,36.4q41.25,13.11,87.95,13.12H2431Zm-35-394a286.62,286.62,0,0,0-81.89,16.59q-38.51,14-67.78,37a191.59,191.59,0,0,0-47.19,53.18A152.84,152.84,0,0,0,2178,841q53.13-2.54,93.26-17.86t66.71-38.7a171.5,171.5,0,0,0,41.22-53.17A163.48,163.48,0,0,0,2396,670Z"/><path class="cls-1" d="M2485.59,1064V532h34v532Z"/><path class="cls-1" d="M2861.37,1064h-16.31q-56.54,0-106-16.52t-85.88-44.89q-36.42-28.38-57.62-66.92a169.06,169.06,0,0,1,0-163.9q21.18-38.12,57.62-66.93t85.88-45.32q49.46-16.5,106-16.52h16.31Zm-34-395a275.69,275.69,0,0,0-85.65,18.25q-40.12,15.71-69.93,40.28a181.59,181.59,0,0,0-46.62,57.27,149.06,149.06,0,0,0-16.8,69.12,146.52,146.52,0,0,0,16.8,68.72q16.8,32.25,46.62,57.27t69.93,40.28a283.3,283.3,0,0,0,85.65,17.81Z"/><path class="cls-1" d="M3200.58,1064h-16.31q-56.54,0-106-16.52t-85.88-44.89q-36.42-28.38-57.62-66.92a169.06,169.06,0,0,1,0-163.9q21.18-38.12,57.62-66.93t85.88-45.32q49.45-16.5,106-16.52h16.31Zm-34-395a275.69,275.69,0,0,0-85.65,18.25Q3040.81,703,3011,727.53a181.59,181.59,0,0,0-46.62,57.27,149.06,149.06,0,0,0-16.8,69.12,146.52,146.52,0,0,0,16.8,68.72q16.8,32.25,46.62,57.27t69.93,40.28a283.3,283.3,0,0,0,85.65,17.81Z"/><path class="cls-1" d="M17.39,1596H0v-26H17.38q46.68,0,88-13.12t73.29-36.4q32-23.26,51.58-54.6A150.83,150.83,0,0,0,253,1399H0v-12.73A166.9,166.9,0,0,1,21.19,1304q21.18-38.17,58.14-67t86.4-45.39Q215.19,1175,270.61,1175H288v26H270.63q-46.69,0-88,13.2t-73.29,36.61q-32,23.45-51.58,54.92A152.16,152.16,0,0,0,35,1373H288v13.52A166.41,166.41,0,0,1,266.8,1468q-21.2,38.45-58.14,66.74t-86.39,44.76Q72.82,1596,17.39,1596Z"/><path class="cls-1" d="M630.38,1596H613q-54.37,0-101.66-15.22t-83.7-41.84q-36.42-26.62-58.71-62.58A170.06,170.06,0,0,1,343.38,1399v-26a171.58,171.58,0,0,1,25.54-77.75q22.27-36.12,58.71-62.89t83.7-42.06Q558.63,1175,613,1175h17.39v12.73q0,44.12-17.93,82.3a190.55,190.55,0,0,1-51.57,66.19q-68.42,57.71-183.5,62.78a150.56,150.56,0,0,0,22.79,66.88q19.54,31.33,51.58,54.6t73.3,36.4Q566.3,1570,613,1570h17.38Zm-35-394a286.62,286.62,0,0,0-81.89,16.59q-38.52,14-67.79,37a191.4,191.4,0,0,0-47.18,53.18A152.84,152.84,0,0,0,377.38,1373q53.13-2.54,93.26-17.86t66.71-38.7q26.56-23.4,41.21-53.17A163.68,163.68,0,0,0,595.38,1202Z"/><path class="cls-1" d="M685,1596V1064h34v532Z"/><path class="cls-1" d="M1060.79,1596h-16.31q-56.54,0-106-16.52t-85.88-44.89q-36.42-28.38-57.62-66.92a169.06,169.06,0,0,1,0-163.9q21.18-38.12,57.62-66.93t85.88-45.32q49.46-16.5,106-16.52h16.31Zm-34-395a275.75,275.75,0,0,0-85.66,18.25Q901,1235,871.21,1259.53a181.59,181.59,0,0,0-46.62,57.27,148.94,148.94,0,0,0-16.8,69.12,146.4,146.4,0,0,0,16.8,68.72q16.8,32.25,46.62,57.27t69.92,40.28a283.36,283.36,0,0,0,85.66,17.81Z"/><path class="cls-1" d="M1400,1596h-16.31q-56.54,0-106-16.52t-85.88-44.89q-36.42-28.38-57.62-66.92a169.06,169.06,0,0,1,0-163.9q21.18-38.12,57.62-66.93t85.88-45.32q49.45-16.5,106-16.52H1400Zm-34-395a275.75,275.75,0,0,0-85.66,18.25q-40.12,15.7-69.92,40.28a181.59,181.59,0,0,0-46.62,57.27,148.94,148.94,0,0,0-16.8,69.12,146.4,146.4,0,0,0,16.8,68.72q16.8,32.25,46.62,57.27t69.92,40.28A283.36,283.36,0,0,0,1366,1570Z"/><path class="cls-1" d="M234.68,2128H217.29v-26h17.38q46.68,0,88-13.12t73.3-36.4q32-23.26,51.57-54.6a150.83,150.83,0,0,0,22.8-66.88h-253v-12.73a166.9,166.9,0,0,1,21.19-82.3q21.18-38.17,58.14-67t86.4-45.39Q432.48,1707,487.9,1707h17.39v26H487.92q-46.69,0-88,13.2t-73.29,36.61q-32,23.45-51.58,54.92a152.16,152.16,0,0,0-22.8,67.27h253v13.52a166.41,166.41,0,0,1-21.2,81.51q-21.19,38.45-58.14,66.74t-86.39,44.76Q290.1,2128,234.68,2128Z"/><path class="cls-1" d="M847.67,2128H830.28q-54.37,0-101.66-15.22t-83.7-41.84q-36.42-26.62-58.71-62.58A170.06,170.06,0,0,1,560.67,1931v-26a171.58,171.58,0,0,1,25.54-77.75q22.27-36.12,58.71-62.89t83.7-42.06Q775.92,1707,830.28,1707h17.39v12.73q0,44.12-17.92,82.3a190.69,190.69,0,0,1-51.58,66.19q-68.42,57.71-183.5,62.78a150.56,150.56,0,0,0,22.79,66.88q19.56,31.33,51.58,54.6t73.3,36.4Q783.59,2102,830.29,2102h17.38Zm-35-394a286.62,286.62,0,0,0-81.89,16.59q-38.52,14-67.78,37a191.43,191.43,0,0,0-47.19,53.18A152.84,152.84,0,0,0,594.67,1905q53.13-2.54,93.26-17.86t66.71-38.7q26.57-23.4,41.21-53.17A163.68,163.68,0,0,0,812.67,1734Z"/><path class="cls-1" d="M902.3,2128V1596h34v532Z"/><path class="cls-1" d="M1278.08,2128h-16.31q-56.54,0-106-16.52t-85.88-44.89q-36.42-28.38-57.62-66.92a169.06,169.06,0,0,1,0-163.9q21.18-38.12,57.62-66.93t85.88-45.32q49.45-16.5,106-16.52h16.31Zm-34-395a275.75,275.75,0,0,0-85.66,18.25q-40.12,15.7-69.92,40.28a181.59,181.59,0,0,0-46.62,57.27,148.94,148.94,0,0,0-16.8,69.12,146.4,146.4,0,0,0,16.8,68.72q16.8,32.25,46.62,57.27t69.92,40.28a283.36,283.36,0,0,0,85.66,17.81Z"/><path class="cls-1" d="M1617.29,2128H1601q-56.54,0-106-16.52t-85.88-44.89q-36.42-28.38-57.62-66.92a169.06,169.06,0,0,1,0-163.9q21.18-38.12,57.62-66.93t85.88-45.32q49.45-16.5,106-16.52h16.31Zm-34-395a275.75,275.75,0,0,0-85.66,18.25q-40.12,15.7-69.92,40.28a181.59,181.59,0,0,0-46.62,57.27,148.94,148.94,0,0,0-16.8,69.12,146.4,146.4,0,0,0,16.8,68.72q16.8,32.25,46.62,57.27t69.92,40.28a283.36,283.36,0,0,0,85.66,17.81Z"/><path class="cls-1" d="M1600.68,1596h-17.39v-26h17.38q46.68,0,87.95-13.12t73.3-36.4q32-23.26,51.57-54.6a150.7,150.7,0,0,0,22.8-66.88h-253v-12.73a166.9,166.9,0,0,1,21.19-82.3q21.18-38.17,58.14-67t86.41-45.39Q1798.47,1175,1853.9,1175h17.39v26h-17.37q-46.7,0-88,13.2t-73.29,36.61q-32,23.45-51.58,54.92a152.16,152.16,0,0,0-22.8,67.27h253v13.52a166.41,166.41,0,0,1-21.2,81.51q-21.19,38.45-58.14,66.74t-86.39,44.76Q1656.11,1596,1600.68,1596Z"/><path class="cls-1" d="M2213.67,1596h-17.39q-54.37,0-101.66-15.22t-83.7-41.84q-36.42-26.62-58.71-62.58a170.18,170.18,0,0,1-25.54-77.36v-26a171.7,171.7,0,0,1,25.54-77.75q22.27-36.12,58.71-62.89t83.7-42.06q47.3-15.29,101.66-15.3h17.39v12.73q0,44.12-17.92,82.3a190.58,190.58,0,0,1-51.58,66.19q-68.41,57.71-183.5,62.78a150.56,150.56,0,0,0,22.79,66.88q19.56,31.33,51.58,54.6t73.3,36.4q41.25,13.11,87.95,13.12h17.38Zm-35-394a286.62,286.62,0,0,0-81.89,16.59q-38.51,14-67.78,37a191.43,191.43,0,0,0-47.19,53.18,152.84,152.84,0,0,0-21.14,64.23q53.13-2.54,93.26-17.86t66.71-38.7a171.5,171.5,0,0,0,41.22-53.17A163.66,163.66,0,0,0,2178.67,1202Z"/><path class="cls-1" d="M2268.3,1596V1064h34v532Z"/><path class="cls-1" d="M2644.08,1596h-16.31q-56.54,0-106-16.52t-85.88-44.89q-36.42-28.38-57.62-66.92a169.06,169.06,0,0,1,0-163.9q21.18-38.12,57.62-66.93t85.88-45.32q49.45-16.5,106-16.52h16.31Zm-34-395a275.69,275.69,0,0,0-85.65,18.25q-40.12,15.7-69.93,40.28a181.59,181.59,0,0,0-46.62,57.27,149.06,149.06,0,0,0-16.8,69.12,146.52,146.52,0,0,0,16.8,68.72q16.8,32.25,46.62,57.27t69.93,40.28a283.3,283.3,0,0,0,85.65,17.81Z"/><path class="cls-1" d="M2983.29,1596H2967q-56.54,0-106-16.52t-85.88-44.89q-36.42-28.38-57.62-66.92a169.06,169.06,0,0,1,0-163.9q21.18-38.12,57.62-66.93t85.88-45.32q49.45-16.5,106-16.52h16.31Zm-34-395a275.69,275.69,0,0,0-85.65,18.25q-40.12,15.7-69.93,40.28a181.59,181.59,0,0,0-46.62,57.27,149.06,149.06,0,0,0-16.8,69.12,146.52,146.52,0,0,0,16.8,68.72q16.8,32.25,46.62,57.27t69.93,40.28a283.3,283.3,0,0,0,85.65,17.81Z"/><path class="cls-1" d="M1818,2128h-17.39v-26H1818q46.68,0,88-13.12t73.3-36.4q32-23.26,51.57-54.6a150.7,150.7,0,0,0,22.8-66.88h-253v-12.73a166.9,166.9,0,0,1,21.19-82.3q21.18-38.17,58.14-67t86.41-45.39q49.44-16.54,104.87-16.55h17.39v26h-17.37q-46.7,0-88,13.2T1910,1782.81q-32,23.45-51.58,54.92a152.16,152.16,0,0,0-22.8,67.27h253v13.52a166.41,166.41,0,0,1-21.2,81.51q-21.2,38.45-58.14,66.74t-86.39,44.76Q1873.4,2128,1818,2128Z"/><path class="cls-1" d="M2431,2128h-17.39q-54.37,0-101.66-15.22t-83.7-41.84q-36.42-26.62-58.7-62.58A170.07,170.07,0,0,1,2144,1931v-26a171.59,171.59,0,0,1,25.55-77.75q22.26-36.12,58.7-62.89t83.7-42.06q47.3-15.29,101.66-15.3H2431v12.73q0,44.12-17.92,82.3a190.58,190.58,0,0,1-51.58,66.19Q2293,1925.93,2178,1931a150.46,150.46,0,0,0,22.8,66.88q19.54,31.33,51.57,54.6t73.3,36.4q41.25,13.11,87.95,13.12H2431Zm-35-394a286.62,286.62,0,0,0-81.89,16.59q-38.51,14-67.78,37a191.59,191.59,0,0,0-47.19,53.18A152.84,152.84,0,0,0,2178,1905q53.13-2.54,93.26-17.86t66.71-38.7a171.5,171.5,0,0,0,41.22-53.17A163.48,163.48,0,0,0,2396,1734Z"/><path class="cls-1" d="M2485.59,2128V1596h34v532Z"/><path class="cls-1" d="M2861.37,2128h-16.31q-56.54,0-106-16.52t-85.88-44.89q-36.42-28.38-57.62-66.92a169.06,169.06,0,0,1,0-163.9q21.18-38.12,57.62-66.93t85.88-45.32q49.46-16.5,106-16.52h16.31Zm-34-395a275.69,275.69,0,0,0-85.65,18.25q-40.12,15.7-69.93,40.28a181.59,181.59,0,0,0-46.62,57.27,149.06,149.06,0,0,0-16.8,69.12,146.52,146.52,0,0,0,16.8,68.72q16.8,32.25,46.62,57.27t69.93,40.28a283.3,283.3,0,0,0,85.65,17.81Z"/><path class="cls-1" d="M3200.58,2128h-16.31q-56.54,0-106-16.52t-85.88-44.89q-36.42-28.38-57.62-66.92a169.06,169.06,0,0,1,0-163.9q21.18-38.12,57.62-66.93t85.88-45.32q49.45-16.5,106-16.52h16.31Zm-34-395a275.69,275.69,0,0,0-85.65,18.25q-40.12,15.7-69.93,40.28a181.59,181.59,0,0,0-46.62,57.27,149.06,149.06,0,0,0-16.8,69.12,146.52,146.52,0,0,0,16.8,68.72q16.8,32.25,46.62,57.27t69.93,40.28a283.3,283.3,0,0,0,85.65,17.81Z"/><path class="cls-1" d="M3152.14,532h-17.39V506h17.38q46.68,0,87.95-13.12t73.3-36.4q32-23.26,51.58-54.6A150.81,150.81,0,0,0,3387.75,335h-253V322.27a167,167,0,0,1,21.19-82.3q21.2-38.17,58.14-67t86.41-45.39Q3349.95,111,3405.36,111h17.39v26h-17.37q-46.7,0-88,13.2t-73.29,36.61q-32,23.44-51.58,54.92a152.16,152.16,0,0,0-22.8,67.27h253v13.52a166.41,166.41,0,0,1-21.2,81.51q-21.2,38.45-58.14,66.74T3257,515.53Q3207.57,532,3152.14,532Z"/><path class="cls-1" d="M3765.13,532h-17.39q-54.37,0-101.66-15.22t-83.7-41.84q-36.42-26.62-58.7-62.58A170.07,170.07,0,0,1,3478.13,335V309a171.59,171.59,0,0,1,25.55-77.75q22.26-36.12,58.7-62.89t83.7-42.06q47.3-15.28,101.66-15.3h17.39v12.73q0,44.11-17.92,82.3a190.58,190.58,0,0,1-51.58,66.19q-68.41,57.7-183.5,62.78a150.7,150.7,0,0,0,22.8,66.88q19.55,31.33,51.57,54.6t73.3,36.4Q3701.05,506,3747.75,506h17.38Zm-35-394a286.69,286.69,0,0,0-81.89,16.59q-38.5,14-67.78,37a191.59,191.59,0,0,0-47.19,53.18A153,153,0,0,0,3512.13,309q53.13-2.53,93.27-17.86t66.7-38.7a171.5,171.5,0,0,0,41.22-53.17A163.48,163.48,0,0,0,3730.13,138Z"/><path class="cls-1" d="M3819.76,532V0h34V532Z"/><path class="cls-1" d="M4195.54,532h-16.31q-56.53,0-106-16.52t-85.87-44.89q-36.43-28.38-57.63-66.92a169.06,169.06,0,0,1,0-163.9q21.2-38.11,57.63-66.93t85.87-45.32q49.45-16.5,106-16.52h16.31Zm-34-395a275.69,275.69,0,0,0-85.65,18.25Q4035.77,171,4006,195.53a181.49,181.49,0,0,0-46.63,57.27,149.06,149.06,0,0,0-16.8,69.12,146.52,146.52,0,0,0,16.8,68.72q16.8,32.25,46.63,57.27t69.92,40.28A283.3,283.3,0,0,0,4161.54,506Z"/><path class="cls-1" d="M4534.75,532h-16.31q-56.53,0-106-16.52t-85.87-44.89q-36.43-28.38-57.63-66.92a169.06,169.06,0,0,1,0-163.9q21.2-38.11,57.63-66.93t85.87-45.32q49.46-16.5,106-16.52h16.31Zm-34-395a275.69,275.69,0,0,0-85.65,18.25Q4375,171,4345.18,195.53a181.49,181.49,0,0,0-46.63,57.27,149.06,149.06,0,0,0-16.8,69.12,146.52,146.52,0,0,0,16.8,68.72q16.8,32.25,46.63,57.27t69.92,40.28A283.3,283.3,0,0,0,4500.75,506Z"/><path class="cls-1" d="M3369.43,1064H3352v-26h17.38q46.68,0,87.95-13.12t73.3-36.4q32-23.26,51.58-54.6A150.81,150.81,0,0,0,3605,867H3352V854.27a167,167,0,0,1,21.19-82.3q21.2-38.18,58.14-67t86.41-45.39Q3567.23,643,3622.65,643H3640v26h-17.37q-46.7,0-88,13.2t-73.29,36.61q-32,23.45-51.58,54.92A152.16,152.16,0,0,0,3387,841h253v13.52a166.41,166.41,0,0,1-21.2,81.51q-21.2,38.44-58.14,66.74t-86.39,44.76Q3424.86,1064,3369.43,1064Z"/><path class="cls-1" d="M3982.42,1064H3965q-54.37,0-101.66-15.22t-83.7-41.84q-36.42-26.62-58.7-62.58A170.07,170.07,0,0,1,3695.42,867V841A171.59,171.59,0,0,1,3721,763.25q22.26-36.12,58.7-62.89t83.7-42.06Q3910.67,643,3965,643h17.39v12.73q0,44.12-17.92,82.3a190.58,190.58,0,0,1-51.58,66.19q-68.41,57.71-183.5,62.78a150.7,150.7,0,0,0,22.8,66.88q19.55,31.33,51.57,54.6t73.3,36.4Q3918.34,1038,3965,1038h17.38Zm-35-394a286.69,286.69,0,0,0-81.89,16.59q-38.51,14-67.78,37a191.59,191.59,0,0,0-47.19,53.18A153,153,0,0,0,3729.42,841q53.13-2.54,93.27-17.86t66.7-38.7a171.5,171.5,0,0,0,41.22-53.17A163.48,163.48,0,0,0,3947.42,670Z"/><path class="cls-1" d="M4037.05,1064V532h34v532Z"/><path class="cls-1" d="M4412.83,1064h-16.31q-56.54,0-106-16.52t-85.87-44.89q-36.43-28.38-57.63-66.92a169.06,169.06,0,0,1,0-163.9q21.19-38.12,57.63-66.93t85.87-45.32Q4340,643,4396.52,643h16.31Zm-34-395a275.69,275.69,0,0,0-85.65,18.25q-40.12,15.71-69.92,40.28a181.49,181.49,0,0,0-46.63,57.27,149.06,149.06,0,0,0-16.8,69.12,146.52,146.52,0,0,0,16.8,68.72q16.8,32.25,46.63,57.27t69.92,40.28a283.3,283.3,0,0,0,85.65,17.81Z"/><path class="cls-1" d="M4752,1064h-16.31q-56.53,0-106-16.52t-85.87-44.89q-36.42-28.38-57.63-66.92a169.06,169.06,0,0,1,0-163.9q21.19-38.12,57.63-66.93t85.87-45.32q49.45-16.5,106-16.52H4752Zm-34-395a275.69,275.69,0,0,0-85.65,18.25q-40.12,15.71-69.92,40.28a181.49,181.49,0,0,0-46.63,57.27,149.06,149.06,0,0,0-16.8,69.12,146.52,146.52,0,0,0,16.8,68.72q16.8,32.25,46.63,57.27t69.92,40.28A283.3,283.3,0,0,0,4718,1038Z"/><path class="cls-1" d="M4735.43,532H4718V506h17.38q46.68,0,87.95-13.12t73.3-36.4q32-23.26,51.58-54.6A150.81,150.81,0,0,0,4971,335H4718V322.27a167,167,0,0,1,21.19-82.3q21.19-38.17,58.14-67t86.41-45.39Q4933.24,111,4988.65,111H5006v26h-17.37q-46.69,0-87.95,13.2t-73.3,36.61q-32,23.44-51.58,54.92A152.16,152.16,0,0,0,4753,309h253v13.52a166.3,166.3,0,0,1-21.2,81.51q-21.18,38.45-58.14,66.74t-86.39,44.76Q4790.85,532,4735.43,532Z"/><path class="cls-1" d="M5348.42,532H5331q-54.37,0-101.66-15.22t-83.7-41.84q-36.42-26.62-58.7-62.58A170.07,170.07,0,0,1,5061.42,335V309A171.59,171.59,0,0,1,5087,231.25q22.26-36.12,58.7-62.89t83.7-42.06Q5276.68,111,5331,111h17.39v12.73q0,44.11-17.92,82.3a190.58,190.58,0,0,1-51.58,66.19q-68.41,57.7-183.5,62.78a150.7,150.7,0,0,0,22.8,66.88q19.54,31.33,51.58,54.6t73.29,36.4q41.25,13.11,88,13.12h17.37Zm-35-394a286.69,286.69,0,0,0-81.89,16.59q-38.51,14-67.78,37a191.59,191.59,0,0,0-47.19,53.18A153,153,0,0,0,5095.42,309q53.13-2.53,93.27-17.86t66.7-38.7a171.5,171.5,0,0,0,41.22-53.17A163.48,163.48,0,0,0,5313.42,138Z"/><path class="cls-1" d="M5403.06,532V0h34V532Z"/><path class="cls-1" d="M5778.83,532h-16.31q-56.54,0-106-16.52t-85.87-44.89q-36.42-28.38-57.63-66.92a169.06,169.06,0,0,1,0-163.9q21.19-38.11,57.63-66.93t85.87-45.32Q5706,111,5762.52,111h16.31Zm-34-395a275.75,275.75,0,0,0-85.65,18.25q-40.12,15.7-69.92,40.28a181.49,181.49,0,0,0-46.63,57.27,149.06,149.06,0,0,0-16.8,69.12,146.52,146.52,0,0,0,16.8,68.72q16.8,32.25,46.63,57.27t69.92,40.28A283.36,283.36,0,0,0,5744.83,506Z"/><path class="cls-1" d="M6118,532h-16.31q-56.53,0-106-16.52t-85.87-44.89q-36.42-28.38-57.63-66.92a169.06,169.06,0,0,1,0-163.9q21.19-38.11,57.63-66.93t85.87-45.32q49.45-16.5,106-16.52H6118Zm-34-395a275.75,275.75,0,0,0-85.65,18.25q-40.12,15.7-69.92,40.28a181.49,181.49,0,0,0-46.63,57.27,149.06,149.06,0,0,0-16.8,69.12,146.52,146.52,0,0,0,16.8,68.72q16.8,32.25,46.63,57.27t69.92,40.28A283.36,283.36,0,0,0,6084,506Z"/><path class="cls-1" d="M4952.72,1064h-17.39v-26h17.38q46.68,0,87.95-13.12t73.3-36.4q32-23.26,51.58-54.6A150.81,150.81,0,0,0,5188.33,867h-253V854.27a167,167,0,0,1,21.19-82.3q21.19-38.18,58.14-67t86.41-45.39Q5150.52,643,5205.94,643h17.39v26H5206q-46.7,0-87.95,13.2t-73.3,36.61q-32,23.45-51.58,54.92a152.16,152.16,0,0,0-22.8,67.27h253v13.52a166.3,166.3,0,0,1-21.2,81.51Q5181,974.47,5144,1002.77t-86.39,44.76Q5008.15,1064,4952.72,1064Z"/><path class="cls-1" d="M5565.71,1064h-17.39q-54.37,0-101.66-15.22t-83.7-41.84q-36.42-26.62-58.7-62.58A170.07,170.07,0,0,1,5278.71,867V841a171.59,171.59,0,0,1,25.55-77.75q22.26-36.12,58.7-62.89t83.7-42.06Q5494,643,5548.32,643h17.39v12.73q0,44.12-17.92,82.3a190.58,190.58,0,0,1-51.58,66.19q-68.41,57.71-183.5,62.78a150.7,150.7,0,0,0,22.8,66.88q19.55,31.33,51.58,54.6t73.29,36.4q41.25,13.11,88,13.12h17.37Zm-35-394a286.69,286.69,0,0,0-81.89,16.59q-38.51,14-67.78,37a191.59,191.59,0,0,0-47.19,53.18A153,153,0,0,0,5312.71,841q53.13-2.54,93.27-17.86t66.7-38.7a171.5,171.5,0,0,0,41.22-53.17A163.48,163.48,0,0,0,5530.71,670Z"/><path class="cls-1" d="M5620.35,1064V532h34v532Z"/><path class="cls-1" d="M5996.12,1064h-16.31q-56.54,0-106-16.52t-85.87-44.89q-36.42-28.38-57.63-66.92a169.06,169.06,0,0,1,0-163.9q21.19-38.12,57.63-66.93t85.87-45.32q49.45-16.5,106-16.52h16.31Zm-34-395a275.75,275.75,0,0,0-85.65,18.25q-40.12,15.71-69.92,40.28a181.49,181.49,0,0,0-46.63,57.27,149.06,149.06,0,0,0-16.8,69.12,146.52,146.52,0,0,0,16.8,68.72q16.8,32.25,46.63,57.27t69.92,40.28a283.36,283.36,0,0,0,85.65,17.81Z"/><path class="cls-1" d="M6335.34,1064H6319q-56.52,0-106-16.52t-85.87-44.89q-36.42-28.38-57.63-66.92a169.13,169.13,0,0,1,0-163.9q21.19-38.12,57.63-66.93T6213,659.52Q6262.48,643,6319,643h16.32Zm-34-395a275.75,275.75,0,0,0-85.66,18.25q-40.12,15.71-69.92,40.28a181.63,181.63,0,0,0-46.63,57.27,149.05,149.05,0,0,0-16.79,69.12,146.51,146.51,0,0,0,16.79,68.72q16.81,32.25,46.63,57.27t69.92,40.28a283.36,283.36,0,0,0,85.66,17.81Z"/><path class="cls-1" d="M3152.14,1596h-17.39v-26h17.38q46.68,0,87.95-13.12t73.3-36.4q32-23.26,51.58-54.6a150.81,150.81,0,0,0,22.79-66.88h-253v-12.73a167,167,0,0,1,21.19-82.3q21.2-38.17,58.14-67t86.41-45.39q49.46-16.54,104.87-16.55h17.39v26h-17.37q-46.7,0-88,13.2t-73.29,36.61q-32,23.45-51.58,54.92a152.16,152.16,0,0,0-22.8,67.27h253v13.52a166.41,166.41,0,0,1-21.2,81.51q-21.2,38.45-58.14,66.74T3257,1579.53Q3207.57,1596,3152.14,1596Z"/><path class="cls-1" d="M3765.13,1596h-17.39q-54.37,0-101.66-15.22t-83.7-41.84q-36.42-26.62-58.7-62.58a170.07,170.07,0,0,1-25.55-77.36v-26a171.59,171.59,0,0,1,25.55-77.75q22.26-36.12,58.7-62.89t83.7-42.06q47.3-15.29,101.66-15.3h17.39v12.73q0,44.12-17.92,82.3a190.58,190.58,0,0,1-51.58,66.19q-68.41,57.71-183.5,62.78a150.7,150.7,0,0,0,22.8,66.88q19.55,31.33,51.57,54.6t73.3,36.4q41.25,13.11,87.95,13.12h17.38Zm-35-394a286.69,286.69,0,0,0-81.89,16.59q-38.5,14-67.78,37a191.59,191.59,0,0,0-47.19,53.18,153,153,0,0,0-21.14,64.23q53.13-2.54,93.27-17.86t66.7-38.7a171.5,171.5,0,0,0,41.22-53.17A163.48,163.48,0,0,0,3730.13,1202Z"/><path class="cls-1" d="M3819.76,1596V1064h34v532Z"/><path class="cls-1" d="M4195.54,1596h-16.31q-56.53,0-106-16.52t-85.87-44.89q-36.43-28.38-57.63-66.92a169.06,169.06,0,0,1,0-163.9q21.2-38.12,57.63-66.93t85.87-45.32q49.45-16.5,106-16.52h16.31Zm-34-395a275.69,275.69,0,0,0-85.65,18.25q-40.12,15.7-69.92,40.28a181.49,181.49,0,0,0-46.63,57.27,149.06,149.06,0,0,0-16.8,69.12,146.52,146.52,0,0,0,16.8,68.72q16.8,32.25,46.63,57.27t69.92,40.28a283.3,283.3,0,0,0,85.65,17.81Z"/><path class="cls-1" d="M4534.75,1596h-16.31q-56.53,0-106-16.52t-85.87-44.89q-36.43-28.38-57.63-66.92a169.06,169.06,0,0,1,0-163.9q21.2-38.12,57.63-66.93t85.87-45.32q49.46-16.5,106-16.52h16.31Zm-34-395a275.69,275.69,0,0,0-85.65,18.25q-40.12,15.7-69.92,40.28a181.49,181.49,0,0,0-46.63,57.27,149.06,149.06,0,0,0-16.8,69.12,146.52,146.52,0,0,0,16.8,68.72q16.8,32.25,46.63,57.27t69.92,40.28a283.3,283.3,0,0,0,85.65,17.81Z"/><path class="cls-1" d="M3369.43,2128H3352v-26h17.38q46.68,0,87.95-13.12t73.3-36.4q32-23.26,51.58-54.6A150.81,150.81,0,0,0,3605,1931H3352v-12.73a167,167,0,0,1,21.19-82.3q21.2-38.17,58.14-67t86.41-45.39q49.45-16.54,104.87-16.55H3640v26h-17.37q-46.7,0-88,13.2t-73.29,36.61q-32,23.45-51.58,54.92A152.16,152.16,0,0,0,3387,1905h253v13.52a166.41,166.41,0,0,1-21.2,81.51q-21.2,38.45-58.14,66.74t-86.39,44.76Q3424.86,2128,3369.43,2128Z"/><path class="cls-1" d="M3982.42,2128H3965q-54.37,0-101.66-15.22t-83.7-41.84q-36.42-26.62-58.7-62.58a170.07,170.07,0,0,1-25.55-77.36v-26a171.59,171.59,0,0,1,25.55-77.75q22.26-36.12,58.7-62.89t83.7-42.06Q3910.67,1707,3965,1707h17.39v12.73q0,44.12-17.92,82.3a190.58,190.58,0,0,1-51.58,66.19q-68.41,57.71-183.5,62.78a150.7,150.7,0,0,0,22.8,66.88q19.55,31.33,51.57,54.6t73.3,36.4Q3918.34,2102,3965,2102h17.38Zm-35-394a286.69,286.69,0,0,0-81.89,16.59q-38.51,14-67.78,37a191.59,191.59,0,0,0-47.19,53.18,153,153,0,0,0-21.14,64.23q53.13-2.54,93.27-17.86t66.7-38.7a171.5,171.5,0,0,0,41.22-53.17A163.48,163.48,0,0,0,3947.42,1734Z"/><path class="cls-1" d="M4037.05,2128V1596h34v532Z"/><path class="cls-1" d="M4412.83,2128h-16.31q-56.54,0-106-16.52t-85.87-44.89q-36.43-28.38-57.63-66.92a169.06,169.06,0,0,1,0-163.9q21.19-38.12,57.63-66.93t85.87-45.32q49.45-16.5,106-16.52h16.31Zm-34-395a275.69,275.69,0,0,0-85.65,18.25q-40.12,15.7-69.92,40.28a181.49,181.49,0,0,0-46.63,57.27,149.06,149.06,0,0,0-16.8,69.12,146.52,146.52,0,0,0,16.8,68.72q16.8,32.25,46.63,57.27t69.92,40.28a283.3,283.3,0,0,0,85.65,17.81Z"/><path class="cls-1" d="M4752,2128h-16.31q-56.53,0-106-16.52t-85.87-44.89q-36.42-28.38-57.63-66.92a169.06,169.06,0,0,1,0-163.9q21.19-38.12,57.63-66.93t85.87-45.32q49.45-16.5,106-16.52H4752Zm-34-395a275.69,275.69,0,0,0-85.65,18.25q-40.12,15.7-69.92,40.28a181.49,181.49,0,0,0-46.63,57.27,149.06,149.06,0,0,0-16.8,69.12,146.52,146.52,0,0,0,16.8,68.72q16.8,32.25,46.63,57.27t69.92,40.28A283.3,283.3,0,0,0,4718,2102Z"/><path class="cls-1" d="M4735.43,1596H4718v-26h17.38q46.68,0,87.95-13.12t73.3-36.4q32-23.26,51.58-54.6A150.81,150.81,0,0,0,4971,1399H4718v-12.73a167,167,0,0,1,21.19-82.3q21.19-38.17,58.14-67t86.41-45.39q49.46-16.54,104.87-16.55H5006v26h-17.37q-46.69,0-87.95,13.2t-73.3,36.61q-32,23.45-51.58,54.92A152.16,152.16,0,0,0,4753,1373h253v13.52a166.3,166.3,0,0,1-21.2,81.51q-21.18,38.45-58.14,66.74t-86.39,44.76Q4790.85,1596,4735.43,1596Z"/><path class="cls-1" d="M5348.42,1596H5331q-54.37,0-101.66-15.22t-83.7-41.84q-36.42-26.62-58.7-62.58a170.07,170.07,0,0,1-25.55-77.36v-26a171.59,171.59,0,0,1,25.55-77.75q22.26-36.12,58.7-62.89t83.7-42.06Q5276.68,1175,5331,1175h17.39v12.73q0,44.12-17.92,82.3a190.58,190.58,0,0,1-51.58,66.19q-68.41,57.71-183.5,62.78a150.7,150.7,0,0,0,22.8,66.88q19.54,31.33,51.58,54.6t73.29,36.4q41.25,13.11,88,13.12h17.37Zm-35-394a286.69,286.69,0,0,0-81.89,16.59q-38.51,14-67.78,37a191.59,191.59,0,0,0-47.19,53.18,153,153,0,0,0-21.14,64.23q53.13-2.54,93.27-17.86t66.7-38.7a171.5,171.5,0,0,0,41.22-53.17A163.48,163.48,0,0,0,5313.42,1202Z"/><path class="cls-1" d="M5403.06,1596V1064h34v532Z"/><path class="cls-1" d="M5778.83,1596h-16.31q-56.54,0-106-16.52t-85.87-44.89q-36.42-28.38-57.63-66.92a169.06,169.06,0,0,1,0-163.9q21.19-38.12,57.63-66.93t85.87-45.32q49.45-16.5,106-16.52h16.31Zm-34-395a275.75,275.75,0,0,0-85.65,18.25q-40.12,15.7-69.92,40.28a181.49,181.49,0,0,0-46.63,57.27,149.06,149.06,0,0,0-16.8,69.12,146.52,146.52,0,0,0,16.8,68.72q16.8,32.25,46.63,57.27t69.92,40.28a283.36,283.36,0,0,0,85.65,17.81Z"/><path class="cls-1" d="M6118,1596h-16.31q-56.53,0-106-16.52t-85.87-44.89q-36.42-28.38-57.63-66.92a169.06,169.06,0,0,1,0-163.9q21.19-38.12,57.63-66.93t85.87-45.32q49.45-16.5,106-16.52H6118Zm-34-395a275.75,275.75,0,0,0-85.65,18.25q-40.12,15.7-69.92,40.28a181.49,181.49,0,0,0-46.63,57.27,149.06,149.06,0,0,0-16.8,69.12,146.52,146.52,0,0,0,16.8,68.72q16.8,32.25,46.63,57.27t69.92,40.28A283.36,283.36,0,0,0,6084,1570Z"/><path class="cls-1" d="M4952.72,2128h-17.39v-26h17.38q46.68,0,87.95-13.12t73.3-36.4q32-23.26,51.58-54.6a150.81,150.81,0,0,0,22.79-66.88h-253v-12.73a167,167,0,0,1,21.19-82.3q21.19-38.17,58.14-67t86.41-45.39q49.45-16.54,104.87-16.55h17.39v26H5206q-46.7,0-87.95,13.2t-73.3,36.61q-32,23.45-51.58,54.92a152.16,152.16,0,0,0-22.8,67.27h253v13.52a166.3,166.3,0,0,1-21.2,81.51q-21.18,38.45-58.14,66.74t-86.39,44.76Q5008.15,2128,4952.72,2128Z"/><path class="cls-1" d="M5565.71,2128h-17.39q-54.37,0-101.66-15.22t-83.7-41.84q-36.42-26.62-58.7-62.58a170.07,170.07,0,0,1-25.55-77.36v-26a171.59,171.59,0,0,1,25.55-77.75q22.26-36.12,58.7-62.89t83.7-42.06Q5494,1707,5548.32,1707h17.39v12.73q0,44.12-17.92,82.3a190.58,190.58,0,0,1-51.58,66.19q-68.41,57.71-183.5,62.78a150.7,150.7,0,0,0,22.8,66.88q19.55,31.33,51.58,54.6t73.29,36.4q41.25,13.11,88,13.12h17.37Zm-35-394a286.69,286.69,0,0,0-81.89,16.59q-38.51,14-67.78,37a191.59,191.59,0,0,0-47.19,53.18,153,153,0,0,0-21.14,64.23q53.13-2.54,93.27-17.86t66.7-38.7a171.5,171.5,0,0,0,41.22-53.17A163.48,163.48,0,0,0,5530.71,1734Z"/><path class="cls-1" d="M5620.35,2128V1596h34v532Z"/><path class="cls-1" d="M5996.12,2128h-16.31q-56.54,0-106-16.52t-85.87-44.89q-36.42-28.38-57.63-66.92a169.06,169.06,0,0,1,0-163.9q21.19-38.12,57.63-66.93t85.87-45.32q49.45-16.5,106-16.52h16.31Zm-34-395a275.75,275.75,0,0,0-85.65,18.25q-40.12,15.7-69.92,40.28a181.49,181.49,0,0,0-46.63,57.27,149.06,149.06,0,0,0-16.8,69.12,146.52,146.52,0,0,0,16.8,68.72q16.8,32.25,46.63,57.27t69.92,40.28a283.36,283.36,0,0,0,85.65,17.81Z"/><path class="cls-1" d="M6335.34,2128H6319q-56.52,0-106-16.52t-85.87-44.89q-36.42-28.38-57.63-66.92a169.13,169.13,0,0,1,0-163.9q21.19-38.12,57.63-66.93t85.87-45.32q49.45-16.5,106-16.52h16.32Zm-34-395a275.75,275.75,0,0,0-85.66,18.25q-40.12,15.7-69.92,40.28a181.63,181.63,0,0,0-46.63,57.27,149.05,149.05,0,0,0-16.79,69.12,146.51,146.51,0,0,0,16.79,68.72q16.81,32.25,46.63,57.27t69.92,40.28a283.36,283.36,0,0,0,85.66,17.81Z"/><path class="cls-1" d="M17.39,2660H0v-26H17.38q46.68,0,88-13.13t73.29-36.39q32-23.27,51.58-54.61A150.75,150.75,0,0,0,253,2463H0v-12.73A166.9,166.9,0,0,1,21.19,2368q21.18-38.17,58.14-67t86.4-45.39Q215.19,2239,270.61,2239H288v26H270.63q-46.69,0-88,13.2t-73.29,36.61q-32,23.45-51.58,54.92A152.16,152.16,0,0,0,35,2437H288v13.52A166.41,166.41,0,0,1,266.8,2532q-21.2,38.44-58.14,66.74t-86.39,44.76Q72.82,2660,17.39,2660Z"/><path class="cls-1" d="M630.38,2660H613q-54.37,0-101.66-15.22t-83.7-41.84q-36.42-26.62-58.71-62.58A170.06,170.06,0,0,1,343.38,2463v-26a171.58,171.58,0,0,1,25.54-77.75q22.27-36.12,58.71-62.89t83.7-42.06Q558.63,2239,613,2239h17.39v12.73q0,44.11-17.93,82.3a190.55,190.55,0,0,1-51.57,66.19q-68.42,57.71-183.5,62.78a150.48,150.48,0,0,0,22.79,66.87q19.54,31.35,51.58,54.61t73.3,36.39Q566.3,2634,613,2634h17.38Zm-35-394a286.62,286.62,0,0,0-81.89,16.59q-38.52,14-67.79,37a191.4,191.4,0,0,0-47.18,53.18A152.84,152.84,0,0,0,377.38,2437q53.13-2.53,93.26-17.86t66.71-38.7q26.56-23.4,41.21-53.17A163.68,163.68,0,0,0,595.38,2266Z"/><path class="cls-1" d="M685,2660V2128h34v532Z"/><path class="cls-1" d="M1060.79,2660h-16.31q-56.54,0-106-16.52t-85.88-44.89q-36.42-28.38-57.62-66.92a169.06,169.06,0,0,1,0-163.9q21.18-38.11,57.62-66.93t85.88-45.32q49.46-16.5,106-16.52h16.31Zm-34-395a275.75,275.75,0,0,0-85.66,18.25Q901,2299,871.21,2323.53a181.59,181.59,0,0,0-46.62,57.27,148.94,148.94,0,0,0-16.8,69.12,146.4,146.4,0,0,0,16.8,68.72q16.8,32.25,46.62,57.27t69.92,40.28a283.67,283.67,0,0,0,85.66,17.81Z"/><path class="cls-1" d="M1400,2660h-16.31q-56.54,0-106-16.52t-85.88-44.89q-36.42-28.38-57.62-66.92a169.06,169.06,0,0,1,0-163.9q21.18-38.11,57.62-66.93t85.88-45.32q49.45-16.5,106-16.52H1400Zm-34-395a275.75,275.75,0,0,0-85.66,18.25q-40.12,15.7-69.92,40.28a181.59,181.59,0,0,0-46.62,57.27,148.94,148.94,0,0,0-16.8,69.12,146.4,146.4,0,0,0,16.8,68.72q16.8,32.25,46.62,57.27t69.92,40.28A283.67,283.67,0,0,0,1366,2634Z"/><path class="cls-1" d="M234.68,3192H217.29v-26h17.38q46.68,0,88-13.13t73.3-36.39q32-23.27,51.57-54.61a150.75,150.75,0,0,0,22.8-66.87h-253v-12.73a166.9,166.9,0,0,1,21.19-82.3q21.18-38.17,58.14-67t86.4-45.39Q432.48,2771,487.9,2771h17.39v26H487.92q-46.69,0-88,13.2t-73.29,36.61q-32,23.45-51.58,54.92a152.16,152.16,0,0,0-22.8,67.27h253v13.52a166.41,166.41,0,0,1-21.2,81.51q-21.19,38.44-58.14,66.74t-86.39,44.76Q290.1,3192,234.68,3192Z"/><path class="cls-1" d="M847.67,3192H830.28q-54.37,0-101.66-15.22t-83.7-41.84q-36.42-26.62-58.71-62.58A170.06,170.06,0,0,1,560.67,2995v-26a171.58,171.58,0,0,1,25.54-77.75q22.27-36.12,58.71-62.89t83.7-42.06Q775.92,2771,830.28,2771h17.39v12.73q0,44.11-17.92,82.3a190.69,190.69,0,0,1-51.58,66.19q-68.42,57.71-183.5,62.78a150.48,150.48,0,0,0,22.79,66.87Q637,3093.22,669,3116.48t73.3,36.39Q783.59,3166,830.29,3166h17.38Zm-35-394a286.62,286.62,0,0,0-81.89,16.59q-38.52,14-67.78,37a191.43,191.43,0,0,0-47.19,53.18A152.84,152.84,0,0,0,594.67,2969q53.13-2.53,93.26-17.86t66.71-38.7q26.57-23.4,41.21-53.17A163.68,163.68,0,0,0,812.67,2798Z"/><path class="cls-1" d="M902.3,3192V2660h34v532Z"/><path class="cls-1" d="M1278.08,3192h-16.31q-56.54,0-106-16.52t-85.88-44.89q-36.42-28.38-57.62-66.92a169.06,169.06,0,0,1,0-163.9q21.18-38.11,57.62-66.93t85.88-45.32q49.45-16.5,106-16.52h16.31Zm-34-395a275.75,275.75,0,0,0-85.66,18.25q-40.12,15.7-69.92,40.28a181.59,181.59,0,0,0-46.62,57.27,148.94,148.94,0,0,0-16.8,69.12,146.4,146.4,0,0,0,16.8,68.72q16.8,32.25,46.62,57.27t69.92,40.28a283.67,283.67,0,0,0,85.66,17.81Z"/><path class="cls-1" d="M1617.29,3192H1601q-56.54,0-106-16.52t-85.88-44.89q-36.42-28.38-57.62-66.92a169.06,169.06,0,0,1,0-163.9q21.18-38.11,57.62-66.93t85.88-45.32q49.45-16.5,106-16.52h16.31Zm-34-395a275.75,275.75,0,0,0-85.66,18.25q-40.12,15.7-69.92,40.28a181.59,181.59,0,0,0-46.62,57.27,148.94,148.94,0,0,0-16.8,69.12,146.4,146.4,0,0,0,16.8,68.72q16.8,32.25,46.62,57.27t69.92,40.28a283.67,283.67,0,0,0,85.66,17.81Z"/><path class="cls-1" d="M1600.68,2660h-17.39v-26h17.38q46.68,0,87.95-13.13t73.3-36.39q32-23.27,51.57-54.61a150.62,150.62,0,0,0,22.8-66.87h-253v-12.73a166.9,166.9,0,0,1,21.19-82.3q21.18-38.17,58.14-67t86.41-45.39Q1798.47,2239,1853.9,2239h17.39v26h-17.37q-46.7,0-88,13.2t-73.29,36.61q-32,23.45-51.58,54.92a152.16,152.16,0,0,0-22.8,67.27h253v13.52a166.41,166.41,0,0,1-21.2,81.51q-21.19,38.44-58.14,66.74t-86.39,44.76Q1656.11,2660,1600.68,2660Z"/><path class="cls-1" d="M2213.67,2660h-17.39q-54.37,0-101.66-15.22t-83.7-41.84q-36.42-26.62-58.71-62.58a170.18,170.18,0,0,1-25.54-77.36v-26a171.7,171.7,0,0,1,25.54-77.75q22.27-36.12,58.71-62.89t83.7-42.06q47.3-15.28,101.66-15.3h17.39v12.73q0,44.11-17.92,82.3a190.58,190.58,0,0,1-51.58,66.19q-68.41,57.71-183.5,62.78a150.48,150.48,0,0,0,22.79,66.87q19.56,31.35,51.58,54.61t73.3,36.39q41.25,13.13,87.95,13.13h17.38Zm-35-394a286.62,286.62,0,0,0-81.89,16.59q-38.51,14-67.78,37a191.43,191.43,0,0,0-47.19,53.18,152.84,152.84,0,0,0-21.14,64.23q53.13-2.53,93.26-17.86t66.71-38.7a171.5,171.5,0,0,0,41.22-53.17A163.66,163.66,0,0,0,2178.67,2266Z"/><path class="cls-1" d="M2268.3,2660V2128h34v532Z"/><path class="cls-1" d="M2644.08,2660h-16.31q-56.54,0-106-16.52t-85.88-44.89q-36.42-28.38-57.62-66.92a169.06,169.06,0,0,1,0-163.9q21.18-38.11,57.62-66.93t85.88-45.32q49.45-16.5,106-16.52h16.31Zm-34-395a275.69,275.69,0,0,0-85.65,18.25q-40.12,15.7-69.93,40.28a181.59,181.59,0,0,0-46.62,57.27,149.06,149.06,0,0,0-16.8,69.12,146.52,146.52,0,0,0,16.8,68.72q16.8,32.25,46.62,57.27t69.93,40.28a283.6,283.6,0,0,0,85.65,17.81Z"/><path class="cls-1" d="M2983.29,2660H2967q-56.54,0-106-16.52t-85.88-44.89q-36.42-28.38-57.62-66.92a169.06,169.06,0,0,1,0-163.9q21.18-38.11,57.62-66.93t85.88-45.32q49.45-16.5,106-16.52h16.31Zm-34-395a275.69,275.69,0,0,0-85.65,18.25q-40.12,15.7-69.93,40.28a181.59,181.59,0,0,0-46.62,57.27,149.06,149.06,0,0,0-16.8,69.12,146.52,146.52,0,0,0,16.8,68.72q16.8,32.25,46.62,57.27t69.93,40.28a283.6,283.6,0,0,0,85.65,17.81Z"/><path class="cls-1" d="M1818,3192h-17.39v-26H1818q46.68,0,88-13.13t73.3-36.39q32-23.27,51.57-54.61a150.62,150.62,0,0,0,22.8-66.87h-253v-12.73a166.9,166.9,0,0,1,21.19-82.3q21.18-38.17,58.14-67t86.41-45.39q49.44-16.55,104.87-16.55h17.39v26h-17.37q-46.7,0-88,13.2T1910,2846.81q-32,23.45-51.58,54.92a152.16,152.16,0,0,0-22.8,67.27h253v13.52a166.41,166.41,0,0,1-21.2,81.51q-21.2,38.44-58.14,66.74t-86.39,44.76Q1873.4,3192,1818,3192Z"/><path class="cls-1" d="M2431,3192h-17.39q-54.37,0-101.66-15.22t-83.7-41.84q-36.42-26.62-58.7-62.58A170.07,170.07,0,0,1,2144,2995v-26a171.59,171.59,0,0,1,25.55-77.75q22.26-36.12,58.7-62.89t83.7-42.06q47.3-15.28,101.66-15.3H2431v12.73q0,44.11-17.92,82.3a190.58,190.58,0,0,1-51.58,66.19Q2293,2989.93,2178,2995a150.37,150.37,0,0,0,22.8,66.87q19.54,31.35,51.57,54.61t73.3,36.39q41.25,13.13,87.95,13.13H2431Zm-35-394a286.62,286.62,0,0,0-81.89,16.59q-38.51,14-67.78,37a191.59,191.59,0,0,0-47.19,53.18A152.84,152.84,0,0,0,2178,2969q53.13-2.53,93.26-17.86t66.71-38.7a171.5,171.5,0,0,0,41.22-53.17A163.48,163.48,0,0,0,2396,2798Z"/><path class="cls-1" d="M2485.59,3192V2660h34v532Z"/><path class="cls-1" d="M2861.37,3192h-16.31q-56.54,0-106-16.52t-85.88-44.89q-36.42-28.38-57.62-66.92a169.06,169.06,0,0,1,0-163.9q21.18-38.11,57.62-66.93t85.88-45.32q49.46-16.5,106-16.52h16.31Zm-34-395a275.69,275.69,0,0,0-85.65,18.25q-40.12,15.7-69.93,40.28a181.59,181.59,0,0,0-46.62,57.27,149.06,149.06,0,0,0-16.8,69.12,146.52,146.52,0,0,0,16.8,68.72q16.8,32.25,46.62,57.27t69.93,40.28a283.6,283.6,0,0,0,85.65,17.81Z"/><path class="cls-1" d="M3200.58,3192h-16.31q-56.54,0-106-16.52t-85.88-44.89q-36.42-28.38-57.62-66.92a169.06,169.06,0,0,1,0-163.9q21.18-38.11,57.62-66.93t85.88-45.32q49.45-16.5,106-16.52h16.31Zm-34-395a275.69,275.69,0,0,0-85.65,18.25q-40.12,15.7-69.93,40.28a181.59,181.59,0,0,0-46.62,57.27,149.06,149.06,0,0,0-16.8,69.12,146.52,146.52,0,0,0,16.8,68.72q16.8,32.25,46.62,57.27t69.93,40.28a283.6,283.6,0,0,0,85.65,17.81Z"/><path class="cls-1" d="M17.39,3724H0v-26H17.38q46.68,0,88-13.13t73.29-36.39q32-23.27,51.58-54.61A150.75,150.75,0,0,0,253,3527H0v-12.73A166.9,166.9,0,0,1,21.19,3432q21.18-38.17,58.14-67t86.4-45.39Q215.19,3303,270.61,3303H288v26H270.63q-46.69,0-88,13.2t-73.29,36.61q-32,23.45-51.58,54.92A152.16,152.16,0,0,0,35,3501H288v13.52A166.41,166.41,0,0,1,266.8,3596q-21.2,38.44-58.14,66.74t-86.39,44.76Q72.82,3724,17.39,3724Z"/><path class="cls-1" d="M630.38,3724H613q-54.37,0-101.66-15.22t-83.7-41.84q-36.42-26.62-58.71-62.58A170.06,170.06,0,0,1,343.38,3527v-26a171.58,171.58,0,0,1,25.54-77.75q22.27-36.12,58.71-62.89t83.7-42.06Q558.63,3303,613,3303h17.39v12.73q0,44.11-17.93,82.3a190.55,190.55,0,0,1-51.57,66.19q-68.42,57.71-183.5,62.78a150.48,150.48,0,0,0,22.79,66.87q19.54,31.35,51.58,54.61t73.3,36.39Q566.3,3698,613,3698h17.38Zm-35-394a286.62,286.62,0,0,0-81.89,16.59q-38.52,14-67.79,37a191.4,191.4,0,0,0-47.18,53.18A152.84,152.84,0,0,0,377.38,3501q53.13-2.53,93.26-17.86t66.71-38.7q26.56-23.4,41.21-53.17A163.68,163.68,0,0,0,595.38,3330Z"/><path class="cls-1" d="M685,3724V3192h34v532Z"/><path class="cls-1" d="M1060.79,3724h-16.31q-56.54,0-106-16.52t-85.88-44.89q-36.42-28.38-57.62-66.92a169.06,169.06,0,0,1,0-163.9q21.18-38.11,57.62-66.93t85.88-45.32q49.46-16.5,106-16.52h16.31Zm-34-395a275.75,275.75,0,0,0-85.66,18.25Q901,3363,871.21,3387.53a181.59,181.59,0,0,0-46.62,57.27,148.94,148.94,0,0,0-16.8,69.12,146.4,146.4,0,0,0,16.8,68.72q16.8,32.25,46.62,57.27t69.92,40.28a283.67,283.67,0,0,0,85.66,17.81Z"/><path class="cls-1" d="M1400,3724h-16.31q-56.54,0-106-16.52t-85.88-44.89q-36.42-28.38-57.62-66.92a169.06,169.06,0,0,1,0-163.9q21.18-38.11,57.62-66.93t85.88-45.32q49.45-16.5,106-16.52H1400Zm-34-395a275.75,275.75,0,0,0-85.66,18.25q-40.12,15.7-69.92,40.28a181.59,181.59,0,0,0-46.62,57.27,148.94,148.94,0,0,0-16.8,69.12,146.4,146.4,0,0,0,16.8,68.72q16.8,32.25,46.62,57.27t69.92,40.28A283.67,283.67,0,0,0,1366,3698Z"/><path class="cls-1" d="M234.68,4256H217.29v-26h17.38q46.68,0,88-13.13t73.3-36.39q32-23.26,51.57-54.61a150.75,150.75,0,0,0,22.8-66.87h-253v-12.73a166.9,166.9,0,0,1,21.19-82.3q21.18-38.17,58.14-67t86.4-45.39Q432.48,3835,487.9,3835h17.39v26H487.92q-46.69,0-88,13.2t-73.29,36.61q-32,23.45-51.58,54.92a152.16,152.16,0,0,0-22.8,67.27h253v13.52a166.41,166.41,0,0,1-21.2,81.51q-21.19,38.45-58.14,66.74t-86.39,44.76Q290.1,4256,234.68,4256Z"/><path class="cls-1" d="M847.67,4256H830.28q-54.37,0-101.66-15.22t-83.7-41.84q-36.42-26.62-58.71-62.58A170.06,170.06,0,0,1,560.67,4059v-26a171.58,171.58,0,0,1,25.54-77.75q22.27-36.12,58.71-62.89t83.7-42.06Q775.92,3835,830.28,3835h17.39v12.73q0,44.11-17.92,82.3a190.69,190.69,0,0,1-51.58,66.19q-68.42,57.71-183.5,62.78a150.48,150.48,0,0,0,22.79,66.87Q637,4157.22,669,4180.48t73.3,36.39Q783.59,4230,830.29,4230h17.38Zm-35-394a286.62,286.62,0,0,0-81.89,16.59q-38.52,14-67.78,37a191.43,191.43,0,0,0-47.19,53.18A152.84,152.84,0,0,0,594.67,4033q53.13-2.53,93.26-17.86t66.71-38.7q26.57-23.4,41.21-53.17A163.68,163.68,0,0,0,812.67,3862Z"/><path class="cls-1" d="M902.3,4256V3724h34v532Z"/><path class="cls-1" d="M1278.08,4256h-16.31q-56.54,0-106-16.52t-85.88-44.89q-36.42-28.38-57.62-66.92a169.06,169.06,0,0,1,0-163.9q21.18-38.11,57.62-66.93t85.88-45.32q49.45-16.5,106-16.52h16.31Zm-34-395a275.75,275.75,0,0,0-85.66,18.25q-40.12,15.7-69.92,40.28a181.59,181.59,0,0,0-46.62,57.27,148.94,148.94,0,0,0-16.8,69.12,146.4,146.4,0,0,0,16.8,68.72q16.8,32.25,46.62,57.27t69.92,40.28a283.67,283.67,0,0,0,85.66,17.81Z"/><path class="cls-1" d="M1617.29,4256H1601q-56.54,0-106-16.52t-85.88-44.89q-36.42-28.38-57.62-66.92a169.06,169.06,0,0,1,0-163.9q21.18-38.11,57.62-66.93t85.88-45.32q49.45-16.5,106-16.52h16.31Zm-34-395a275.75,275.75,0,0,0-85.66,18.25q-40.12,15.7-69.92,40.28a181.59,181.59,0,0,0-46.62,57.27,148.94,148.94,0,0,0-16.8,69.12,146.4,146.4,0,0,0,16.8,68.72q16.8,32.25,46.62,57.27t69.92,40.28a283.67,283.67,0,0,0,85.66,17.81Z"/><path class="cls-1" d="M1600.68,3724h-17.39v-26h17.38q46.68,0,87.95-13.13t73.3-36.39q32-23.27,51.57-54.61a150.62,150.62,0,0,0,22.8-66.87h-253v-12.73a166.9,166.9,0,0,1,21.19-82.3q21.18-38.17,58.14-67t86.41-45.39Q1798.47,3303,1853.9,3303h17.39v26h-17.37q-46.7,0-88,13.2t-73.29,36.61q-32,23.45-51.58,54.92a152.16,152.16,0,0,0-22.8,67.27h253v13.52a166.41,166.41,0,0,1-21.2,81.51q-21.19,38.44-58.14,66.74t-86.39,44.76Q1656.11,3724,1600.68,3724Z"/><path class="cls-1" d="M2213.67,3724h-17.39q-54.37,0-101.66-15.22t-83.7-41.84q-36.42-26.62-58.71-62.58a170.18,170.18,0,0,1-25.54-77.36v-26a171.7,171.7,0,0,1,25.54-77.75q22.27-36.12,58.71-62.89t83.7-42.06q47.3-15.28,101.66-15.3h17.39v12.73q0,44.11-17.92,82.3a190.58,190.58,0,0,1-51.58,66.19q-68.41,57.71-183.5,62.78a150.48,150.48,0,0,0,22.79,66.87q19.56,31.35,51.58,54.61t73.3,36.39q41.25,13.13,87.95,13.13h17.38Zm-35-394a286.62,286.62,0,0,0-81.89,16.59q-38.51,14-67.78,37a191.43,191.43,0,0,0-47.19,53.18,152.84,152.84,0,0,0-21.14,64.23q53.13-2.53,93.26-17.86t66.71-38.7a171.5,171.5,0,0,0,41.22-53.17A163.66,163.66,0,0,0,2178.67,3330Z"/><path class="cls-1" d="M2268.3,3724V3192h34v532Z"/><path class="cls-1" d="M2644.08,3724h-16.31q-56.54,0-106-16.52t-85.88-44.89q-36.42-28.38-57.62-66.92a169.06,169.06,0,0,1,0-163.9q21.18-38.11,57.62-66.93t85.88-45.32q49.45-16.5,106-16.52h16.31Zm-34-395a275.69,275.69,0,0,0-85.65,18.25q-40.12,15.7-69.93,40.28a181.59,181.59,0,0,0-46.62,57.27,149.06,149.06,0,0,0-16.8,69.12,146.52,146.52,0,0,0,16.8,68.72q16.8,32.25,46.62,57.27t69.93,40.28a283.6,283.6,0,0,0,85.65,17.81Z"/><path class="cls-1" d="M2983.29,3724H2967q-56.54,0-106-16.52t-85.88-44.89q-36.42-28.38-57.62-66.92a169.06,169.06,0,0,1,0-163.9q21.18-38.11,57.62-66.93t85.88-45.32q49.45-16.5,106-16.52h16.31Zm-34-395a275.69,275.69,0,0,0-85.65,18.25q-40.12,15.7-69.93,40.28a181.59,181.59,0,0,0-46.62,57.27,149.06,149.06,0,0,0-16.8,69.12,146.52,146.52,0,0,0,16.8,68.72q16.8,32.25,46.62,57.27t69.93,40.28a283.6,283.6,0,0,0,85.65,17.81Z"/><path class="cls-1" d="M1818,4256h-17.39v-26H1818q46.68,0,88-13.13t73.3-36.39q32-23.26,51.57-54.61a150.62,150.62,0,0,0,22.8-66.87h-253v-12.73a166.9,166.9,0,0,1,21.19-82.3q21.18-38.17,58.14-67t86.41-45.39q49.44-16.55,104.87-16.55h17.39v26h-17.37q-46.7,0-88,13.2T1910,3910.81q-32,23.45-51.58,54.92a152.16,152.16,0,0,0-22.8,67.27h253v13.52a166.41,166.41,0,0,1-21.2,81.51q-21.2,38.45-58.14,66.74t-86.39,44.76Q1873.4,4256,1818,4256Z"/><path class="cls-1" d="M2431,4256h-17.39q-54.37,0-101.66-15.22t-83.7-41.84q-36.42-26.62-58.7-62.58A170.07,170.07,0,0,1,2144,4059v-26a171.59,171.59,0,0,1,25.55-77.75q22.26-36.12,58.7-62.89t83.7-42.06q47.3-15.28,101.66-15.3H2431v12.73q0,44.11-17.92,82.3a190.58,190.58,0,0,1-51.58,66.19Q2293,4053.93,2178,4059a150.37,150.37,0,0,0,22.8,66.87q19.54,31.35,51.57,54.61t73.3,36.39q41.25,13.13,87.95,13.13H2431Zm-35-394a286.62,286.62,0,0,0-81.89,16.59q-38.51,14-67.78,37a191.59,191.59,0,0,0-47.19,53.18A152.84,152.84,0,0,0,2178,4033q53.13-2.53,93.26-17.86t66.71-38.7a171.5,171.5,0,0,0,41.22-53.17A163.48,163.48,0,0,0,2396,3862Z"/><path class="cls-1" d="M2485.59,4256V3724h34v532Z"/><path class="cls-1" d="M2861.37,4256h-16.31q-56.54,0-106-16.52t-85.88-44.89q-36.42-28.38-57.62-66.92a169.06,169.06,0,0,1,0-163.9q21.18-38.11,57.62-66.93t85.88-45.32q49.46-16.5,106-16.52h16.31Zm-34-395a275.69,275.69,0,0,0-85.65,18.25q-40.12,15.7-69.93,40.28a181.59,181.59,0,0,0-46.62,57.27,149.06,149.06,0,0,0-16.8,69.12,146.52,146.52,0,0,0,16.8,68.72q16.8,32.25,46.62,57.27t69.93,40.28a283.6,283.6,0,0,0,85.65,17.81Z"/><path class="cls-1" d="M3200.58,4256h-16.31q-56.54,0-106-16.52t-85.88-44.89q-36.42-28.38-57.62-66.92a169.06,169.06,0,0,1,0-163.9q21.18-38.11,57.62-66.93t85.88-45.32q49.45-16.5,106-16.52h16.31Zm-34-395a275.69,275.69,0,0,0-85.65,18.25q-40.12,15.7-69.93,40.28a181.59,181.59,0,0,0-46.62,57.27,149.06,149.06,0,0,0-16.8,69.12,146.52,146.52,0,0,0,16.8,68.72q16.8,32.25,46.62,57.27t69.93,40.28a283.6,283.6,0,0,0,85.65,17.81Z"/><path class="cls-1" d="M3152.14,2660h-17.39v-26h17.38q46.68,0,87.95-13.13t73.3-36.39q32-23.27,51.58-54.61a150.73,150.73,0,0,0,22.79-66.87h-253v-12.73a167,167,0,0,1,21.19-82.3q21.2-38.17,58.14-67t86.41-45.39q49.46-16.55,104.87-16.55h17.39v26h-17.37q-46.7,0-88,13.2t-73.29,36.61q-32,23.45-51.58,54.92a152.16,152.16,0,0,0-22.8,67.27h253v13.52a166.41,166.41,0,0,1-21.2,81.51q-21.2,38.44-58.14,66.74T3257,2643.53Q3207.57,2660,3152.14,2660Z"/><path class="cls-1" d="M3765.13,2660h-17.39q-54.37,0-101.66-15.22t-83.7-41.84q-36.42-26.62-58.7-62.58a170.07,170.07,0,0,1-25.55-77.36v-26a171.59,171.59,0,0,1,25.55-77.75q22.26-36.12,58.7-62.89t83.7-42.06q47.3-15.28,101.66-15.3h17.39v12.73q0,44.11-17.92,82.3a190.58,190.58,0,0,1-51.58,66.19q-68.41,57.71-183.5,62.78a150.62,150.62,0,0,0,22.8,66.87q19.55,31.35,51.57,54.61t73.3,36.39q41.25,13.13,87.95,13.13h17.38Zm-35-394a286.69,286.69,0,0,0-81.89,16.59q-38.5,14-67.78,37a191.59,191.59,0,0,0-47.19,53.18,153,153,0,0,0-21.14,64.23q53.13-2.53,93.27-17.86t66.7-38.7a171.5,171.5,0,0,0,41.22-53.17A163.48,163.48,0,0,0,3730.13,2266Z"/><path class="cls-1" d="M3819.76,2660V2128h34v532Z"/><path class="cls-1" d="M4195.54,2660h-16.31q-56.53,0-106-16.52t-85.87-44.89q-36.43-28.38-57.63-66.92a169.06,169.06,0,0,1,0-163.9q21.2-38.11,57.63-66.93t85.87-45.32q49.45-16.5,106-16.52h16.31Zm-34-395a275.69,275.69,0,0,0-85.65,18.25q-40.12,15.7-69.92,40.28a181.49,181.49,0,0,0-46.63,57.27,149.06,149.06,0,0,0-16.8,69.12,146.52,146.52,0,0,0,16.8,68.72q16.8,32.25,46.63,57.27t69.92,40.28a283.6,283.6,0,0,0,85.65,17.81Z"/><path class="cls-1" d="M4534.75,2660h-16.31q-56.53,0-106-16.52t-85.87-44.89q-36.43-28.38-57.63-66.92a169.06,169.06,0,0,1,0-163.9q21.2-38.11,57.63-66.93t85.87-45.32q49.46-16.5,106-16.52h16.31Zm-34-395a275.69,275.69,0,0,0-85.65,18.25q-40.12,15.7-69.92,40.28a181.49,181.49,0,0,0-46.63,57.27,149.06,149.06,0,0,0-16.8,69.12,146.52,146.52,0,0,0,16.8,68.72q16.8,32.25,46.63,57.27t69.92,40.28a283.6,283.6,0,0,0,85.65,17.81Z"/><path class="cls-1" d="M3369.43,3192H3352v-26h17.38q46.68,0,87.95-13.13t73.3-36.39q32-23.27,51.58-54.61A150.73,150.73,0,0,0,3605,2995H3352v-12.73a167,167,0,0,1,21.19-82.3q21.2-38.17,58.14-67t86.41-45.39q49.45-16.55,104.87-16.55H3640v26h-17.37q-46.7,0-88,13.2t-73.29,36.61q-32,23.45-51.58,54.92A152.16,152.16,0,0,0,3387,2969h253v13.52a166.41,166.41,0,0,1-21.2,81.51q-21.2,38.44-58.14,66.74t-86.39,44.76Q3424.86,3192,3369.43,3192Z"/><path class="cls-1" d="M3982.42,3192H3965q-54.37,0-101.66-15.22t-83.7-41.84q-36.42-26.62-58.7-62.58a170.07,170.07,0,0,1-25.55-77.36v-26a171.59,171.59,0,0,1,25.55-77.75q22.26-36.12,58.7-62.89t83.7-42.06Q3910.67,2771,3965,2771h17.39v12.73q0,44.11-17.92,82.3a190.58,190.58,0,0,1-51.58,66.19q-68.41,57.71-183.5,62.78a150.62,150.62,0,0,0,22.8,66.87q19.55,31.35,51.57,54.61t73.3,36.39Q3918.34,3166,3965,3166h17.38Zm-35-394a286.69,286.69,0,0,0-81.89,16.59q-38.51,14-67.78,37a191.59,191.59,0,0,0-47.19,53.18,153,153,0,0,0-21.14,64.23q53.13-2.53,93.27-17.86t66.7-38.7a171.5,171.5,0,0,0,41.22-53.17A163.48,163.48,0,0,0,3947.42,2798Z"/><path class="cls-1" d="M4037.05,3192V2660h34v532Z"/><path class="cls-1" d="M4412.83,3192h-16.31q-56.54,0-106-16.52t-85.87-44.89q-36.43-28.38-57.63-66.92a169.06,169.06,0,0,1,0-163.9q21.19-38.11,57.63-66.93t85.87-45.32q49.45-16.5,106-16.52h16.31Zm-34-395a275.69,275.69,0,0,0-85.65,18.25q-40.12,15.7-69.92,40.28a181.49,181.49,0,0,0-46.63,57.27,149.06,149.06,0,0,0-16.8,69.12,146.52,146.52,0,0,0,16.8,68.72q16.8,32.25,46.63,57.27t69.92,40.28a283.6,283.6,0,0,0,85.65,17.81Z"/><path class="cls-1" d="M4752,3192h-16.31q-56.53,0-106-16.52t-85.87-44.89q-36.42-28.38-57.63-66.92a169.06,169.06,0,0,1,0-163.9q21.19-38.11,57.63-66.93t85.87-45.32q49.45-16.5,106-16.52H4752Zm-34-395a275.69,275.69,0,0,0-85.65,18.25q-40.12,15.7-69.92,40.28a181.49,181.49,0,0,0-46.63,57.27,149.06,149.06,0,0,0-16.8,69.12,146.52,146.52,0,0,0,16.8,68.72q16.8,32.25,46.63,57.27t69.92,40.28A283.6,283.6,0,0,0,4718,3166Z"/><path class="cls-1" d="M4735.43,2660H4718v-26h17.38q46.68,0,87.95-13.13t73.3-36.39q32-23.27,51.58-54.61A150.73,150.73,0,0,0,4971,2463H4718v-12.73a167,167,0,0,1,21.19-82.3q21.19-38.17,58.14-67t86.41-45.39q49.46-16.55,104.87-16.55H5006v26h-17.37q-46.69,0-87.95,13.2t-73.3,36.61q-32,23.45-51.58,54.92A152.16,152.16,0,0,0,4753,2437h253v13.52a166.3,166.3,0,0,1-21.2,81.51q-21.18,38.44-58.14,66.74t-86.39,44.76Q4790.85,2660,4735.43,2660Z"/><path class="cls-1" d="M5348.42,2660H5331q-54.37,0-101.66-15.22t-83.7-41.84q-36.42-26.62-58.7-62.58a170.07,170.07,0,0,1-25.55-77.36v-26a171.59,171.59,0,0,1,25.55-77.75q22.26-36.12,58.7-62.89t83.7-42.06Q5276.68,2239,5331,2239h17.39v12.73q0,44.11-17.92,82.3a190.58,190.58,0,0,1-51.58,66.19q-68.41,57.71-183.5,62.78a150.62,150.62,0,0,0,22.8,66.87q19.54,31.35,51.58,54.61t73.29,36.39q41.25,13.13,88,13.13h17.37Zm-35-394a286.69,286.69,0,0,0-81.89,16.59q-38.51,14-67.78,37a191.59,191.59,0,0,0-47.19,53.18,153,153,0,0,0-21.14,64.23q53.13-2.53,93.27-17.86t66.7-38.7a171.5,171.5,0,0,0,41.22-53.17A163.48,163.48,0,0,0,5313.42,2266Z"/><path class="cls-1" d="M5403.06,2660V2128h34v532Z"/><path class="cls-1" d="M5778.83,2660h-16.31q-56.54,0-106-16.52t-85.87-44.89q-36.42-28.38-57.63-66.92a169.06,169.06,0,0,1,0-163.9q21.19-38.11,57.63-66.93t85.87-45.32q49.45-16.5,106-16.52h16.31Zm-34-395a275.75,275.75,0,0,0-85.65,18.25q-40.12,15.7-69.92,40.28a181.49,181.49,0,0,0-46.63,57.27,149.06,149.06,0,0,0-16.8,69.12,146.52,146.52,0,0,0,16.8,68.72q16.8,32.25,46.63,57.27t69.92,40.28a283.67,283.67,0,0,0,85.65,17.81Z"/><path class="cls-1" d="M6118,2660h-16.31q-56.53,0-106-16.52t-85.87-44.89q-36.42-28.38-57.63-66.92a169.06,169.06,0,0,1,0-163.9q21.19-38.11,57.63-66.93t85.87-45.32q49.45-16.5,106-16.52H6118Zm-34-395a275.75,275.75,0,0,0-85.65,18.25q-40.12,15.7-69.92,40.28a181.49,181.49,0,0,0-46.63,57.27,149.06,149.06,0,0,0-16.8,69.12,146.52,146.52,0,0,0,16.8,68.72q16.8,32.25,46.63,57.27t69.92,40.28A283.67,283.67,0,0,0,6084,2634Z"/><path class="cls-1" d="M4952.72,3192h-17.39v-26h17.38q46.68,0,87.95-13.13t73.3-36.39q32-23.27,51.58-54.61a150.73,150.73,0,0,0,22.79-66.87h-253v-12.73a167,167,0,0,1,21.19-82.3q21.19-38.17,58.14-67t86.41-45.39q49.45-16.55,104.87-16.55h17.39v26H5206q-46.7,0-87.95,13.2t-73.3,36.61q-32,23.45-51.58,54.92a152.16,152.16,0,0,0-22.8,67.27h253v13.52a166.3,166.3,0,0,1-21.2,81.51q-21.18,38.44-58.14,66.74t-86.39,44.76Q5008.15,3192,4952.72,3192Z"/><path class="cls-1" d="M5565.71,3192h-17.39q-54.37,0-101.66-15.22t-83.7-41.84q-36.42-26.62-58.7-62.58a170.07,170.07,0,0,1-25.55-77.36v-26a171.59,171.59,0,0,1,25.55-77.75q22.26-36.12,58.7-62.89t83.7-42.06Q5494,2771,5548.32,2771h17.39v12.73q0,44.11-17.92,82.3a190.58,190.58,0,0,1-51.58,66.19q-68.41,57.71-183.5,62.78a150.62,150.62,0,0,0,22.8,66.87q19.55,31.35,51.58,54.61t73.29,36.39q41.25,13.13,88,13.13h17.37Zm-35-394a286.69,286.69,0,0,0-81.89,16.59q-38.51,14-67.78,37a191.59,191.59,0,0,0-47.19,53.18,153,153,0,0,0-21.14,64.23q53.13-2.53,93.27-17.86t66.7-38.7a171.5,171.5,0,0,0,41.22-53.17A163.48,163.48,0,0,0,5530.71,2798Z"/><path class="cls-1" d="M5620.35,3192V2660h34v532Z"/><path class="cls-1" d="M5996.12,3192h-16.31q-56.54,0-106-16.52t-85.87-44.89q-36.42-28.38-57.63-66.92a169.06,169.06,0,0,1,0-163.9q21.19-38.11,57.63-66.93t85.87-45.32q49.45-16.5,106-16.52h16.31Zm-34-395a275.75,275.75,0,0,0-85.65,18.25q-40.12,15.7-69.92,40.28a181.49,181.49,0,0,0-46.63,57.27,149.06,149.06,0,0,0-16.8,69.12,146.52,146.52,0,0,0,16.8,68.72q16.8,32.25,46.63,57.27t69.92,40.28a283.67,283.67,0,0,0,85.65,17.81Z"/><path class="cls-1" d="M6335.34,3192H6319q-56.52,0-106-16.52t-85.87-44.89q-36.42-28.38-57.63-66.92a169.13,169.13,0,0,1,0-163.9q21.19-38.11,57.63-66.93t85.87-45.32q49.45-16.5,106-16.52h16.32Zm-34-395a275.75,275.75,0,0,0-85.66,18.25q-40.12,15.7-69.92,40.28a181.63,181.63,0,0,0-46.63,57.27,149.05,149.05,0,0,0-16.79,69.12,146.51,146.51,0,0,0,16.79,68.72q16.81,32.25,46.63,57.27t69.92,40.28a283.67,283.67,0,0,0,85.66,17.81Z"/><path class="cls-1" d="M3152.14,3724h-17.39v-26h17.38q46.68,0,87.95-13.13t73.3-36.39q32-23.27,51.58-54.61a150.73,150.73,0,0,0,22.79-66.87h-253v-12.73a167,167,0,0,1,21.19-82.3q21.2-38.17,58.14-67t86.41-45.39q49.46-16.55,104.87-16.55h17.39v26h-17.37q-46.7,0-88,13.2t-73.29,36.61q-32,23.45-51.58,54.92a152.16,152.16,0,0,0-22.8,67.27h253v13.52a166.41,166.41,0,0,1-21.2,81.51q-21.2,38.44-58.14,66.74T3257,3707.53Q3207.57,3724,3152.14,3724Z"/><path class="cls-1" d="M3765.13,3724h-17.39q-54.37,0-101.66-15.22t-83.7-41.84q-36.42-26.62-58.7-62.58a170.07,170.07,0,0,1-25.55-77.36v-26a171.59,171.59,0,0,1,25.55-77.75q22.26-36.12,58.7-62.89t83.7-42.06q47.3-15.28,101.66-15.3h17.39v12.73q0,44.11-17.92,82.3a190.58,190.58,0,0,1-51.58,66.19q-68.41,57.71-183.5,62.78a150.62,150.62,0,0,0,22.8,66.87q19.55,31.35,51.57,54.61t73.3,36.39q41.25,13.13,87.95,13.13h17.38Zm-35-394a286.69,286.69,0,0,0-81.89,16.59q-38.5,14-67.78,37a191.59,191.59,0,0,0-47.19,53.18,153,153,0,0,0-21.14,64.23q53.13-2.53,93.27-17.86t66.7-38.7a171.5,171.5,0,0,0,41.22-53.17A163.48,163.48,0,0,0,3730.13,3330Z"/><path class="cls-1" d="M3819.76,3724V3192h34v532Z"/><path class="cls-1" d="M4195.54,3724h-16.31q-56.53,0-106-16.52t-85.87-44.89q-36.43-28.38-57.63-66.92a169.06,169.06,0,0,1,0-163.9q21.2-38.11,57.63-66.93t85.87-45.32q49.45-16.5,106-16.52h16.31Zm-34-395a275.69,275.69,0,0,0-85.65,18.25q-40.12,15.7-69.92,40.28a181.49,181.49,0,0,0-46.63,57.27,149.06,149.06,0,0,0-16.8,69.12,146.52,146.52,0,0,0,16.8,68.72q16.8,32.25,46.63,57.27t69.92,40.28a283.6,283.6,0,0,0,85.65,17.81Z"/><path class="cls-1" d="M4534.75,3724h-16.31q-56.53,0-106-16.52t-85.87-44.89q-36.43-28.38-57.63-66.92a169.06,169.06,0,0,1,0-163.9q21.2-38.11,57.63-66.93t85.87-45.32q49.46-16.5,106-16.52h16.31Zm-34-395a275.69,275.69,0,0,0-85.65,18.25q-40.12,15.7-69.92,40.28a181.49,181.49,0,0,0-46.63,57.27,149.06,149.06,0,0,0-16.8,69.12,146.52,146.52,0,0,0,16.8,68.72q16.8,32.25,46.63,57.27t69.92,40.28a283.6,283.6,0,0,0,85.65,17.81Z"/><path class="cls-1" d="M3369.43,4256H3352v-26h17.38q46.68,0,87.95-13.13t73.3-36.39q32-23.26,51.58-54.61A150.73,150.73,0,0,0,3605,4059H3352v-12.73a167,167,0,0,1,21.19-82.3q21.2-38.17,58.14-67t86.41-45.39q49.45-16.55,104.87-16.55H3640v26h-17.37q-46.7,0-88,13.2t-73.29,36.61q-32,23.45-51.58,54.92A152.16,152.16,0,0,0,3387,4033h253v13.52a166.41,166.41,0,0,1-21.2,81.51q-21.2,38.45-58.14,66.74t-86.39,44.76Q3424.86,4256,3369.43,4256Z"/><path class="cls-1" d="M3982.42,4256H3965q-54.37,0-101.66-15.22t-83.7-41.84q-36.42-26.62-58.7-62.58a170.07,170.07,0,0,1-25.55-77.36v-26a171.59,171.59,0,0,1,25.55-77.75q22.26-36.12,58.7-62.89t83.7-42.06Q3910.67,3835,3965,3835h17.39v12.73q0,44.11-17.92,82.3a190.58,190.58,0,0,1-51.58,66.19q-68.41,57.71-183.5,62.78a150.62,150.62,0,0,0,22.8,66.87q19.55,31.35,51.57,54.61t73.3,36.39Q3918.34,4230,3965,4230h17.38Zm-35-394a286.69,286.69,0,0,0-81.89,16.59q-38.51,14-67.78,37a191.59,191.59,0,0,0-47.19,53.18,153,153,0,0,0-21.14,64.23q53.13-2.53,93.27-17.86t66.7-38.7a171.5,171.5,0,0,0,41.22-53.17A163.48,163.48,0,0,0,3947.42,3862Z"/><path class="cls-1" d="M4037.05,4256V3724h34v532Z"/><path class="cls-1" d="M4412.83,4256h-16.31q-56.54,0-106-16.52t-85.87-44.89q-36.43-28.38-57.63-66.92a169.06,169.06,0,0,1,0-163.9q21.19-38.11,57.63-66.93t85.87-45.32q49.45-16.5,106-16.52h16.31Zm-34-395a275.69,275.69,0,0,0-85.65,18.25q-40.12,15.7-69.92,40.28a181.49,181.49,0,0,0-46.63,57.27,149.06,149.06,0,0,0-16.8,69.12,146.52,146.52,0,0,0,16.8,68.72q16.8,32.25,46.63,57.27t69.92,40.28a283.6,283.6,0,0,0,85.65,17.81Z"/><path class="cls-1" d="M4752,4256h-16.31q-56.53,0-106-16.52t-85.87-44.89q-36.42-28.38-57.63-66.92a169.06,169.06,0,0,1,0-163.9q21.19-38.11,57.63-66.93t85.87-45.32q49.45-16.5,106-16.52H4752Zm-34-395a275.69,275.69,0,0,0-85.65,18.25q-40.12,15.7-69.92,40.28a181.49,181.49,0,0,0-46.63,57.27,149.06,149.06,0,0,0-16.8,69.12,146.52,146.52,0,0,0,16.8,68.72q16.8,32.25,46.63,57.27t69.92,40.28A283.6,283.6,0,0,0,4718,4230Z"/><path class="cls-1" d="M4735.43,3724H4718v-26h17.38q46.68,0,87.95-13.13t73.3-36.39q32-23.27,51.58-54.61A150.73,150.73,0,0,0,4971,3527H4718v-12.73a167,167,0,0,1,21.19-82.3q21.19-38.17,58.14-67t86.41-45.39q49.46-16.55,104.87-16.55H5006v26h-17.37q-46.69,0-87.95,13.2t-73.3,36.61q-32,23.45-51.58,54.92A152.16,152.16,0,0,0,4753,3501h253v13.52a166.3,166.3,0,0,1-21.2,81.51q-21.18,38.44-58.14,66.74t-86.39,44.76Q4790.85,3724,4735.43,3724Z"/><path class="cls-1" d="M5348.42,3724H5331q-54.37,0-101.66-15.22t-83.7-41.84q-36.42-26.62-58.7-62.58a170.07,170.07,0,0,1-25.55-77.36v-26a171.59,171.59,0,0,1,25.55-77.75q22.26-36.12,58.7-62.89t83.7-42.06Q5276.68,3303,5331,3303h17.39v12.73q0,44.11-17.92,82.3a190.58,190.58,0,0,1-51.58,66.19q-68.41,57.71-183.5,62.78a150.62,150.62,0,0,0,22.8,66.87q19.54,31.35,51.58,54.61t73.29,36.39q41.25,13.13,88,13.13h17.37Zm-35-394a286.69,286.69,0,0,0-81.89,16.59q-38.51,14-67.78,37a191.59,191.59,0,0,0-47.19,53.18,153,153,0,0,0-21.14,64.23q53.13-2.53,93.27-17.86t66.7-38.7a171.5,171.5,0,0,0,41.22-53.17A163.48,163.48,0,0,0,5313.42,3330Z"/><path class="cls-1" d="M5403.06,3724V3192h34v532Z"/><path class="cls-1" d="M5778.83,3724h-16.31q-56.54,0-106-16.52t-85.87-44.89q-36.42-28.38-57.63-66.92a169.06,169.06,0,0,1,0-163.9q21.19-38.11,57.63-66.93t85.87-45.32q49.45-16.5,106-16.52h16.31Zm-34-395a275.75,275.75,0,0,0-85.65,18.25q-40.12,15.7-69.92,40.28a181.49,181.49,0,0,0-46.63,57.27,149.06,149.06,0,0,0-16.8,69.12,146.52,146.52,0,0,0,16.8,68.72q16.8,32.25,46.63,57.27t69.92,40.28a283.67,283.67,0,0,0,85.65,17.81Z"/><path class="cls-1" d="M6118,3724h-16.31q-56.53,0-106-16.52t-85.87-44.89q-36.42-28.38-57.63-66.92a169.06,169.06,0,0,1,0-163.9q21.19-38.11,57.63-66.93t85.87-45.32q49.45-16.5,106-16.52H6118Zm-34-395a275.75,275.75,0,0,0-85.65,18.25q-40.12,15.7-69.92,40.28a181.49,181.49,0,0,0-46.63,57.27,149.06,149.06,0,0,0-16.8,69.12,146.52,146.52,0,0,0,16.8,68.72q16.8,32.25,46.63,57.27t69.92,40.28A283.67,283.67,0,0,0,6084,3698Z"/><path class="cls-1" d="M4952.72,4256h-17.39v-26h17.38q46.68,0,87.95-13.13t73.3-36.39q32-23.26,51.58-54.61a150.73,150.73,0,0,0,22.79-66.87h-253v-12.73a167,167,0,0,1,21.19-82.3q21.19-38.17,58.14-67t86.41-45.39q49.45-16.55,104.87-16.55h17.39v26H5206q-46.7,0-87.95,13.2t-73.3,36.61q-32,23.45-51.58,54.92a152.16,152.16,0,0,0-22.8,67.27h253v13.52a166.3,166.3,0,0,1-21.2,81.51q-21.18,38.45-58.14,66.74t-86.39,44.76Q5008.15,4256,4952.72,4256Z"/><path class="cls-1" d="M5565.71,4256h-17.39q-54.37,0-101.66-15.22t-83.7-41.84q-36.42-26.62-58.7-62.58a170.07,170.07,0,0,1-25.55-77.36v-26a171.59,171.59,0,0,1,25.55-77.75q22.26-36.12,58.7-62.89t83.7-42.06Q5494,3835,5548.32,3835h17.39v12.73q0,44.11-17.92,82.3a190.58,190.58,0,0,1-51.58,66.19q-68.41,57.71-183.5,62.78a150.62,150.62,0,0,0,22.8,66.87q19.55,31.35,51.58,54.61t73.29,36.39q41.25,13.13,88,13.13h17.37Zm-35-394a286.69,286.69,0,0,0-81.89,16.59q-38.51,14-67.78,37a191.59,191.59,0,0,0-47.19,53.18,153,153,0,0,0-21.14,64.23q53.13-2.53,93.27-17.86t66.7-38.7a171.5,171.5,0,0,0,41.22-53.17A163.48,163.48,0,0,0,5530.71,3862Z"/><path class="cls-1" d="M5620.35,4256V3724h34v532Z"/><path class="cls-1" d="M5996.12,4256h-16.31q-56.54,0-106-16.52t-85.87-44.89q-36.42-28.38-57.63-66.92a169.06,169.06,0,0,1,0-163.9q21.19-38.11,57.63-66.93t85.87-45.32q49.45-16.5,106-16.52h16.31Zm-34-395a275.75,275.75,0,0,0-85.65,18.25q-40.12,15.7-69.92,40.28a181.49,181.49,0,0,0-46.63,57.27,149.06,149.06,0,0,0-16.8,69.12,146.52,146.52,0,0,0,16.8,68.72q16.8,32.25,46.63,57.27t69.92,40.28a283.67,283.67,0,0,0,85.65,17.81Z"/><path class="cls-1" d="M6335.34,4256H6319q-56.52,0-106-16.52t-85.87-44.89q-36.42-28.38-57.63-66.92a169.13,169.13,0,0,1,0-163.9q21.19-38.11,57.63-66.93t85.87-45.32q49.45-16.5,106-16.52h16.32Zm-34-395a275.75,275.75,0,0,0-85.66,18.25q-40.12,15.7-69.92,40.28a181.63,181.63,0,0,0-46.63,57.27,149.05,149.05,0,0,0-16.79,69.12,146.51,146.51,0,0,0,16.79,68.72q16.81,32.25,46.63,57.27t69.92,40.28a283.67,283.67,0,0,0,85.66,17.81Z"/></g></g></svg>