<svg xmlns="http://www.w3.org/2000/svg" viewBox="0 0 862.37 862.36"><defs><style>.cls-1{fill:#fff;}.cls-2{fill:#23c10c;}</style></defs><g id="Layer_2" data-name="Layer 2"><g id="Layer_1-2" data-name="Layer 1"><path class="cls-1" d="M431.25,0C193.12,0,0,193,0,431.11,0,574.56,70,701.67,177.82,780L40,862.36h391.3a432.34,432.34,0,0,0,85.6-8.56C714,814.11,862.37,639.93,862.37,431.11,862.37,193,669.37,0,431.25,0ZM588.18,261.12H557.8c-29.63,0-57.89,4.23-84,12.58s-49.48,20-69.58,34.72C384.32,323,368.1,340.24,356,359.71a141.47,141.47,0,0,0-18.87,47.41h251v26.51a180,180,0,0,1-22.82,87.8c-14.93,27.08-35.66,50.89-61.62,70.78a289.24,289.24,0,0,1-55.23,33v38.26a44.15,44.15,0,0,1-44.15,44.15V641.88a346.62,346.62,0,0,1-99.79,14.24H274.18v-52h30.37c29.64,0,57.9-4.21,84-12.51s49.48-19.91,69.6-34.52c19.9-14.47,36.12-31.62,48.19-51a140,140,0,0,0,18.82-47h-251V433.38A180.58,180.58,0,0,1,297,344.78c14.91-26.85,35.6-50.73,61.51-71a280.78,280.78,0,0,1,45.86-29V198.89a44.15,44.15,0,0,1,44.15-44.15v71.7l.28-.1c34.14-11.43,70.82-17.22,109-17.22h30.39Z"/><path class="cls-2" d="M356,359.71a141.47,141.47,0,0,0-18.87,47.41h251v26.51a180,180,0,0,1-22.82,87.8c-14.93,27.08-35.66,50.89-61.62,70.78a289.24,289.24,0,0,1-55.23,33v38.26a44.15,44.15,0,0,1-44.15,44.15V641.88a346.62,346.62,0,0,1-99.79,14.24H274.18v-52h30.37c29.64,0,57.9-4.21,84-12.51s49.48-19.91,69.6-34.52c19.9-14.47,36.12-31.62,48.19-51a140,140,0,0,0,18.82-47h-251V433.38A180.58,180.58,0,0,1,297,344.78c14.91-26.85,35.6-50.73,61.51-71a280.78,280.78,0,0,1,45.86-29V198.89a44.15,44.15,0,0,1,44.15-44.15v71.7l.28-.1c34.14-11.43,70.82-17.22,109-17.22h30.39v52H557.8c-29.63,0-57.89,4.23-84,12.58s-49.48,20-69.58,34.72C384.32,323,368.1,340.24,356,359.71Z"/></g></g></svg>