<svg xmlns="http://www.w3.org/2000/svg" viewBox="0 0 909.5 835.2"><defs><style>.cls-1{fill:#fff;stroke:#b1b2b1;stroke-linecap:round;stroke-linejoin:round;stroke-width:0.5px;}</style></defs><g id="Layer_2" data-name="Layer 2"><g id="Layer_1-2" data-name="Layer 1"><g id="features"><path id="SYHI" class="cls-1" d="M354.35,702.05V702l-55.6-44.6-4.2-2.6-3.4-2.8-.9-.5-1.3-.6-.2-.1-.3-.1-2.3-.4-1.3-.5-5.1-1.3-2.1-.9-1.4-1-3.8-2.2-9.3-7.2-9.2-12.5-.8-2.2-.5-1-.7-2.2-.1-.3-.2-.4-.2-1-1.3-3.2-.8-1.4-13.3-12.3-1.3-1-2.3-1.5-11-11-2.1-1.4-.9-.8-7.1-11.7-.1-.2-.4-.7-.9-2.1-.1-.3-.1-.3-.1-.3-.1-.2-.8-.6-2.7-.9-2.7.3h-1.5l-.6-.1-1.4-.5-13.3-7.8h-.2l-.8-.5-1.5-1.1-4.7-4.3-.6-1.1-.4-.5-.2-.2-.6-.5-.2-.2-.4-.7-.2-.5-.2-.4-1.3-2.3-.3-.5-1-1.6-.1-.2-.8-1.5-2.1-3.2-.9-1.8-.8-1.1-2.4-2.5-2-3.1-1.9-1.9-3.1-3.8-.4-.6-.1-.3-1.7-2.5-.8-.7h-.6l-1.1.1-4.1,1.3-4.8,2.7-.3.1h-1.2l-9.7-1.3-2.4-1.4-.7-.1h-3.2l-2.2.5-3.3,1.9-.5.1-2.3.7-.7-1.6-3.3-3.3-.9-2.4-.7-3.1,1.1-2.1,1.3-1.8.2-1.4.1-.8-.7-1.3-.9-.2-1,.1-1-.4-1.5-1.6-2.9-4.2-.7-1.3-.4-1.3.2-1.4.4-.8.5-.8.3-1.2.5-2.7.1-1.8-.7-1.5-2.2-1.5-1,.3-1-.6-1.9-2.5-2.4-1-1.8-1.5-1.4-2.2-.8-2.8-1.5-.5-.4-.1-.7-.1h-.5l-.6-.1-1.3-.1h-2.6l-.3.1h-1.7l-2.7.8-.4.2h-.7l-.4-.2-.4-.7-1.3-2.6.3-.4.2-.1,1.7-1.9,3.8-2,2.6-2.1.7-2.7-.2-2.4.3-2,2-1.3v.1l2,.5,1.5,1.2.3-.2.7-.6.5-5.2-3.3,1.1-3.4.1-3.2-1.2-2.8-2.4-3.2-5.9-1-.7-1-.7-2.9,2-.4,1.3-.1,3.3-.5,1.5-1.3,1.3-1,.5-.3.2-8.3.4-.8-.3-1.6-1.2-.3-.1-.4-.2-.8.2-.9.6-.8.4-.6.2-5.9-.4v-.1l.1-.6.2-1.1.2-3.3.3-1.1,9.3-16.9,3.2-4.4.2-.2.2-.1.2-.2.9-.2.5-.4.6-.5,2.1-2.8,3.6-3.1.4-.5.3-.5V418l-.3-1.6v-.6l.1-.7.3-1.5.3-.7.2-.4.3-.4.2-.2.5-.3,1-.5,2.5-.8.9,1.6.1.5-.4.2-.2.3-.9,1.1-.1.4.1.3.3.1.3.1h.3l.4.4.6.6,1.2,1.9.6.7.6.4.3-.1.2-.1.4-.4,1.6-2.2.3-.4.4-.2h.5l1-.1.5.3.4.3,1,1.6,4.1,1,.5-.1.7-.3.3-.4,1.1-1.2.2-.4v-1.7l.2-.5.2-.6.8-.9.2-.5.1-.5-.1-1v-1.4l3.4-3.7,1.1-1.8,1.1-1.5.2-.1.1-.1.3-.2,1.2-.3h1l.5.2.5.3.2.2.2.2.1.3.1.3v.3l-.1.3-.1.3-.3.5-.5.6-.1.3-.1.3v.3l.1.3.2.2.2.1,1,.1h.3l.3.1.2.2.3.1.1.3.1.3v1.1l.3.4.4.4,1.3.6.8.1.6.1.3-.1.6-.2,1.6-1,3.1-.8,6.7.3,10.7-5.5,1.3-.5.2.2h.9l1.2-.3h1.3l.5.1,4.3-.3.5-.2,1.8-1.7.8-.4.9-.2h1.3l.6-.1.6-.2,2-1.4.9-.3.8-.2,1.4.2,1.8.6,2,1.7.7.9.1.3,4.2,8.3L171,417l2.8-1,.8-.4,6.8-5.5.9-.6,1.2-.4,2.3-.2.7-.2.4-.2,1.5-2,.5-.4.4-.2h1l.3.1.2.1.8.5.4.3.2.2,1.1.4,1.1.6h.3l.2-.3.2-.9.5-.6.8-.8,3.2-2.1.8-.3h1l.6.2.5.3.4.3.4.4.2.2.1.2.6,1.4.5,1,.3.4.2.2.5.3,1.1.6,1.7.4h.5l.4-.1.9-.6.7-.8.2-.3.1-.2.2-.6.5-2.1.1-.3.2-.2.2-.2,1-1,.1-.2.2-.2.3-1.4.2-.4.3-.6.5-.3.3-.2.4-.1h1.4l2.2.6.4-.1.3-.2v-.7l.1-.5.2-.6.7-.9.5-.3.4-.1.3.1.2.1,1.4,1,1.1.3,1.1.1,1-.3.9-.3,1.2-.9.6-.3.5-.1h.8l1.8-.3h.8l1,.2,1.6-.1.7.1.5.2.3.2.2.2,1.2,2.1.5.7.3.2.6.2,1.1.2h.5l.4-.1.2-.1.2-.2.1-.1.2-.4.1-.3.1-.3v-.7l-.1-.6-.7-2-.1-.7v-4.3l.3-2.3.2-.6.5-1.1.1-.2.2-.2.6-.6.9-.7,2.7-1.4,4.2-3,.9-.5.8-.2h1.8l1.9-.4,6.3-2.3,11.3-2.7h.6l.4.1.3.1.9.6.8.7,1.6,1.9.2.2.4.3.6.2.5.2.7.1,2.8.1.6.1.2.2.5.3.2.2.6.8.4.7.3.6.1.3.2.5.1.3.2.2.7.8.2.2.1.2.6,2.4.2.9.1,1.8.5,2.2.1.3.1.2.5.7,1.2,1.1.4.3.3.1,7.7,6.4.9,1,1.2,1.8,5.3,6.9.8.7.4.1.4-.1,1-.4.3-.2,2.5-2.8.2-.3.2-.5.1-.6.2-.3.2-.5.2-.2.1-.3.1-.3.1-.3.1-.7v-.7l-.1-1.4v-.3l.1-.3.1-.3.7-1.3.7-1.6.1-.3.8-1.1.2-.2.1-.3.1-.3.2-1.4v-.4l.6-.7,3.7-3.5,2.3-1.7,18-8,1-.9.4-.8-.7-5.6v-1.4l.2-1.4.4-1.4.6-1.8.5-1.1,3.4-5,1.3-2.4,1.4-3.5.7-2.7.4-18.7-.2-2.9,12.1-1.4,40.2,3.1,76.2,20.6,13.8,11.2,4.3,5.5,8.6,18.5.5,1.5.1,1.6-.9,9.6.1,1.8.6,1.5.6,1,22.5,32.2,77,111v.1l-9.8,5.9-15.1,9.2-15.1,9.1-15.1,9.1-15.1,9.1-15.1,9.1-15.1,9.1-15.1,9.1-15.1,9.1-15.2,9.1-15.1,9.1-15.1,9-15.1,9.1-33.4,20.8-29.3,18.5Z"/><path id="SYTA" class="cls-1" d="M53.35,455.45l-2.5-.2-.9-.1h-.1l-1.4.3H48l-1.7.3-1.1-.1h-2l-.1-.1H43l-.3-.1-.4-.1-.6-.2-1.4-.4-2.1-1.7-.3-.2-1-.5h-.1l-.5-.2-.6-.2-1.8.1-.5-3.1-2.5-5.1-.9-4.5-1.4-2.4-.3-1.5v-6.8l-.4-1-2.4-4.2-.5-1.6-.7-3.5-4.4-11.9.8-.5.1-.8.8-1,.2-1.2-.2-1.1-.8-1.1v-1.2l.7-.7v-.1l-.3-.2-.4-1.2,1.1-2.4.8-1.2,1-1.1.8-2.5-.5-2.5-.8-2.2-.5-1.9v-8l.9-2,6.4-9.9,2.9-2.9-1.2-4.5-3.1-6.2.1.1,5.8,1.9,2.1,1.4,4,3.4.9.3,20.6-1.7.5-.1,1-.5,1.9-1.2,1.8.2,5.3,2.6.1,3.2,1.6,19.7V382l-1.1,3.8-.5,1-.4.6-1,.7-.5.4-.9,1.1-.5.3-1.9.1-.6.2-.8.7-.6.2-1.2.2-.6.2-.5.2-.8.7-.5.3-.5.1h-.6l-1.3-.3-1.3.1-1.5.9,1,4.4,6.4,1.3,2.2.1,5.3-.5,1.2.3.8.4.8,2,.6,2.3.4,1.1.2.5.6.5,3.5,2.5.6.8.5,1.1-2.5.8-1,.5-.5.3-.2.2-.3.4-.2.4-.3.7-.3,1.5-.1.7v.6l.3,1.6v1.5l-.3.5-.4.5-3.6,3.1-2.1,2.8-.6.5-.5.4-.9.2-.2.2-.2.1-.2.2-3.2,4.4-9.3,16.9-.3,1.1-.2,3.3-.2,1.1-.1.6v.1Z"/><path id="SYRD" class="cls-1" d="M354.35,702.05l-11.6,7.3-23.7,15-17.4,11.2-23.5,15.1-23.4,15.1-12.5,8.1-.1-.1-2.3-3-1.2-1.3-6.7-4.9-18.5-18.8-.4-.6-.1-.1v-.2l-.2-.7-.6-7.4-.4-1.6-.2-.5-.3-.6-.5-.9-1-1-2.1-.7-4-.2-.6.2-.4.4-.2.1-.2.2-.5.2h-.3l-1.8-.8-6.9-4-.3-1-.2-.4-.3-.3-.3-.3-.2-.2v-.2l-.2-.3-.1-.2-.2-.5-.2-.2-.3-.4-.3-.1v-.1l-.2-.2-.2-.3-.3-.5-.3-.5v-.2l-.1-.2v-.9l.1-.6v-.7l-.1-.3v-.2l-.2-.3-.1-.2-.2-.2-.4-.3-1.6-1-.7-.5-.4-.4-.2-.1-.7-.4-8.9-2h-.8l-2.3-.3-.5-.3-2.8-2.1-.4-.3-.1-.3-.1-.2-.2-.6-.1-.7-.1-1.4-.3-1.4-.2-.6-.2-.3-.3-.4-4.8-4.9-.3-.4-.3-.5-.3-2-.1-.5-.6-1.1-1.5-1.7-.4-.3-4-2.2-1.2-.9-1.1-1.2-.6-.5-1.3-1.3-.2-.2-34.6,5-.3-1.7-.1-2.6v-.3l-.1-.3-.1-.3-.2-.5-.2-.3-4.7-5.4-.2-.5-.3-.5-.6-2-.2-.5-.2-.5-.2-.3-.3-.3-.5-.4h-1l-2.3,1.6-.7,1-.5.4-6.7,4.2v.1h-.1l-.5.3-4.1,3.8-.5.7-.1.3v.3l-.2,1.7v.4l-.1.2-.1.3-.1.1-.4.2-.2.1h-.8l-1-.2-3.6-1-.6-.3-.3-.4-.4-.4-1.4-.9-.1-.2-.2-.2-.5-1.3-.2-.2-.2-.2-.4-.4-.2-.1-.6-.2-2.5-.3-.4-.1-.3-.2-.2-.1-.2-.2L76,684l-.2-.3v-.3l-.2-1.7-.1-.2-.1-.3-.2-.2-.2-.2-.2-.2-1.4-.7-.3-.2-.3-.3-.7-.9-1.1-1.9-.2-.2-.2-.2-.2-.1-.3-.1-.4.3-.4.5-.6,1.5-.2.8-.1.5.5,1.8.1.6-.1.4v.3l-.2.6-.2.5-.8,1.5-.5,1.3-1.3.6-5.7,1.9-2.1,1.1-.5.2-10.9.9-.2.1-2,1.8-.9.7-.5.2-.8.3-.8.1h-2.6l-.9-.3-.5-.6-.8-1.5-.6-.5-.3-.3-3-1.2L33,689l.1-.8-.1-2.5.1-1.3v-1.1L33,683l-.3-.3-.5-.3-1.8-.2-1.6-.1-3.1-.6h-.4l-.3.1-.5.2-.2.2-.1.2-.1.2-.1.2v.1l-.2.6-.2.6-.2.2-.1.2-.3-.1-.3-.4-.9-1.9-.1-.6-.1-.3v-1.4l.2-.9.2-1,.2-.4.2-.3.5-.9.7-.8.1-.3v-.3l-1.4-.9-5.7-3-1.1-2.7-.7-2v-2.2l.7-2.2,1.4-1.7,2.2-1.7,1.2-1.3.4-1.5-.1-.8-.3-1.7,2.5-1.5,4.2-3.6,2.2-5.2-1.8-3.3,1.5-2.2,3.2-1h3.2l2.6-1.2,2.9-1.8,2.1-2.5.4-3.1-1.2-1.8-2.3-1.7-2.5-1.3-2-.5-3.1-1.8-3.1-.6-1.8-1.1.6-3.5.5-.6,1.8-.7.6-.6.4-1.6-.4-3,.2-1.3,1-1.5,2.5-2.3.8-1.9,1.9-2.8,4.5-3.9,1.9-3.5,1.3-1.8,2.2-.9.6-.1,2-.5,2.3-1.1,4.9-3,.9.5.4.5,1.4,1.7,1.1.7h2.8l.3-.2,1.9-1.2,1.9-1.5,2.1-.8,2,.4.4.1,7,3.4,5.2,1.3,2.6-.5,1.2-1.6.4-.5-.2-3.4-2.4-1.5-5.3-.9-4.1-3.1-.8-1-.9-1.6-.3-.6,3-6,1.8-2.9,2.2-2.7,5.4-4.8,4.6-5.8,2.9-1.4,1.5.1.2.1,2.8,1h.6l1.2-.1,2.3-1.1.7-1.5.3-2,.8-2.3,2.7-3.4,6.1-5.2,3.1-5.4,3.9-4.2-.1-.2,2.3-.7.5-.1,3.3-1.9,2.2-.5H132l.7.1,2.4,1.4,9.7,1.3H146l.3-.1,4.8-2.7,4.1-1.3,1.1-.1h.6l.8.7,1.7,2.5.1.3.4.6,3.1,3.8,1.9,1.9,2,3.1,2.4,2.5.8,1.1.9,1.8,2.1,3.2.8,1.5.1.2,1,1.6.3.5,1.3,2.3.2.4.2.5.4.7.2.2.6.5.2.2.4.5.6,1.1,4.7,4.3,1.5,1.1.8.5h.2l13.3,7.8,1.4.5.6.1h1.5l2.7-.3,2.7.9.8.6.1.2.1.3.1.3.1.3.9,2.1.4.7.1.2,7.1,11.7.9.8,2.1,1.4,11,11,2.3,1.5,1.3,1,13.3,12.3.8,1.4,1.3,3.2.2,1,.2.4.1.3.7,2.2.5,1,.8,2.2,9.2,12.5,9.3,7.2,3.8,2.2,1.4,1,2.1.9,5.1,1.3,1.3.5,2.3.4.3.1.2.1,1.3.6.9.5,3.4,2.8,4.2,2.6,55.6,44.6v.1Zm-273.1-53.9.5-2,3.1-3.2,1.3-3.6-.3-3,.1-1.8-2.2-3-3.8-.3-7.6,2.2-4.1.2-5.2,2.9,1,3,2.2-.3,3.2,1.6-2.9,3.1.7,1.6,3.1-2,8.3,4.2,2.6.4Z"/><path id="SYHA" class="cls-1" d="M763.25,301.35l-15.3-2.2-26.9-.6-10.4-2.2-4.9-1.8-8.5-1.9-2.5-1.1-4.4-2.6-102.3-100.4L571,171.05l-10.2-17-3-6.6-.2-2.2-.2-.7-.2-.5-.9-1.4-1.5-1.5-8.5-4.9-12.5-5.2-.7-.1-.7-.1-.6.1-.5.2-2.2.8-1.1.3-2.5.3-1.5-.1-1.4-.4-1.1-.5-1.9-1.7-6.9-8.9-1.2-2.8-3.2-9.6,44.2-8.5L581.75,89l13.6-8.2,4.9-1.6,5.1-1,5.1-2.4,9.8-6.6,18.1-12.1,2.7-1.8,2.9-1.1,3-.6,3.1-.2,6.3-1.8,18.3-10.2,6.7-2.6L707,35l32.6,6.6,6.1,2.5,3,.8,38-1.8,57-13.5,15.4-3.6,5.9-3.7,10.3-9.7,6.9-9.1,2-1.2,2.5-2,1.5,1.9.2,2-.2,1.7.1.7,1.9.4,4.1,2,.8-.4.9-.9.9-.8.8.3.6.9.7,1.7.6.9,4.6,3.8,1,.5.9,2.1-2.5,9.6,1.6,2.2,1.1,1,.2,2.5.1,4.8.9,2,1,1.8.8,1.9v2.5l-4.2,3.3-8.8,8.3v.1l-14.1,15.1-27.3,29.3-18.4,19.7-3.6,3.1-3.8,1.8-42.4,9.1-8.8,1.4-4.1,1.9-2.7,3.8L759,166l-1.1,4.5-4.4,42.5v2.8l.6,2.9,3.5,8.3,10.5,23,1.5,5.4.7,5.6.5,23.1-.7,5.3-2.2,5-4.6,7Z"/><path id="SYRA" class="cls-1" d="M398.05,99.65l3.9,4.2,8.4,4.4,9.6,1.2,22.2-1,3-.9,7.1-.5,21,7.1,7.4-.3,27.6-5.3,3.2,9.6,1.2,2.8,6.9,8.9,1.9,1.7,1.1.5,1.4.4,1.5.1,2.5-.3,1.1-.3,2.2-.8.5-.2.6-.1.7.1.7.1,12.5,5.2,8.5,4.9,1.5,1.5.9,1.4.2.5.2.7.2,2.2-8.9,40-13.3,61.4-1.5,10.4v1.8l1,.3,3.9,2.7,1.1.5-1.1,2.3-58,85.3-76.2-20.6-40.2-3.1-12.1,1.4-2.1-3.2-1.6-1.7-5.4-4.1-26.3-28-2-2.6-.3-.6-.3-.8-.3-1.1-.1-.8v-.8l.8-6,3.5-15.3,3.8-9.4,1.2-2,.7-.9.4-.4,5.2-7.6,2.7-2.7.7-.9.3-.5,1-2.4.6-2,.2-.4.3-.8.2-.8.2-1.8-.2-.9-.5-.8-5.4-4.6-.1-.1-1.8-3-1.8-2.4-1.9-2-1.3-1.7-1.2-2.4-1.7-5-.5-2.7-.2-2.1.2-1.2.3-1.2.5-1.2,3-4.6,1.7-4,1.3-2.4,1.4-2.1,1.5-1.6.8-.6,2.3-1.3,5.6-2.9,3.8-.9,5.1-.2,22.6-3.8,11.1-6.2,9-6.3,1.6-1.6,1.3-1.3,5.2-7.9,1.6-3.4.9-2.9,1-5.8v-.1l1.1-4.9.6-4.8L403,120l-.1-.7-.2-.5-.1-.6-.4-.4-.4-.4-.6-.1-.6-.1-.6.2-.9.5-3.3,2.9-1.4,1-1.1.4h-1.2l-.5-.2-.4-.4-.5-.9-.4-1.4-.7-3-.1-1.4.1-1,.5-.3.5-.2,6.9-.9.7-.4.6-.7.8-1.5.3-1v-1.5l-1.8-7.7Z"/><path id="SYHL" class="cls-1" d="M398.05,99.65l1.8,7.7v1.5l-.3,1-.8,1.5-.6.7-.7.4-6.9.9-.5.2-.5.3-.1,1,.1,1.4.7,3,.4,1.4.5.9.4.4.5.2h1.2l1.1-.4,1.4-1,3.3-2.9.9-.5.6-.2.6.1.6.1.4.4.4.4.1.6.2.5.1.7-.2,11.4-.6,4.8-1.1,4.9v.1l-1,5.8-.9,2.9-1.6,3.4-5.2,7.9-1.3,1.3-1.6,1.6-9,6.3-11.1,6.2-22.6,3.8-5.1.2-3.8.9-5.6,2.9-2.3,1.3-.8.6-1.5,1.6-1.4,2.1-1.3,2.4-1.7,4-3,4.6-.5,1.2-.3,1.2-.2,1.2.2,2.1.5,2.7,1.7,5,1.2,2.4,1.3,1.7,1.9,2,1.8,2.4,1.8,3,.1.1,5.4,4.6.5.8.2.9-.2,1.8-.2.8-.3.8-.2.4-.6,2-1,2.4-.3.5-.7.9-2.7,2.7-5.2,7.6-.4.4-.7.9-1.2,2-3.8,9.4-3.5,15.3-.8,6v.8l.1.8.3,1.1.3.8.3.6,2,2.6,26.3,28-58.3.2-11.5-1.7-6.2-1.8-2.3-1.1-9-6.3-.1-.1-2.6-1.8-22.5,1.6-7.9-.1-1-.3-1.2-.6-4.9-3.3-11.7-4.1-5.7-2.3-.7-.5-2-2.1-.9-.6-.7-.4-1.2-.4-.7-.4-4.3-5.2-.7-1.1-.5-3-.4-1.1-.9-1.3-1.2-2.5-2-6.3.7-1.2.8-.7,1.6-.7.4-.3.9-.7.6-.7.5-.6.5-1,.2-.6.1-.7v-.7l-.1-.6-.4-.7-.7-.7-4-2.8-2.7-2.7-1.7-1.1-2.1-.3-.7-.2-.5-.2-.9-1-1.1-1.6-6.9-12.5-7.3-10.8-.2-.6-.1-.7v-1.4l-.3-5.3-.2-1.3-.3-1.1-.8-.8-1.3-.9-11.5-5.4-1.2-.7-1.2-1.2-1.3-1.4-1-2-2.8-3.8,1.7-2.8,4.5-3.8.8-.8.6-1,.7-.8.3-.2.2-.2,1.4-.8.4-.4,1-1.4,2.7-2.7.7-.9.6-1.1.2-.6.2-.7-.1-.9-.5-1.1-3.6-4.6-4.2-4-.7-1.5-.3-2.6-.2-.6-.2-.5-.3-.4-.5-.4-.7-.1-.9.2-2.9,2.2-.7.3-4.4-.1-4.7,1-1.7,1v-.1l-1.6-1.8-2.2-.9-4.5-.5-1.4-1.3.6-.1.8-1.5.8-2.5.1-1.5-.2-1.3-.4-1.2-.6-1.1-.7-.5-2.2-1-.9-.8-.7-1.3-2.6-9.2-.4-2.8.6-2.6,4.1-6.5.6-7.4-.1-7.5,1.9-7.2,1.6-4,.5-3.4.1-3.3.6-3.7,1.7-3.4,2.2-3,1.5-3.3-.4-4.2,1.2-.1,1.3.2.2.1,25.1,8.7,8.6.6,2.7.6,2.7,1.1,2.6,1.5,2.1,2,4.1,3.8,1.1,2.2.1,3.6-1.2,5.4.6,2,2.5,2.3,2.7,1.5,1.3-.4,1.1-1.6,2.1-2.1,2.5-1.2,2.3.2,2.2.7,2.6.3,8.7-2.2,3-.3,22.2,4.1,5.7.1,10.4-6.7,9.7-6.3,8.3-3.7,22.7-4.9,21.9-10.1,3.8-1,2.5-1.6,13.2-8.4,9.2-3.6,4.6-.5,9,1.1,26,7.9,6.7,3.7,14.5,15.3Z"/><path id="SYID" class="cls-1" d="M59.25,256l.3-.1,1.5-4.9.8-11.9,3-4.9,4.4-1.6,3.3.9,2.2-.5,1.1-6H76l2.7-1.1,5.4,2.1,2.9-1-.4-4.8.4-24.4.3-2.5.8-1.3,1.1-1.1.2-1.5-2-2.3,1.6-1.6,1.7,2.1,1.7,1.2,1.9.6,3.8.5.8.3h.7l1.2-.5.6-1,.2-1.2.5-1.1,1.6-.5,2.5-.4,10.3,1.6h2.6l9.7-1.8.8-1.4-.1-3.9-.5-2.4-1-2.7-1.3-2.6,1.7-1,4.7-1,4.4.1.7-.3,2.9-2.2.9-.2.7.1.5.4.3.4.2.5.2.6.3,2.6.7,1.5,4.2,4,3.6,4.6.5,1.1.1.9-.2.7-.2.6-.6,1.1-.7.9-2.7,2.7-1,1.4-.4.4-1.4.8-.2.2-.3.2-.7.8-.6,1-.8.8-4.5,3.8-1.7,2.8,2.8,3.8,1,2,1.3,1.4,1.2,1.2,1.2.7,11.5,5.4,1.3.9.8.8.3,1.1.2,1.3.3,5.3v1.4l.1.7.2.6,7.3,10.8,6.9,12.5,1.1,1.6.9,1,.5.2.7.2,2.1.3,1.7,1.1,2.7,2.7,4,2.8.7.7.4.7.1.6v.7l-.1.7-.2.6-.5,1-.5.6-.6.7-.9.7-.4.3-1.6.7-.8.7-.7,1.2,2,6.3,1.2,2.5.9,1.3.4,1.1.5,3,.7,1.1,4.3,5.2.7.4,1.2.4.7.4.9.6,2,2.1.7.5,5.7,2.3-2.5,1.5-.4.5-.4.8-1.5,3.5-3.4,6-.8,1.1-.9.6-2.9,1.2-1.7,1.1-.8.8-.7,1.3-2.7,5.7-.3,1.2-.1.7v.6l.2.6.4.4.4.3.6.2.6.1h.7l.5-.2.5-.3.4-.4.3-.4.8-1.7.4-.4.3-.4.4-.3.6-.1.5.1.5.3.4.4.2.4.2.6.2,1.2-.1,7-.2.5h-.5l-.5-.2-.6-.1-.6-.1-.6.1-.5.2-.4.3-.5.4-.7,1-1.2,1.9-.4.4-.6.3-.8.3-.7.1-2.8-.1-3.1.4h-1.3l-.6-.2-.6-.2-.5-.3-.4-.4-.3-.5-.1-.5v-2.1l-.1-.6-.5-2.4v-1.3l.1-.6,1.3-2.8.2-.7.1-.6V327l-.1-1.3-.1-.6-.2-.6-.2-.5-.3-.5-.3-.4-.5-.3-.7-.2-.4.2-.4.5-1.1,2.1-.5.6-3,2.9-2.4,3.7-.8.6-.9.3-1,.1-1.4.3h-.8l-.6-.2-.3-.5-.3-.4-.3-.4-1.5-1-.4-.3-.4-.4-.6-1-.2-.5-.5-1-4.1-3.7-.5-.2-.6-.2h-1.2l-16.5,4.5-7-.2-9.2-2.6-1.3-.2-2.6.2-1.4-.1-.7-.1-.5-.3-.5-.3-.3-.4-.3-.5-.2-.5-.4-1.1-.5-1-.3-.4-.5-.3-2.4-1.2-.9-.4-.6.1-4.8,2.4-2.9-.9-.9-1-.7-2.9-3-6.7v-.1l.2-.5.2-.4.3-.7.3-.9-1.2-11.3.3-3,1.9-9.1.9-7.4-.2-2.1-1-.6-6-.2-1.8-.6-.3-.5-.1-.6-.2-.5-.2-.7-.4-.8-.8-.9-.5-.4-.5-.3H82l-.6.2-.5.2-.5.3-1.6.5L77,270l-1-.1-1.1-.4-.5-.3-.6-.5-.3-.4-.6-1.1,3.4-2.4,1-1.3.2-.7v-.7l-.2-.6-.5-.7-.6-.3-.6-.2-9.3.4-1.2.3-1.1.4-.8.2h-1l-2-.1-1-.4-.5-.5-.2-.5v-.6l.1-.7.2-.6.2-.4.3-1,.1-.2-.1-.6Z"/><path id="SYLA" class="cls-1" d="M59.25,256l.1.6-.1.2-.3,1-.2.4-.2.6-.1.7v.6l.2.5.5.5,1,.4,2,.1h1l.8-.2,1.1-.4,1.2-.3,9.3-.4.6.2.6.3.5.7.2.6v.7l-.2.7-1,1.3-3.4,2.4-2.2,1.9-.6,1.5-.3,4.2-.2,1.1-.4.7-2.1,1.5-1.3,1.4-.4.9-.1.7.2.5,1.6,2.2.5,1,.4,1.1.3,1.9.4,5.2-.5,11.2-2.7,18.5.1.7.9,3.2,2.2,6.5,3.6,16.9.3,6.5-5.3-2.6-1.8-.2-1.9,1.2-1,.5-.5.1-20.6,1.7-.9-.3-4-3.4-2.1-1.4-5.8-1.9-.1-.1-2.1-4.4,1.8-5.6-.6-2.8-1-10.9L27,324l-1.4-1.4-6.6-8.9-2.8-1.4-1.4-1-.5-1.7-1.1-.9L11,309l-2.1.8-.7.4-1.5-.7.2-1.9.7-2.3.1-2-.8-.9-4.8-2.6.3-.8.2-1.7.4-.9h-.9l-1.8,1v-1l2.7-1,2.7-1.7,2.1-2.5.8-3-.3-1.8-1.2-2.3-.3-2.1.7-1.2,3.2-1.1,5.3-10.2.2-.9v-3.9l-.6-3.3-1.4-3.9-1.9-3.7-1.8-2.4,6.6.4,3.3-.8,1.4-2.5.6-3.3,3.5-5.3,1.3.4,2.7-.5,2.8-1,2.6-.4,1.8,1.9v2.2l-.4,2.2.3,2,1.6,1.4,2.1.5,4.3.1,4,1.9,8,5.8,2.3-.4Z"/><path id="SYSU" class="cls-1" d="M242.25,773.85l-10.9,6.9L208,795.85l-15.1,9.7L172,819.25l-22,15-1.8.7-1.9-.1-8.7-2.3-3-.1-2.3,1.4-5-3.8-18.7-2.3v-1l.5-4.6.1-.4-.4-7.8.1-.7,1-3.2.1-.6.1-1.4-.2-.5-.3-.8-1.4-2.1-1.8-2.2-.7-1-.1-.4.1-.5.8-1.7.9-1.2.1-.2-.2-1-1.6-2.5-2.3.2h-.3l-.3-.1-.4-.2-.6-.4-.3-.5-.6-.6-.3-.1-.3-.1H100l-2.6.5-2.1-.1-2.3-.3-.2-.3-.1-.5.1-1,.2-.6.4-1.2.2-.6-.1-.5-.8-1.8-.2-.8.2-.8.3-.4.3-.2,1.7-.5.5-.2.2-.2.2-.1.7-.9.2-.2.5-.3,1-.5.4-.3.3-.4.2-.2.1-.2.3-1.2v-.7l-.3-.6-.7-.7-1.7-1.2-.9-.5-.7-.2-2.7-.3L92,774l-2.1-.8-.3-.1-.3-.1h-.7l-.6-.1-.4-.2-.2-.2-.2-.3-.4-.7-.1-.4-.1-.4-.2-1V769l.2-1.1.3-.8,1.4-1.4-1-10.8v-2.6l.2-.4.1-.1.1-.6-.5-1.7-2.4-5.8-.3-1.7-.4-1.1-.1-1v-.4l.1-.3.1-.5,1.2-2.3v-.3l.1-.3v-.3l-.1-.3-.1-.3-.1-.3-.3-.8-.2-.5-.1-.4.1-.3.2-.5.5-.5,2.2-1.6,1.6-1,1.9-1.8,4.2-3.2,1.1-.5,1.4-.4,5.5-.4,8.1.6.6-.1.3-.1.2-.3v-.4l-.2-.8-.7-1.3-.2-.6-.1-.3v-.3l-.2-3.9-.2-.5-.1-.3-.2-.2-.2-.2-.2-.1-.3-.1h-1l-.3.1-2.1.8h-.4l-.3-.1-.2-.1-.3-.1-.1-.2-.3-.4-.2-.3v-.3l-.1-2.5-.1-.7-.1-.6-.2-.6-.9-2-.4-1.1-.3-1.2v-.9l.2-.9.1-1v-.4l-.1-.6-.3-.8-.1-.4v-.8l.2-.7.2-.8.4-.8.7-.8.8-.7,2.3-1.8.6-.1h.9l3.8.4,1.1-.2,2.6-1.4,34.6-5,.2.2,1.3,1.3.6.5,1.1,1.2,1.2.9,4,2.2.4.3,1.5,1.7.6,1.1.1.5.3,2,.3.5.3.4,4.8,4.9.3.4.2.3.2.6.3,1.4.1,1.4.1.7.2.6.1.2.1.3.4.3,2.8,2.1.5.3,2.3.3h.8l8.9,2,.7.4.2.1.4.4.7.5,1.6,1,.4.3.2.2.1.2.2.3v.2l.1.3v.7l-.1.6v.9l.1.2v.2l.3.5.3.5.2.3.2.2v.1l.3.1.3.4.2.2.2.5.1.2.2.3v.2l.2.2.3.3.3.3.2.4.3,1,6.9,4,1.8.8h.3l.5-.2.2-.2.2-.1.4-.4.6-.2,4,.2,2.1.7,1,1,.5.9.3.6.2.5.4,1.6.6,7.4.2.7v.2l.1.1.4.6,18.5,18.8,6.7,4.9,1.2,1.3,2.3,3,.1.1Z"/><path id="SYDR" class="cls-1" d="M17.05,750.15l1-1.5,7.2-6.7,4.1-3.3.7-1,.1-.3v-.7l-.4-3.2-.2-1-.2-.6-.3-.4-.2-.2-.1-.3.1-.4.2-.4.5-.5.5-.2.4-.1,2.4-.1.7.1.2.1.2.1.2.3.1.2.1.6.1.3.2.2.1.2.3.2.2.1.2.1.3.1H36l.2-.1.1-.3v-.6l-.2-.9-.9-2.9-.2-.6-.6-.6-.6-.9-.7-1.5v-.1l-1.6-2.4-.7-1.5.1-1.3,1.7-10.2.1-.2.9-2.1,1.7-2.8v-.4l-.2-.7-.7-1.2L34,700l-.3-.3-1.9-1.5-.2-.2.1-1.7,1.1-6.2,3,1.2.3.3.6.5.8,1.5.5.6.9.3h2.6l.8-.1.8-.3.5-.2.9-.7,2-1.8.2-.1,10.9-.9.5-.2,2.1-1.1,5.7-1.9,1.3-.6.5-1.3.8-1.5.2-.5.2-.6v-.3l.1-.4-.1-.6-.5-1.8.1-.5.2-.8.6-1.5.4-.5.4-.3.3.1.2.1.2.2.2.2,1.1,1.9.7.9.3.3.3.2,1.4.7.2.2.2.2.2.2.1.3.1.2.2,1.7v.3l.2.3.1.2.2.2.2.1.3.2.4.1,2.5.3.6.2.2.1.4.4.2.2.2.2.5,1.3.2.2.1.2,1.4.9.4.4.3.4.6.3,3.6,1,1,.2h.8l.2-.1.4-.2.1-.1.1-.3.1-.2v-.4l.2-1.7v-.3l.1-.3.5-.7L96,683l.5-.3h.1v-.1l6.7-4.2.5-.4.7-1,2.3-1.6h1l.5.4.3.3.2.3.2.5.2.5.6,2,.3.5.2.5,4.7,5.4.2.3.2.5.1.3.1.3v.3l.1,2.6.3,1.7-2.6,1.4-1.1.2-3.8-.4h-.9l-.6.1-2.3,1.8-.8.7-.7.8-.4.8-.2.8-.2.7v.8l.1.4.3.8.1.6v.4l-.1,1-.2.9v.9l.3,1.2.4,1.1.9,2,.2.6.1.6.1.7.1,2.5v.3l.2.3.3.4.1.2.3.1.2.1.3.1h.4l2.1-.8.3-.1h1l.3.1.2.1.2.2.2.2.1.3.2.5.2,3.9v.3l.1.3.2.6.7,1.3.2.8v.4l-.2.3-.3.1-.6.1-8.1-.6-5.5.4-1.4.4-1.1.5-4.2,3.2-1.9,1.8-1.6,1-2.2,1.6-.5.5-.2.5-.1.3.1.4.2.5.3.8.1.3.1.3.1.3v.3l-.1.3v.3l-1.2,2.3-.1.5-.1.3v.4l.1,1,.4,1.1.3,1.7,2.4,5.8.5,1.7-.1.6-.1.1-.2.4v2.6l1,10.8-1.4,1.4-.3.8-.2,1.1v.7l.2,1,.1.4.1.4.4.7.2.3.2.2.4.2.6.1h.7l.3.1.3.1,2.1.8.6.2,2.7.3.7.2.9.5,1.7,1.2.7.7.3.6v.7l-.3,1.2-.1.2-.2.2-.3.4-.4.3-1,.5-.5.3-.2.2-.7.9-.2.1-.2.2-.5.2-1.7.5-.3.2-.3.4-.2.8.2.8.8,1.8.1.5-.2.6-.4,1.2-.2.6-.1,1,.1.5.2.3,2.3.3,2.1.1,2.6-.5h.3l.3.1.3.1.6.6.3.5.6.4.4.2.3.1h.3l2.3-.2,1.6,2.5.2,1-.1.2-.9,1.2-.8,1.7-.1.5.1.4.7,1,1.8,2.2,1.4,2.1.3.8.2.5-.1,1.4-.1.6-1,3.2-.1.7.4,7.8-.1.4-.5,4.6v1l-4.9-.6-2.3-1.4-7.7-.7-2.7-.9-2-1.1-12-11.4-8.8-6.1-4.4-4.5-1.5-.8-.7.2-1.6,1.4-.7.3-.8-.1-1.4-.6-.9-.1-5,.7h-2l-1.6-.1-.5-.1v-.7l-.8-1.9-6.1-9.4-1.3-2.7-.1-3,.4-2.8-.7-1.9-3.2-.2-1.9.4-1.5-.5-1.2-1.2-1.2-1.5.5.1.4-.7.2-1.1-.2-1-.5-.3h-1.8l-.6-.2-2.4-2.4-1.3-.8-14.7-3.4-1.2-1.6V765l-.6-.4-.7-.1,2.9-4.3,2.3-1.4,1-.6.9-1.5,2.9-4.2.7-1.4-.2-.9Z"/><path id="SYDY" class="cls-1" d="M608.15,547.65v-.1l-77-111-22.5-32.2-.6-1-.6-1.5-.1-1.8.9-9.6-.1-1.6-.5-1.5-8.6-18.5-4.3-5.5L481,352.15l58-85.3,1.1-2.3-1.1-.5-3.9-2.7-1-.3v-1.8l1.5-10.4,13.3-61.4,8.9-40,3,6.6,10.2,17,17.1,17.5L690.35,289l4.4,2.6,2.5,1.1,8.5,1.9,4.9,1.8,10.4,2.2,26.9.6,15.3,2.2-6.4,9.7v.1l-1.3,5-1.2,16.4-5.7,20.6-1.3,10.2.1,3.9.7,27.5,1.2,29.1-.3,4.4-1.2,4.1-23.4,45.5-5,10.9-3.1,4.4-4,2.6-33.5,9.1-20,12.1-15.2,9.2-15.1,9.1-15.1,9.2-5.3,3.2Z"/><path id="SYQU" class="cls-1" d="M16.55,670.75l5.7,3,1.4.9v.3l-.1.3-.7.8-.5.9-.2.3-.2.4-.2,1-.2.9V681l.1.3.1.6.9,1.9.3.4.3.1.1-.2.2-.2.2-.6.2-.6v-.1l.1-.2.1-.2.1-.2.2-.2.5-.2.3-.1h.4l3.1.6,1.6.1,1.8.2.5.3.3.3.1.3v1.1l-.1,1.3.1,2.5-.1.8-.2,1.1-1.1,6.2-.1,1.7.2.2,1.9,1.5.3.3.4.6.7,1.2.2.7v.4l-1.7,2.8-.9,2.1-.1.2-1.7,10.2-.1,1.3.7,1.5,1.6,2.4v.1l.7,1.5.6.9.6.6.2.6.9,2.9.2.9v.6l-.1.3-.2.1h-.2l-.3-.1-.2-.1-.2-.1-.3-.2-.1-.2-.2-.2-.1-.3-.1-.6-.1-.2-.2-.3-.2-.1-.2-.1-.7-.1-2.4.1-.4.1-.5.2-.5.5-.2.4-.1.4.1.3.2.2.3.4.2.6.2,1,.4,3.2v.7l-.1.3-.7,1-4.1,3.3-7.2,6.7-1,1.5v-.1L19,743l4.1-7.9,2.9-3,1.6-3.4-3.5-2.9-2.8-1.1-1.8-14.5.6-4.2,3-.4h1.7v-1.1H24l-.5-.7-.2-.6.4-.6.7-.4.8-.4.6-.4.1-.6v-4.4l-.5-.9-.2-.9-.8-.5-.5-.1-.8.6h-.3l-.5-.3-.3-.9v-.8l.9-.9v-.6l-.5-.9-1.5-1.9-1.1-1.7-.7-1.9-.9-5.1-.1-.6-.4-.5-.7-.6h-1.4l-1.3-.1-.8-.1-.1-.6.3-.3.6-.4,1-.4.9-.7.7-1.4.1-1.6-.3-1.4-.1-.1Z"/><path id="SYHM" class="cls-1" d="M352.45,329.85l.2,2.9-.4,18.7-.7,2.7-1.4,3.5-1.3,2.4-3.4,5-.5,1.1-.6,1.8-.4,1.4-.2,1.4v1.4l.7,5.6-.4.8-1,.9-18,8-2.3,1.7-3.7,3.5-.6.7v.4l-.2,1.4-.1.3-.1.3-.2.2-.8,1.1-.1.3-.7,1.6-.7,1.3-.1.3-.1.3v.3l.1,1.4v.7l-.1.7-.1.3-.1.3-.1.3-.2.2-.2.5-.2.3-.1.6-.2.5-.2.3-2.5,2.8-.3.2-1,.4-.4.1-.4-.1-.8-.7-5.3-6.9-1.2-1.8-.9-1-7.7-6.4-.3-.1-.4-.3-1.2-1.1-.5-.7-.1-.2-.1-.3-.5-2.2-.1-1.8-.2-.9-.6-2.4-.1-.2-.2-.2-.7-.8-.2-.2-.1-.3-.2-.5-.1-.3-.3-.6-.4-.7-.6-.8-.2-.2-.5-.3-.2-.2-.6-.1-2.8-.1-.7-.1-.5-.2-.6-.2-.4-.3-.2-.2-1.6-1.9-.8-.7-.9-.6-.3-.1-.4-.1h-.6l-11.3,2.7-6.3,2.3-1.9.4H254l-.8.2-.9.5-4.2,3-2.7,1.4-.9.7-.6.6-.2.2-.1.2-.5,1.1-.2.6-.3,2.3v4.3l.1.7.7,2,.1.6v.7l-.1.3-.1.3-.2.4-.1.1-.2.2-.2.1-.4.1h-.5l-1.1-.2-.6-.2-.3-.2-.5-.7-1.2-2.1-.2-.2-.3-.2-.5-.2-.7-.1-1.6.1-1-.2h-.8l-1.8.3h-.8l-.5.1-.6.3-1.2.9-.9.3-1,.3-1.1-.1-1.1-.3-1.4-1-.2-.1-.3-.1-.4.1-.5.3-.7.9-.2.6-.1.5v.7l-.3.2-.4.1-2.2-.6h-1.4l-.4.1-.3.2-.5.3-.3.6-.2.4-.3,1.4-.2.2-.1.2-1,1-.2.2-.2.2-.1.3-.5,2.1-.2.6-.1.2-.2.3-.7.8-.9.6-.4.1h-.5l-1.7-.4-1.1-.6-.5-.3-.2-.2-.3-.4-.5-1-.6-1.4-.1-.2-.2-.2-.4-.4-.4-.3-.5-.3-.6-.2h-1l-.8.3-3.2,2.1-.8.8-.5.6-.2.9-.2.3h-.3l-1.1-.6-1.1-.4-.2-.2-.4-.3-.8-.5-.2-.1-.3-.1h-1l-.4.2-.5.4-1.5,2-.4.2-.7.2-2.3.2-1.2.4-.9.6-6.8,5.5-.8.4-2.8,1-3.4-7.6-4.2-8.3-.1-.3-.7-.9-2-1.7-1.8-.6-1.4-.2-.8.2-.9.3-2,1.4-.6.2-.6.1h-1.3l-.9.2-.8.4-1.8,1.7-.5.2-4.3.3-.5-.1h-1.3l-1.2.3H139l-.2-.2-1.3.5-10.7,5.5-6.7-.3-3.1.8-1.6,1-.6.2-.3.1-.6-.1-.8-.1-1.3-.6-.4-.4-.3-.4v-1.1l-.1-.3-.1-.3-.3-.1-.2-.2-.3-.1h-.3l-1-.1-.2-.1-.2-.2-.1-.3v-.3l.1-.3.1-.3.5-.6.3-.5.1-.3.1-.3v-.3l-.1-.3-.1-.3-.2-.2-.2-.2-.5-.3-.5-.2h-1l-1.2.3-.3.2-.1.1-.2.1-1.1,1.5-1.1,1.8-3.4,3.7v1.4l.1,1-.1.5-.2.5-.8.9-.2.6-.2.5v1.7l-.2.4-1.1,1.2-.3.4-.7.3-.5.1-4.1-1-1-1.6-.4-.3-.5-.3-1,.1h-.5l-.4.2-.3.4-1.6,2.2-.4.4-.2.1-.3.1-.6-.4-.6-.7-1.2-1.9-.6-.6-.4-.4h-.3l-.3-.1-.3-.1-.1-.3.1-.4.9-1.1.2-.3.4-.2-.1-.5-.9-1.6-.5-1.1-.6-.8-3.5-2.5-.6-.5-.2-.5-.4-1.1-.6-2.3-.8-2-.8-.4-1.2-.3-5.3.5-2.2-.1-6.4-1.3-1-4.4,1.5-.9,1.3-.1,1.3.3h.6l.5-.1.5-.3.8-.7.5-.2.6-.2,1.2-.2.6-.2.8-.7.6-.2,1.9-.1.5-.3.9-1.1.5-.4,1-.7.4-.6.5-1,1.1-3.8v-2.6l-1.6-19.7-.1-3.2-.3-6.5-3.6-16.9-2.2-6.5-.9-3.2-.1-.7,2.7-18.5.5-11.2-.4-5.2-.3-1.9-.4-1.1-.5-1-1.6-2.2-.2-.5.1-.7.4-.9,1.3-1.4,2.1-1.5.4-.7.2-1.1.3-4.2.6-1.5,2.2-1.9.6,1.1.3.4.6.5.5.3,1.1.4,1,.1,1.8-.2,1.6-.5.5-.3.5-.2.6-.2h.6l.5.3.5.4.8.9.4.8.2.7.2.5.1.6.3.5,1.8.6,6,.2,1,.6.2,2.1-.9,7.4-1.9,9.1-.3,3,1.2,11.3-.3.9-.3.7-.2.4-.2.5v.1l3,6.7.7,2.9.9,1,2.9.9,4.8-2.4.6-.1.9.4,2.4,1.2.5.3.3.4.5,1,.4,1.1.2.5.3.5.3.4.5.3.5.3.7.1,1.4.1,2.6-.2,1.3.2,9.2,2.6,7,.2,16.5-4.5h1.2l.6.2.5.2,4.1,3.7.5,1,.2.5.6,1,.4.4.4.3,1.5,1,.3.4.3.4.3.5.6.2h.8l1.4-.3,1-.1.9-.3.8-.6,2.4-3.7,3-2.9.5-.6,1.1-2.1.4-.5.4-.2.7.2.5.3.3.4.3.5.2.5.2.6.1.6.1,1.3v.7l-.1.6-.2.7-1.3,2.8-.1.6v1.3l.5,2.4.1.6v2.1l.1.5.3.5.4.4.5.3.6.2.6.2h1.3l3.1-.4,2.8.1.7-.1.8-.3.6-.3.4-.4,1.2-1.9.7-1,.5-.4.4-.3.5-.2.6-.1.6.1.6.1.5.2h.5l.2-.5.1-7-.2-1.2-.2-.6-.2-.4-.4-.4-.5-.3-.5-.1-.6.1-.4.3-.3.4-.4.4-.8,1.7-.3.4-.4.4-.5.3-.5.2h-.7l-.6-.1-.6-.2-.4-.3-.4-.4-.2-.6v-.6l.1-.7.3-1.2,2.7-5.7.7-1.3.8-.8,1.7-1.1,2.9-1.2.9-.6.8-1.1,3.4-6,1.5-3.5.4-.8.4-.5,2.5-1.5,11.7,4.1,4.9,3.3,1.2.6,1,.3,7.9.1,22.5-1.6,2.6,1.8.1.1,9,6.3,2.3,1.1,6.2,1.8,11.5,1.7,58.3-.2,5.4,4.1,1.6,1.7,2.1,3.2Z"/><path id="SYDI" class="cls-1" d="M81.25,648.15l-2.6-.4-8.3-4.2-3.1,2-.7-1.6,2.9-3.1-3.2-1.6-2.2.3-1-3,5.2-2.9,4.1-.2,7.6-2.2,3.8.3,2.2,3-.1,1.8.3,3-1.3,3.6-3.1,3.2-.5,2Z"/></g></g></g></svg>