<svg xmlns="http://www.w3.org/2000/svg" viewBox="0 0 84.75 80.99"><g data-name="Layer 2"><path d="M0 35.66c0-12 4.61-16.28 16.59-15.11a20.75 20.75 0 0 0 11.5-2.38C39.43 12.62 50.48 6.48 62.14 1.58c7.41-3.11 11.53-1.76 15.15 5.3 10.42 20.33 9.82 40.51-1.18 60.43a8.79 8.79 0 0 1-11 4.28 91.2 91.2 0 0 1-10.92-4.78c-2.39-1.23-3.22-.78-3.38 1.83A21.38 21.38 0 0 1 49.9 74a10.16 10.16 0 0 1-15.46 5.2C30.56 76.67 27 73.73 23.19 71 18 67.3 16 62.16 16.17 55.91c0-1.62.69-3.53-2.37-3.87C2.83 50.83 0 47.28 0 35.66Zm42.54 30.1c-.27-1.83.74-4.28-1.78-5.57-4.28-2.17-8.56-4.34-12.9-6.37-1-.48-2.78-1.39-3 .9-.3 3.11-.78 6.46 2.13 8.74 3.63 2.84 7.37 5.56 11.18 8.17 2.53 1.75 4 .89 4.14-2.2.06-1.16.15-2.32.23-3.67Z" data-name="Layer 1" style="fill:#202020"/></g></svg>