<svg xmlns="http://www.w3.org/2000/svg" viewBox="0 0 1400 532"><defs><style>.cls-1{fill:#fff;}</style></defs><g id="Layer_2" data-name="Layer 2"><g id="Layer_1-2" data-name="Layer 1"><path class="cls-1" d="M17.39,532H0V506H17.38q46.68,0,88-13.12t73.29-36.4q32-23.26,51.58-54.6A150.83,150.83,0,0,0,253,335H0V322.27A166.9,166.9,0,0,1,21.19,240q21.18-38.17,58.14-67t86.4-45.39Q215.19,111,270.61,111H288v26H270.62q-46.68,0-88,13.2t-73.29,36.61q-32,23.44-51.58,54.92A152.16,152.16,0,0,0,35,309H288v13.52A166.41,166.41,0,0,1,266.8,404q-21.2,38.45-58.14,66.74t-86.39,44.76Q72.82,532,17.39,532Z"/><path class="cls-1" d="M630.38,532H613q-54.37,0-101.66-15.22t-83.7-41.84q-36.42-26.62-58.71-62.58A170.06,170.06,0,0,1,343.38,335V309a171.58,171.58,0,0,1,25.54-77.75q22.27-36.12,58.71-62.89t83.7-42.06Q558.63,111,613,111h17.39v12.73q0,44.11-17.92,82.3a190.69,190.69,0,0,1-51.58,66.19q-68.42,57.7-183.5,62.78a150.56,150.56,0,0,0,22.79,66.88q19.54,31.33,51.58,54.6t73.3,36.4Q566.3,506,613,506h17.38Zm-35-394a286.62,286.62,0,0,0-81.89,16.59q-38.52,14-67.79,37a191.4,191.4,0,0,0-47.18,53.18A152.84,152.84,0,0,0,377.38,309q53.13-2.53,93.26-17.86t66.71-38.7q26.56-23.4,41.21-53.17A163.68,163.68,0,0,0,595.38,138Z"/><path class="cls-1" d="M685,532V0h34V532Z"/><path class="cls-1" d="M1060.79,532h-16.31q-56.54,0-106-16.52T852.6,470.59Q816.18,442.21,795,403.67a169.06,169.06,0,0,1,0-163.9q21.18-38.11,57.62-66.93t85.88-45.32q49.46-16.5,106-16.52h16.31Zm-34-395a275.75,275.75,0,0,0-85.66,18.25Q901,171,871.21,195.53a181.59,181.59,0,0,0-46.62,57.27,148.94,148.94,0,0,0-16.8,69.12,146.4,146.4,0,0,0,16.8,68.72q16.8,32.25,46.62,57.27t69.92,40.28A283.36,283.36,0,0,0,1026.79,506Z"/><path class="cls-1" d="M1400,532h-16.31q-56.54,0-106-16.52t-85.88-44.89q-36.42-28.38-57.62-66.92a169.06,169.06,0,0,1,0-163.9q21.18-38.11,57.62-66.93t85.88-45.32q49.45-16.5,106-16.52H1400Zm-34-395a275.75,275.75,0,0,0-85.66,18.25q-40.12,15.7-69.92,40.28a181.59,181.59,0,0,0-46.62,57.27,148.94,148.94,0,0,0-16.8,69.12,146.4,146.4,0,0,0,16.8,68.72q16.8,32.25,46.62,57.27t69.92,40.28A283.36,283.36,0,0,0,1366,506Z"/></g></g></svg>