<svg xmlns="http://www.w3.org/2000/svg" viewBox="0 0 626.56 626.6">
  <g id="Layer_2" data-name="Layer 2">
    <g id="Layer_1-2" data-name="Layer 1">
      <path fill="#03a9f4" 
        d="M217.61,554c-3.31,7.31-9.14,11.12-16.9,11.17-27.46.17-54.94.7-82.37-.18-32.27-1-57-28.72-57-62.24V449.36q0-26.72,0-53.43,0-53.67,0-107.35c0-2.33,0-4.67.2-7,.9-10.53,8.61-17.43,19.4-17.43,10.51,0,18.21,6.77,19.26,17a67.63,67.63,0,0,1,.21,7q0,106.86,0,213.71c0,15.09,8.76,24,23.79,24,24.8,0,49.6.18,74.4,0C217.38,525.68,222.51,543.19,217.61,554Z" />
      <path fill="#03a9f4"
        d="M61.66,176.71c-.56-20.78-1.43-41.64.36-62.36,2.38-27.57,26.44-50.77,54.29-52.51,15.59-1,31.27-.42,46.91-.47,15.81,0,31.62,0,47.43,0,30.29,0,60.58-.07,90.86,0,15.35,0,24.46,13.56,18.78,27.5-3.14,7.7-9.64,11.54-19.69,11.54H142.34c-6.66,0-13.32-.08-20,0-12.55.2-21.76,9.24-21.89,21.78-.17,17.14,0,34.28-.08,51.42-.09,12.86-8.37,20.82-20.74,20.26C69.69,193.47,61.93,186.7,61.66,176.71Z" />
      <path fill="#03a9f4"
        d="M276.2,455.17c-11.55-.08-19.41-8.45-19.42-19.75,0-11,7.71-19.1,19.08-19.53,7.15-.27,14.31-.13,21.47,0,2.85.05,4.16-.67,4.16-3.88q-.18-87.61-.17-175.22a10.51,10.51,0,0,0-.55-1.42L280,253.79c-1.74,1.55-3.46,3.13-5.22,4.64-9.07,7.79-20.15,7.18-27.91-1.52S239.71,237,248.65,229c19.77-17.57,39.7-35,59.44-52.58,6-5.35,12.61-6.56,19.88-3.9,7.65,2.79,11.45,8.79,12.32,16.7a68.86,68.86,0,0,1,.1,7.47q0,106.59-.1,213.17c0,4.84,1.27,6.33,6.07,6,6.3-.41,12.65-.2,19-.06,11.42.26,19,8,19.18,19.29.17,11.58-7.37,19.93-19,20Q320.88,455.48,276.2,455.17Z" />
      <path fill="#03a9f4"
        d="M565.13,414.7c.21,31.46.82,62.95-.22,94.37-1,30.38-28,55.72-58.47,56.08-33.46.4-66.92.09-100.38.09v.07H304.68c-7.5,0-13.81-2.48-17.56-9.33-3.89-7.11-3.76-14.35.38-21.39A16.7,16.7,0,0,1,300,526.33a58.34,58.34,0,0,1,8.47-.44q96.39,0,192.77,0c16.18,0,24.68-8.46,24.68-24.56,0-27.8-.06-55.6,0-83.4.05-14.23,9.46-22.55,23.06-20.66C558.26,398.54,565.06,405.3,565.13,414.7Z" />
      <path fill="#03a9f4"
        d="M386.37,79.56c.55-9.91,6.93-16.82,16.79-18a68.32,68.32,0,0,1,8-.21q45.45,0,90.9,0c36.88,0,63.21,26.24,63.27,63.23q.06,46,0,91.9h0c0,32.46.11,64.92,0,97.38-.08,15.55-15.59,24.57-29.43,17.36a16.9,16.9,0,0,1-9.56-13.74,83.87,83.87,0,0,1-.36-9q0-91.65,0-183.29c0-16.44-8.43-24.78-25-24.78q-46.69,0-93.39,0C393.94,100.44,385.67,92.22,386.37,79.56Z" />
      <path fill="#03a9f4"
        d="M626.53,123.72a123.55,123.55,0,0,0-2.94-28.24C610.42,38.86,561.67.1,503,.05Q313-.1,123,.07a122.06,122.06,0,0,0-17.41,1.22C44,10.28.12,61,.05,123.28q-.12,94.89,0,189.78,0,95.15,0,190.28c.13,69,54,123.05,123,123.14q190.53.24,381.06,0c68.11-.07,122.39-54.56,122.43-122.7Q626.63,313.76,626.53,123.72Zm-39.3,377.61c0,40.57-24.61,73.28-62.39,83.27a86.41,86.41,0,0,1-22.25,2.64q-189.3,0-378.59,0c-48.24,0-84.41-36.11-84.47-84.36q-.21-189.79,0-379.59C39.61,75.71,75.4,39.77,123,39.55c63.43-.28,126.86-.07,190.3-.07H501.58c49.71,0,85.65,36,85.65,85.76Q587.25,313.28,587.23,501.33Z" />
    </g>
  </g>
</svg>