<svg xmlns="http://www.w3.org/2000/svg" viewBox="0 0 300.01 415.05"><g id="Layer_2" data-name="Layer 2"><g id="Layer_1-2" data-name="Layer 1"><path d="M.2,284.33c0-29.16-.06-58.31,0-87.47C.3,154.46,26.08,118,66.05,103.57a25.92,25.92,0,0,1,9.23-1.68c18.16.07,36.33.49,54.47-.14,10.3-.37,19.41,2.34,28.1,7.1,34.84,19.09,53.31,48.59,53.64,88.32.51,59.31.15,118.62.13,177.93,0,24.07-15.61,39.76-39.68,39.79C128,415,84,414.57,40,415,16.67,415.3-.54,397.3,0,374.79.76,344.65.2,314.48.2,284.33ZM12,200.7c0,4.49-.08,9,0,13.48.12,5,2.68,8.07,6.49,7.69,4.5-.45,6.08-3.4,6-7.65-.06-6.32-.21-12.66.05-19,1.24-29.94,15.64-51.56,41.92-65.46,6.71-3.54,8.54-6.11,6.41-10.18-2-3.79-5.4-4.22-11.7-1C28,135.9,12.28,163.67,12,200.7Z"/><path d="M267.6,62.79c10.07,21.17,19.91,41.56,29.48,62.07,6.26,13.43,2.22,29-9.64,38.69-10.39,8.49-26.88,8.95-38.35,1.07-11.72-8.05-17.59-24.12-11.9-37.13C246.65,105.88,257.21,84.76,267.6,62.79Z"/><path d="M106,93.87c-10.82,0-21.65-.09-32.47.07-3.15,0-4.41-.77-4.37-4.16q.25-20,0-40c0-3.1,1-4,4-3.94q32.71.15,65.45,0c3.22,0,3.87,1.25,3.84,4.14-.11,13.32-.13,26.64,0,40,0,3.09-1,4-4,4C127.63,93.79,116.8,93.87,106,93.87Z"/><path d="M150.72.1C179.12-.32,212.24.33,245,6c8,1.39,15.92,3.44,23.86,5.28,1.91.44,3.88.87,2.71,3.93-.88,2.3-1.29,3.64-4.39,2.94-44.28-10.09-89-8.06-133.83-5.16-3.14.2-3.85,1.49-3.78,4.34.16,6.66-.1,13.33.1,20,.1,3.27-.6,4.72-4.31,4.67-13.33-.21-26.66-.17-40,0-3.13,0-4-1-3.92-4,.15-11,.22-22,0-33-.1-3.94,1-5,5-5C106.29.21,126.11.1,150.72.1Z"/></g></g></svg>