<svg xmlns="http://www.w3.org/2000/svg" viewBox="0 0 876 1007.07">
  <defs>
    <style>
      .cls-1 {
        fill: #03a9f4;
      }
    </style>
  </defs>
  <g id="Layer_2" data-name="Layer 2">
    <g id="Layer_1-2" data-name="Layer 1">
      <path class="cls-1"
        d="M450.83,636.34q0-56-.06-112c0-3.35.79-5.17,4.1-6.74a33,33,0,0,0,17.95-37.48c-3.33-14.65-17.23-25.65-32.38-25.62A33.51,33.51,0,0,0,408,480a32.78,32.78,0,0,0,17.77,37.52c3.09,1.5,4.28,3.08,4.28,6.62q-.18,112,0,224c0,3.89-.59,5.46-5,5.43q-52.24-.29-104.49,0c-4.35,0-5.32-1.43-5.15-5.43.29-7.15-.06-14.33.12-21.49.15-5.86-2.32-9.55-7.59-12.2-85.59-43.18-141.36-111.15-162-204.6-23.37-105.58,4.26-198.68,79.31-276.63,46.2-48,103.29-76.88,169.24-85.79,97.88-13.22,183.2,14.7,254.26,83.59,46,44.6,74.69,99.11,84.85,162.3,15.49,96.43-10.4,181.35-75.36,254.15C633.07,675.66,603,697.58,569,714c-6,2.91-8.87,6.92-8.59,13.63.3,7.15-.12,14.34.14,21.49.12,3.6-1.17,4.46-4.58,4.45q-50.25-.17-100.5,0c-4.32,0-4.74-1.73-4.73-5.27Q450.92,692.33,450.83,636.34ZM353.5,570c0,22-.05,44,.06,66,0,3.5-.59,4.35-4.1,2.73q-19.48-9-39.22-17.42c-3.26-1.39-4.35-3.07-4.33-6.62.16-24.83-.06-49.66.2-74.49A18.14,18.14,0,0,0,300.3,526c-20.64-20.37-41-41-61.61-61.41a8.92,8.92,0,0,1-2.92-7c.13-15.16.24-30.33-.06-45.49-.08-4.26,1.17-6.29,5-8.2a32.8,32.8,0,0,0,17.06-37.85c-3.72-14.33-17.69-25-32.5-24.92a33.88,33.88,0,0,0-32.2,25.91,33.12,33.12,0,0,0,18.11,37.42c3.07,1.43,4.05,3,4,6.27-.17,17.16,0,34.33-.14,51.49a17.3,17.3,0,0,0,5.53,13.31c20.37,20.16,40.53,40.54,60.91,60.7a12.14,12.14,0,0,1,4,9.56c-.17,26,0,52-.14,78,0,6.09,2.42,9.93,8,12.39,21.49,9.41,42.87,19.06,64.31,28.56,9.43,4.18,16.34-.27,16.35-10.63q.08-77.24.07-154.48a15.56,15.56,0,0,0-5-12c-8.48-8.24-16.79-16.67-25.12-25.07a10,10,0,0,1,2.29-15.79c13.48-7,20.67-22.53,17.2-37.06A33.41,33.41,0,0,0,331.38,384c-15.7-.06-28.69,10.19-32.64,25.75-3.61,14.21,3.24,30,16.72,36.62,4.61,2.26,6.06,4.89,5.4,9.5-.18,1.31.1,2.68-.05,4-.67,5.95,1.54,10.49,5.9,14.59,8.13,7.65,15.79,15.79,23.81,23.57a9.38,9.38,0,0,1,3,7.45C353.45,527,353.5,548.47,353.5,570Zm153.33,6.45q0,39,0,78c0,10.09,6.7,14.53,15.91,10.46,21.44-9.48,42.81-19.14,64.3-28.53,5.79-2.53,8.25-6.38,8.2-12.75-.21-26,0-52-.16-78a11,11,0,0,1,3.53-8.74c20.61-20.39,41-41,61.62-61.38a16.62,16.62,0,0,0,5.31-12.84c-.16-17.16,0-34.33-.13-51.49,0-3.43,1-5.17,4.19-6.72a33,33,0,0,0,18-37.45c-3.71-15.12-17.67-26.1-32.78-25.8-15.69.32-28.83,11.3-32.26,27-3.21,14.67,4.49,30,18.82,36.54,3,1.37,3.68,2.93,3.65,5.94q-.21,23.49,0,47a8.8,8.8,0,0,1-2.95,6.94c-20.57,20.43-41,41-61.6,61.4a18.08,18.08,0,0,0-5.78,14.14c.24,25,0,50,.17,75,0,3.14-1,4.72-3.86,6-13.14,5.65-26.25,11.37-39.21,17.43-4.26,2-4.74.87-4.73-3.21q.15-65,0-130a8.9,8.9,0,0,1,2.91-7c8.35-8.14,16.44-16.54,24.82-24.66,3.59-3.48,5.59-7.32,5.2-12.38-.18-2.32.21-4.69-.09-7-.5-3.86,1-5.72,4.59-7.45,14-6.73,21-22,17.52-37.17a33.28,33.28,0,1,0-47.6,37.2c6.24,3.25,7.26,10.82,2.11,16-8.12,8.15-16.15,16.38-24.44,24.33a16.16,16.16,0,0,0-5.39,12.76C507,525.42,506.83,550.91,506.83,576.41Z" />
      <path class="cls-1"
        d="M438.46,774.16c38.66,0,77.31.13,116-.14,5.31,0,6.32,1.6,6.19,6.43-.32,12.32-.29,24.66,0,37,.11,4.46-1,5.87-5.7,5.85-47.49-.19-95-.11-142.46-.11a37.32,37.32,0,0,0-4.49.07,10.3,10.3,0,0,0-.13,20.51,35.35,35.35,0,0,0,4.49.08c47.65,0,95.31,0,143-.09,4.07,0,5.44.94,5.33,5.2-.29,11.82-.25,23.66,0,35.48.08,3.8-1.1,4.67-4.78,4.66q-72.48-.18-145-.07c-6.84,0-10.94,2.8-12,8.1a9.94,9.94,0,0,0,8.66,12.25,39.46,39.46,0,0,0,5,.13c47.31,0,94.63.1,142-.13,5.27,0,6.34,1.56,6.21,6.43-.35,12-.24,24,0,36,0,3.52-1.06,4.47-4.52,4.47q-118-.13-235.93,0c-3.82,0-4.72-1.13-4.71-4.78q.15-86.24,0-172.45c0-4,1.25-4.95,5.09-4.94C359.82,774.22,399.14,774.16,438.46,774.16Z" />
      <path class="cls-1"
        d="M437.94,976.83c16.64,0,33.28.12,49.92-.09,3.8,0,4.86,1.1,4.72,4.78-.26,7.15-.17,14.31,0,21.46.05,2.82-.5,4.11-3.79,4.09q-50.67-.18-101.34,0c-2.88,0-3.7-.9-3.64-3.69.16-7.49.21-15,0-22.46-.11-3.36,1.08-4.17,4.26-4.14C404.66,976.91,421.3,976.83,437.94,976.83Z" />
      <path class="cls-1"
        d="M427.83,487.53a12.59,12.59,0,1,1,25.17.32,12.31,12.31,0,0,1-13,12.64C432.84,500.32,427.75,494.89,427.83,487.53Z" />
      <path class="cls-1"
        d="M343.83,417.13A12.7,12.7,0,0,1,331.37,430a12.74,12.74,0,1,1-.29-25.47A12.71,12.71,0,0,1,343.83,417.13Z" />
      <path class="cls-1"
        d="M225.37,387.16a12.3,12.3,0,0,1-12.5-12.65,12.63,12.63,0,0,1,12.65-12.63,12.35,12.35,0,0,1,12.64,13C238,382.12,232.68,387.25,225.37,387.16Z" />
      <path class="cls-1" d="M549.47,404.52a12.74,12.74,0,0,1,.62,25.47,12.74,12.74,0,1,1-.62-25.47Z" />
      <path class="cls-1"
        d="M655.44,387.16c-7.29.08-12.77-5.1-12.92-12.22a12.52,12.52,0,0,1,12.69-13.06A12.78,12.78,0,0,1,668,374.47,12.52,12.52,0,0,1,655.44,387.16Z" />
    </g>
  </g>
</svg>